<svg width="255" height="214" viewBox="0 0 255 214" fill="none" xmlns="http://www.w3.org/2000/svg">
<path d="M207.714 149.006L206.267 148.73C206.336 148.453 211.022 121.931 195.103 92.0929C179.252 62.2551 155.82 54.7265 155.545 54.6575L155.958 53.207C156.234 53.2761 162.092 55.141 170.086 60.8046C177.391 65.9848 187.935 75.5163 196.343 91.4022C212.538 121.724 207.714 148.73 207.714 149.006Z" fill="white"/>
<path d="M74.4987 134.847C73.8096 134.64 73.0515 134.433 72.2245 134.364C71.3975 134.225 70.2948 134.225 69.0543 134.225C66.9179 134.225 65.2639 134.916 64.0924 136.298C62.9208 137.679 61.7492 139.198 60.5087 140.787C58.9925 142.859 57.4764 145.138 55.8913 147.556C54.3062 150.042 52.859 152.391 51.6185 154.67C50.4469 156.604 49.1375 158.952 47.6213 161.646C46.1051 164.34 44.4511 167.24 42.7282 170.28C41.0053 173.319 39.2824 176.358 37.4906 179.466C35.6987 182.574 34.0448 185.475 32.4597 188.237C29.703 192.796 26.9464 196.388 24.1897 199.012C21.3641 201.568 18.4696 203.778 15.3684 205.436C14.6792 205.781 14.2657 206.126 14.1968 206.472C14.059 206.817 14.5414 206.955 15.5751 206.955C18.7453 206.61 22.6046 206.265 27.0153 205.919C31.4259 205.574 35.8366 205.229 40.1094 204.952C44.3822 204.676 48.2416 204.4 51.6185 204.192C55.0643 203.985 57.4075 203.847 58.7858 203.847C59.3371 203.847 60.0952 203.847 60.9911 203.847C62.0249 203.847 63.0586 203.847 64.0924 203.916C65.1261 203.985 66.0909 204.054 66.9868 204.054C67.8828 204.123 68.5719 204.192 69.0543 204.331C70.8462 204.814 71.811 205.574 71.811 206.748C71.811 207.301 71.5353 208.475 71.0529 210.132C70.5705 211.79 70.0881 213.102 69.6057 214C69.3989 214 69.2611 213.793 69.2611 213.31C69.2611 212.757 69.1922 212.135 68.9854 211.583C68.8476 211.03 68.3652 210.616 67.676 210.409C65.9531 209.718 64.0234 209.234 61.887 208.889C59.7506 208.544 57.4764 208.268 55.2021 208.129C52.9279 207.991 50.7225 207.853 48.5172 207.784C46.3808 207.715 44.3133 207.715 42.3837 207.715C35.7677 207.715 30.2543 207.853 25.7059 208.06C21.2263 208.268 17.4359 208.544 14.3346 208.889C11.2334 209.234 8.7524 209.58 6.82273 209.994C4.89307 210.409 3.17016 210.823 1.72291 211.307C1.2405 211.168 0.895915 210.961 0.551332 210.547C0.137833 210.132 0 209.718 0 209.373C0 208.682 0.482416 208.337 1.37833 208.337C3.44583 208.337 5.23765 208.198 6.82273 207.991C8.40781 207.784 9.78614 207.301 10.9577 206.61C12.7496 205.436 14.5414 203.916 16.1954 201.844C17.8494 199.841 19.848 196.802 22.26 192.796C24.6721 188.79 27.1531 184.37 29.8408 179.535C32.5286 174.7 35.2163 169.796 37.9041 164.823C40.5918 159.85 43.2106 154.946 45.8295 150.18C48.4483 145.415 50.8604 141.201 52.9968 137.541C53.2035 136.988 53.617 136.505 54.0995 136.228C54.5819 135.952 55.1332 135.676 55.7535 135.469C58.1655 134.571 61.1289 133.811 64.7126 133.259C68.2963 132.706 71.5353 132.43 74.3609 132.43C74.9122 132.637 75.1879 133.051 75.119 133.604C75.0501 134.225 74.8433 134.64 74.4987 134.847Z" fill="white"/>
<path d="M121.155 187.339C118.399 190.931 115.297 194.315 111.783 197.493C108.268 200.739 105.029 203.294 102.065 205.228C99.7911 206.748 97.4479 207.853 95.0359 208.682C92.6238 209.511 90.4874 209.856 88.5577 209.856C87.8685 209.856 87.0415 209.787 86.1456 209.718C85.2497 209.58 84.4227 209.303 83.6646 208.889C82.9066 208.405 82.2863 207.853 81.8039 207.093C81.3215 206.333 81.0458 205.366 81.0458 204.054C81.0458 202.535 81.5971 200.532 82.7687 197.976C83.9403 195.42 85.2497 192.727 86.7659 189.964C88.282 187.201 89.8671 184.577 91.3833 182.021C92.8995 179.465 94.1399 177.601 95.0359 176.357C95.5872 175.459 96.6209 174.7 97.9993 174.009C99.4465 173.387 100.342 173.042 100.825 173.042C101.376 173.042 101.652 173.18 101.652 173.526C101.652 173.733 101.583 174.078 101.376 174.562C101.238 175.045 101.032 175.39 100.756 175.598C99.2398 177.877 97.7925 180.432 96.2074 183.195C94.6913 185.958 93.244 188.583 92.0035 191.207C90.763 193.763 89.7293 196.18 89.0401 198.321C88.282 200.532 87.9375 202.189 87.9375 203.502C87.9375 204.883 88.282 205.85 89.0401 206.541C89.7982 207.162 90.763 207.508 92.0035 207.508C94.2778 207.508 96.7588 206.748 99.5154 205.159C102.272 203.64 104.96 201.775 107.648 199.565C110.335 197.354 112.816 195.075 115.091 192.658C117.365 190.24 119.157 188.168 120.397 186.441C120.948 185.889 121.293 185.751 121.362 186.027C121.5 186.372 121.362 186.787 121.155 187.339ZM113.505 149.006C113.505 150.387 112.885 151.769 111.714 153.15C110.542 154.532 109.164 155.222 107.716 155.222C106.338 155.222 105.649 154.532 105.649 153.15C105.649 151.631 106.2 150.249 107.303 148.868C108.406 147.487 109.715 146.796 111.3 146.796C112.747 146.727 113.505 147.487 113.505 149.006Z" fill="white"/>
<path d="M193.449 97.6875C193.449 99.2761 192.828 101.624 191.588 104.733C190.347 107.841 188.556 111.432 186.212 115.507C183.869 119.582 181.044 123.934 177.667 128.561C174.29 133.189 170.499 137.817 166.227 142.444C161.954 147.003 157.267 151.423 152.099 155.636C146.999 159.85 141.486 163.51 135.697 166.757C134.663 168.621 133.216 171.039 131.424 174.147C129.632 177.255 127.84 180.501 126.048 183.955C124.256 187.408 122.74 190.793 121.431 194.108C120.121 197.423 119.432 200.255 119.432 202.534C119.432 206.195 121.086 208.06 124.394 208.06C127.22 208.06 130.183 207.231 133.284 205.642C136.386 204.054 139.28 202.12 142.106 199.772C144.862 197.492 147.55 195.006 149.962 192.45C152.443 189.895 154.511 187.546 156.234 185.474C157.061 184.645 157.474 184.438 157.612 184.853C157.75 185.267 157.543 185.681 157.13 186.165C155.062 188.721 152.65 191.414 149.893 194.246C147.068 197.147 144.173 199.772 141.003 202.189C137.902 204.606 134.594 206.609 131.148 208.198C127.702 209.787 124.325 210.615 120.88 210.615C117.916 210.615 115.78 209.925 114.47 208.474C113.161 207.024 112.472 205.297 112.472 203.225C112.472 201.153 113.368 198.183 115.091 194.384C116.882 190.516 118.95 186.51 121.362 182.228C123.774 178.015 126.117 173.94 128.529 170.21C130.941 166.411 132.664 163.579 133.836 161.576C135.765 158.261 137.764 154.808 139.9 151.147C142.037 147.555 144.104 144.033 146.172 140.579C148.239 137.126 150.169 133.811 152.099 130.703C153.959 127.525 155.682 124.763 157.336 122.345C159.266 119.375 161.265 116.543 163.332 113.919C165.4 111.294 168.018 108.669 171.189 105.976C175.53 102.315 179.527 99.4833 183.18 97.5493C186.833 95.6154 189.245 94.6484 190.554 94.6484C191.45 94.6484 192.208 94.9247 192.759 95.4082C193.173 95.8917 193.449 96.6514 193.449 97.6875ZM185.73 102.177C185.73 100.312 184.972 99.4142 183.525 99.4142C182.973 99.4142 182.353 99.5523 181.664 99.8977C180.975 100.243 180.079 100.934 179.045 102.039C177.942 103.144 176.633 104.663 175.117 106.597C173.601 108.531 171.602 111.087 169.19 114.195C168.294 115.438 166.985 117.303 165.331 119.721C163.677 122.138 161.54 125.315 158.99 129.252C156.44 133.189 153.339 138.093 149.756 143.895C146.172 149.696 141.899 156.534 137.006 164.477C143.829 160.609 150.238 155.844 156.234 150.249C162.229 144.654 167.398 138.991 171.671 133.12C176.013 127.249 179.39 121.585 181.94 116.06C184.489 110.603 185.73 105.976 185.73 102.177Z" fill="white"/>
<path d="M205.922 186.304C203.304 189.55 200.409 192.727 197.308 196.042C194.207 199.289 191.036 202.258 187.797 204.883C184.627 207.508 181.457 209.649 178.287 211.237C175.186 212.826 172.291 213.655 169.672 213.655C167.398 213.655 165.813 213.102 164.917 211.928C164.021 210.754 163.539 209.373 163.539 207.646C163.539 206.057 164.021 203.916 164.986 201.222C165.951 198.529 167.398 195.628 169.328 192.52C167.812 194.454 166.158 196.526 164.228 198.736C162.298 200.946 160.3 202.88 158.232 204.676C156.165 206.472 154.097 207.922 152.099 209.165C150.1 210.409 148.239 210.961 146.654 210.961C144.242 210.961 143.071 209.787 143.071 207.37C143.071 204.745 144.104 201.43 146.172 197.355C148.239 193.349 150.996 189.481 154.442 185.751C157.888 182.021 161.885 178.844 166.295 176.081C170.706 173.388 175.324 172.006 180.148 172.006C180.699 170.832 181.25 170.072 181.664 169.589C182.146 169.105 182.56 168.76 183.042 168.553L187.797 167.171L188.142 167.31C187.591 167.862 187.039 168.622 186.488 169.451C186.006 170.279 185.454 171.177 184.834 172.144C185.385 172.144 186.281 172.213 187.384 172.283C188.556 172.421 189.383 172.49 189.934 172.628C190.485 172.835 190.761 173.111 190.761 173.457C190.761 173.802 190.623 173.94 190.278 173.94C189.589 173.733 188.556 173.526 187.177 173.457C185.799 173.319 184.765 173.319 184.076 173.319C178.838 182.643 174.979 189.964 172.567 195.421C170.086 200.877 168.914 204.883 168.914 207.577C168.914 208.613 169.19 209.442 169.672 210.132C170.155 210.823 171.257 211.168 172.843 211.168C174.634 211.168 176.84 210.478 179.321 209.165C181.802 207.853 184.489 205.988 187.384 203.64C190.209 201.292 193.173 198.598 196.205 195.49C199.238 192.382 202.132 189.135 204.82 185.682C205.027 185.337 205.302 185.267 205.509 185.406C205.785 185.751 205.922 185.958 205.922 186.304ZM179.252 173.249C175.392 173.249 171.671 174.631 168.156 177.394C164.641 180.156 161.471 183.403 158.784 187.132C156.027 190.862 153.822 194.592 152.237 198.252C150.583 201.913 149.756 204.607 149.756 206.334C149.756 207.231 150.1 207.715 150.789 207.715C151.478 207.715 152.512 207.231 153.959 206.334C155.407 205.436 156.992 204.192 158.852 202.604C160.644 201.084 162.505 199.219 164.435 197.216C166.295 195.144 168.018 192.934 169.672 190.517C171.464 187.754 173.256 184.853 174.979 181.745C176.702 178.637 178.218 175.874 179.596 173.457L179.252 173.249Z" fill="white"/>
<path d="M14.9549 86.2223C14.886 86.2914 14.817 86.2914 14.7481 86.2223C14.6792 86.2223 14.6103 86.1532 14.6103 86.0842C14.7481 85.7388 14.817 85.3935 14.9549 84.91C15.0927 84.4265 15.1616 84.0121 15.2305 83.6667C15.2305 83.2523 15.4373 82.907 15.9197 82.6307C16.9535 82.0781 18.125 81.5256 19.4345 81.0421C20.7439 80.5586 22.0533 80.1442 23.2938 79.8679C25.6369 79.3845 28.1179 79.1772 30.7368 79.1772C33.9069 79.1772 36.3879 79.5226 38.1108 80.2133C39.8337 80.904 40.7297 82.1472 40.7297 84.0121C40.7297 84.91 40.454 85.8079 39.8337 86.7748C39.2824 87.7418 38.4554 88.5706 37.4217 89.3995C36.3879 90.2283 35.0785 90.919 33.5623 91.4715C32.0462 92.0241 30.3922 92.4385 28.6003 92.6457C28.2558 92.7148 28.1179 92.8529 28.2558 93.1292C29.0138 94.5106 30.0476 96.3064 31.4259 98.3785C32.8043 100.52 34.3204 102.73 35.9744 105.078C36.8703 106.252 37.8352 107.427 38.9378 108.601C40.0405 109.706 41.2121 110.742 42.5215 111.571C43.8309 112.469 45.2092 113.159 46.6565 113.643C48.1037 114.195 49.6199 114.402 51.205 114.402C53.617 114.402 56.0291 113.781 58.3723 112.538C58.579 112.399 58.7169 112.399 58.7169 112.676C58.7169 112.814 58.6479 112.952 58.5101 112.952C57.2007 113.643 55.8913 114.195 54.444 114.61C53.0657 115.024 51.5495 115.231 49.8956 115.231C47.6213 115.231 45.6227 115.024 43.8998 114.541C42.1769 114.057 40.5918 113.366 39.1446 112.399C37.6973 111.433 36.319 110.189 35.0096 108.67C33.7002 107.15 32.3218 105.285 30.9435 103.144C30.53 102.523 30.0476 101.694 29.4963 100.727C28.9449 99.7598 28.3247 98.7929 27.7734 97.8259C27.1531 96.7899 26.6018 95.8229 26.0504 94.925C25.4991 93.958 25.0856 93.1983 24.6721 92.5766C24.6721 92.4385 24.741 92.3694 24.8789 92.3694C26.6707 92.3694 28.3247 92.2313 29.8408 91.886C31.357 91.5406 32.6664 91.0571 33.7691 90.4355C34.8718 89.7448 35.7677 88.916 36.3879 87.8799C37.0082 86.8439 37.3527 85.6697 37.3527 84.2884C37.3527 83.8049 37.2838 83.3214 37.0771 82.7688C36.8703 82.2163 36.5947 81.7328 36.1123 81.3184C35.6298 80.904 35.0096 80.5586 34.2515 80.2824C33.4934 80.0061 32.5286 79.8679 31.357 79.8679C30.9435 79.8679 30.53 79.937 30.1854 80.0061C29.7719 80.0751 29.4963 80.3514 29.2206 80.6277C28.8071 81.1802 28.1869 82.0091 27.3599 83.2523C26.5329 84.4956 25.7059 85.8769 24.741 87.5346C23.7762 89.1232 22.7424 90.8499 21.7087 92.6457C20.675 94.4415 19.6412 96.2373 18.7453 97.895C17.7805 99.6217 16.9535 101.141 16.2643 102.523C15.5751 103.904 15.0238 105.009 14.6103 105.838C14.5414 105.907 14.4725 105.976 14.3346 105.976C14.1279 105.907 13.9211 105.907 13.7144 105.907C13.5076 105.907 13.3009 105.907 13.0941 105.907C12.8874 105.907 12.6806 105.907 12.405 105.907C12.1293 105.907 11.8536 105.976 11.5091 106.045C11.0266 106.321 10.5442 106.736 10.1307 107.219C10.0618 107.219 9.99289 107.219 9.85506 107.15C9.78614 107.081 9.71723 107.081 9.85506 106.943C13.5766 101.556 16.6778 96.7208 19.2277 92.5076C21.7776 88.2944 23.9829 84.4265 25.7748 80.904C25.9126 80.5586 25.9126 80.3514 25.8437 80.2824C25.7748 80.2133 25.6369 80.1442 25.4302 80.1442C24.2586 80.2133 23.0181 80.4896 21.8465 80.8349C20.675 81.2493 19.5034 81.7328 18.4696 82.2854C17.7805 82.6998 17.1602 83.2523 16.54 83.943C15.9197 84.7028 15.4373 85.3935 14.9549 86.2223Z" fill="white"/>
<path d="M54.6508 98.8618C53.9616 99.6906 53.1346 100.589 52.2387 101.486C51.2739 102.384 50.2401 103.213 49.1375 103.973C48.0348 104.733 46.8632 105.354 45.6916 105.769C44.5201 106.252 43.3485 106.459 42.1769 106.459C40.3162 106.459 39.3513 105.631 39.3513 103.904C39.3513 102.799 39.627 101.555 40.2472 100.243C40.7986 98.9308 41.5566 97.7567 42.5215 96.6516C43.4174 95.5465 44.4511 94.6486 45.5538 93.8888C46.6565 93.129 47.6902 92.7837 48.724 92.7837C49.2753 92.7837 49.6888 92.8528 49.8955 93.06C50.1023 93.2672 50.2401 93.5435 50.2401 93.8197C50.2401 94.3032 50.1023 94.8558 49.7577 95.4083C49.482 95.9609 48.9996 96.5134 48.3794 96.9969C47.7591 97.4804 47.0011 97.8948 46.1051 98.2402C45.2092 98.5855 44.1066 98.7236 42.7971 98.7236C42.5904 99.069 42.3836 99.6906 42.108 100.45C41.8323 101.21 41.7634 102.039 41.7634 102.868C41.7634 104.525 42.5215 105.354 43.9687 105.354C44.8646 105.354 45.8295 105.147 46.8632 104.664C47.828 104.249 48.7929 103.697 49.7577 103.006C50.6536 102.315 51.5495 101.625 52.3076 100.865C53.0657 100.105 53.7549 99.3453 54.2373 98.6546C54.3062 98.5855 54.3751 98.5855 54.5129 98.5855C54.5819 98.6546 54.6508 98.7236 54.6508 98.8618ZM48.3105 94.096C48.3105 93.5435 48.0348 93.3362 47.5524 93.3362C47.1389 93.3362 46.7254 93.4744 46.3119 93.8197C45.8984 94.096 45.4849 94.5104 45.0714 94.9939C44.6579 95.4774 44.3133 96.0299 43.8998 96.5825C43.5552 97.135 43.2106 97.6876 43.0039 98.2402C43.0728 98.3092 43.2106 98.3092 43.4174 98.3092C43.6241 98.3092 43.762 98.3092 43.8998 98.3092C45.0714 98.3092 46.1051 97.8948 47.001 97.066C47.897 96.2371 48.3105 95.2702 48.3105 94.096Z" fill="white"/>
<path d="M80.3566 66.6757C80.3566 67.2282 80.1499 68.0571 79.6675 69.1622C79.254 70.2673 78.5648 71.5105 77.7378 72.961C76.9108 74.4114 75.877 75.9309 74.7055 77.5195C73.5339 79.1772 72.1556 80.7658 70.6394 82.3544C69.1232 83.943 67.4692 85.5315 65.6774 86.982C63.8856 88.4324 61.9559 89.7448 59.8884 90.8499C59.5438 91.4715 58.9925 92.3694 58.3723 93.4745C57.752 94.5796 57.0628 95.6847 56.4426 96.9279C55.8223 98.1021 55.271 99.3454 54.7886 100.52C54.3062 101.694 54.0994 102.661 54.0994 103.49C54.0994 104.802 54.6508 105.423 55.8223 105.423C56.8561 105.423 57.8898 105.147 58.9236 104.595C60.0263 104.042 61.06 103.351 62.0248 102.523C62.9897 101.694 63.9545 100.865 64.7815 99.967C65.6774 99.0691 66.3666 98.2403 66.9868 97.5496C67.2625 97.2733 67.4003 97.2042 67.4692 97.3424C67.5381 97.4805 67.4692 97.6186 67.2625 97.8258C66.5733 98.7237 65.6774 99.6907 64.7126 100.658C63.7477 101.694 62.714 102.592 61.6113 103.42C60.5087 104.249 59.3371 104.94 58.1655 105.562C56.9939 106.114 55.7534 106.39 54.5818 106.39C53.5481 106.39 52.79 106.114 52.3076 105.631C51.8252 105.147 51.6184 104.526 51.6184 103.766C51.6184 103.006 51.963 102.039 52.5833 100.658C53.2035 99.2763 53.9616 97.8949 54.7886 96.3754C55.6156 94.8559 56.4426 93.4745 57.3385 92.1622C58.1655 90.8499 58.7858 89.8138 59.1993 89.1231C59.8884 87.949 60.5776 86.7057 61.3357 85.4625C62.0937 84.2192 62.7829 82.976 63.541 81.7327C64.2991 80.4895 64.9882 79.3844 65.6085 78.2793C66.2977 77.1742 66.9179 76.2072 67.4692 75.3784C68.1584 74.3424 68.8476 73.3754 69.6056 72.4084C70.2948 71.5105 71.2596 70.5436 72.3623 69.6457C73.8785 68.3333 75.3257 67.3664 76.5662 66.6757C77.8756 65.985 78.7026 65.6396 79.185 65.6396C79.5296 65.6396 79.7364 65.7087 79.9431 65.9159C80.2877 66.0541 80.3566 66.3303 80.3566 66.6757ZM77.6689 68.2643C77.6689 67.6426 77.3932 67.2973 76.9108 67.2973C76.704 67.2973 76.4973 67.3664 76.2216 67.5045C75.946 67.6426 75.6703 67.8499 75.2568 68.2643C74.8433 68.6787 74.4298 69.1622 73.8785 69.8529C73.3271 70.5436 72.638 71.4415 71.811 72.4775C71.4664 72.8919 71.0529 73.5826 70.4326 74.4114C69.8813 75.2402 69.1232 76.3454 68.2273 77.7267C67.3314 79.1081 66.2287 80.8348 64.9882 82.8379C63.7477 84.8409 62.2316 87.2583 60.5087 90.021C62.9207 88.6397 65.195 86.982 67.2625 85.0481C69.3989 83.1141 71.1907 81.1111 72.7069 79.0391C74.223 76.967 75.4635 74.964 76.2905 73.0991C77.2554 71.1652 77.6689 69.5766 77.6689 68.2643Z" fill="white"/>
<path d="M84.7673 97.7568C83.8714 98.8619 82.8376 100.036 81.735 101.141C80.6323 102.315 79.5296 103.351 78.358 104.249C77.2554 105.147 76.0838 105.907 74.9811 106.459C73.8785 107.012 72.8447 107.288 71.9488 107.288C71.1218 107.288 70.5705 107.081 70.2948 106.667C69.9502 106.252 69.8124 105.769 69.8124 105.147C69.8124 104.595 69.9502 103.835 70.2948 102.868C70.6394 101.901 71.1218 100.934 71.811 99.8289C71.2596 100.52 70.7083 101.21 70.0192 101.97C69.33 102.73 68.6408 103.42 67.8827 104.042C67.1936 104.664 66.4355 105.216 65.7463 105.631C65.0572 106.045 64.368 106.252 63.8167 106.252C62.9897 106.252 62.5762 105.838 62.5762 105.009C62.5762 104.111 62.9208 102.937 63.6788 101.487C64.368 100.105 65.4017 98.7237 66.5733 97.4114C67.8138 96.0991 69.1922 94.994 70.7772 94.0271C72.3623 93.0601 73.9474 92.5766 75.6703 92.5766C75.8771 92.1622 76.0838 91.8859 76.2216 91.7478C76.3595 91.6096 76.5662 91.4715 76.7041 91.4024L78.358 90.9189L78.4959 90.988C78.2891 91.1952 78.0824 91.4715 77.9445 91.7478C77.7378 92.024 77.6 92.3694 77.3932 92.7147C77.6 92.7147 77.8756 92.7147 78.2891 92.7838C78.7026 92.8529 78.9783 92.8529 79.185 92.9219C79.3918 92.991 79.4607 93.1292 79.4607 93.1982C79.4607 93.3364 79.3918 93.4054 79.254 93.4054C79.0472 93.3364 78.6337 93.2673 78.1513 93.1982C77.6689 93.1292 77.3243 93.1292 77.0486 93.1292C75.1879 96.3754 73.8096 99 72.9826 100.865C72.0866 102.799 71.6731 104.18 71.6731 105.147C71.6731 105.493 71.7421 105.838 71.9488 106.045C72.1556 106.252 72.5001 106.39 73.0515 106.39C73.6717 106.39 74.4298 106.183 75.3257 105.7C76.2216 105.216 77.1865 104.595 78.1513 103.766C79.185 102.937 80.2188 101.97 81.2525 100.934C82.2863 99.8289 83.32 98.7238 84.2849 97.4805C84.3538 97.3424 84.4227 97.3424 84.4916 97.4114C84.7673 97.5496 84.7673 97.6186 84.7673 97.7568ZM75.3946 93.1292C74.0163 93.1292 72.7069 93.6126 71.4664 94.5796C70.2259 95.5466 69.1232 96.6517 68.1584 97.964C67.1936 99.2763 66.4355 100.589 65.8152 101.832C65.2639 103.144 64.9193 104.042 64.9193 104.664C64.9193 105.009 65.0572 105.147 65.2639 105.147C65.4707 105.147 65.8842 105.009 66.3666 104.664C66.849 104.318 67.4692 103.904 68.0895 103.351C68.7097 102.799 69.3989 102.177 70.0192 101.417C70.6394 100.658 71.3286 99.8979 71.8799 99.0691C72.5001 98.1021 73.1204 97.0661 73.7406 95.961C74.4298 95.0631 74.9811 94.0961 75.3946 93.1292Z" fill="white"/>
<path d="M96.6209 101.279C94.5535 103.421 92.7616 104.94 91.1765 105.769C89.5915 106.598 88.2131 106.943 87.1105 106.943C86.2835 106.943 85.7321 106.736 85.3876 106.321C85.043 105.907 84.9051 105.216 84.9051 104.388C84.9051 103.973 84.9741 103.352 85.1808 102.523C85.3876 101.694 85.5254 100.934 85.6632 100.243C84.0092 101.279 82.562 102.246 81.3904 103.213C80.2188 104.18 79.3229 105.147 78.5648 106.114C77.8067 107.081 77.3243 108.117 76.9797 109.153C76.6352 110.189 76.4973 111.294 76.4973 112.469C76.4973 114.679 77.1865 116.544 78.6337 118.063C80.0121 119.583 82.0107 120.343 84.4916 120.343C85.8011 120.343 87.1105 120.066 88.4199 119.445C89.7293 118.823 90.9009 117.994 91.8657 116.958C92.0035 116.82 92.1414 116.751 92.2792 116.889C92.417 116.958 92.417 117.165 92.2103 117.373C90.6941 118.685 89.2469 119.652 87.6618 120.273C86.1456 120.964 84.4227 121.24 82.6309 121.24C81.5972 121.24 80.6323 121.102 79.6675 120.757C78.7716 120.481 77.9446 119.997 77.2554 119.306C76.5662 118.616 76.0149 117.787 75.6014 116.751C75.1879 115.715 74.9812 114.472 74.9812 113.021C74.9812 110.604 75.8771 108.324 77.7378 106.114C79.5986 103.904 82.2174 101.832 85.8011 99.7599C85.9389 99.3455 86.0078 98.9311 86.1456 98.4476C86.2835 97.9641 86.3524 97.4807 86.4902 96.9972C86.5591 96.5137 86.697 96.0993 86.697 95.7539C86.7659 95.4086 86.7659 95.1323 86.7659 94.9942C86.7659 94.4416 86.5591 94.1653 86.0767 94.1653C85.7321 94.1653 85.4565 94.2344 85.1119 94.3035C84.8362 94.3725 84.4916 94.5107 84.1471 94.5798C84.0781 94.5107 84.0092 94.5107 84.0781 94.3725C84.0781 94.3035 84.1471 94.2344 84.1471 94.1653C84.4916 94.0272 84.8362 93.8891 85.3186 93.7509C85.7321 93.6128 86.2146 93.4746 86.6281 93.3365C87.0416 93.1984 87.4551 93.1293 87.8686 92.9912C88.2821 92.9221 88.4888 92.853 88.6955 92.853C89.109 92.853 89.3847 93.0602 89.3847 93.4056C89.3847 93.5437 89.3847 93.6819 89.3158 93.8891C89.2469 94.0963 89.178 94.3725 89.0401 94.7179C88.9023 95.1323 88.6955 95.6158 88.4888 96.3065C88.282 96.9972 88.0064 97.826 87.5929 98.9311C89.3847 97.8951 90.832 96.9281 92.0725 96.0993C93.313 95.2014 93.8643 94.3725 93.8643 93.4056C93.8643 93.2674 93.8643 93.1293 93.7954 93.0602L93.9332 92.9221C94.14 92.9912 94.4156 93.0602 94.7602 93.2674C95.1048 93.4746 95.3115 93.6819 95.3115 94.0272C95.3115 94.3725 95.0359 94.787 94.5535 95.2014C94.071 95.6158 93.3819 96.0993 92.6238 96.5828C91.8657 97.0662 90.9698 97.5497 90.0739 98.0332C89.178 98.5167 88.2821 99.0002 87.4551 99.4837C87.2483 100.312 87.1105 101.072 87.0416 101.901C86.9726 102.73 86.9037 103.352 86.9037 103.697C86.9037 104.526 87.0416 105.078 87.3861 105.424C87.7307 105.769 88.282 105.976 89.178 105.976C89.3847 105.976 89.7293 105.907 90.1428 105.838C90.5563 105.769 91.0387 105.493 91.59 105.147C92.1414 104.802 92.8305 104.318 93.5197 103.697C94.2089 103.075 95.1048 102.315 96.0696 101.279C96.1385 101.21 96.2764 101.141 96.3453 101.21C96.621 101.141 96.6209 101.21 96.6209 101.279Z" fill="white"/>
<path d="M117.02 97.7568C116.124 98.8619 115.091 100.036 113.988 101.141C112.885 102.315 111.783 103.351 110.611 104.249C109.508 105.147 108.337 105.907 107.234 106.459C106.131 107.012 105.098 107.288 104.202 107.288C103.375 107.288 102.823 107.081 102.548 106.667C102.203 106.252 102.065 105.769 102.065 105.147C102.065 104.595 102.203 103.835 102.548 102.868C102.892 101.901 103.375 100.934 104.064 99.8289C103.513 100.52 102.961 101.21 102.272 101.97C101.583 102.73 100.894 103.42 100.136 104.042C99.4465 104.664 98.6884 105.216 97.9993 105.631C97.3101 106.045 96.6209 106.252 96.0696 106.252C95.2426 106.252 94.8291 105.838 94.8291 105.009C94.8291 104.111 95.1737 102.937 95.9318 101.487C96.6209 100.105 97.6547 98.7237 98.8263 97.4114C100.067 96.0991 101.445 94.994 103.03 94.0271C104.615 93.0601 106.2 92.5766 107.923 92.5766C108.13 92.1622 108.337 91.8859 108.475 91.7478C108.612 91.6096 108.819 91.4715 108.957 91.4024L110.611 90.9189L110.749 90.988C110.542 91.1952 110.335 91.4715 110.197 91.7478C109.991 92.024 109.853 92.3694 109.646 92.7147C109.853 92.7147 110.129 92.7147 110.542 92.7838C110.956 92.8529 111.231 92.8529 111.438 92.9219C111.645 92.991 111.714 93.1292 111.714 93.1982C111.714 93.3364 111.645 93.4054 111.507 93.4054C111.3 93.3364 110.887 93.2673 110.404 93.1982C109.922 93.1292 109.577 93.1292 109.302 93.1292C107.441 96.3754 106.062 99 105.235 100.865C104.34 102.799 103.926 104.18 103.926 105.147C103.926 105.493 103.995 105.838 104.202 106.045C104.408 106.252 104.753 106.39 105.304 106.39C105.925 106.39 106.683 106.183 107.579 105.7C108.475 105.216 109.439 104.595 110.404 103.766C111.438 102.937 112.472 101.97 113.505 100.934C114.539 99.8289 115.573 98.7238 116.538 97.4805C116.607 97.3424 116.676 97.3424 116.745 97.4114C117.02 97.5496 117.02 97.6186 117.02 97.7568ZM107.648 93.1292C106.269 93.1292 104.96 93.6126 103.719 94.5796C102.479 95.5466 101.376 96.6517 100.411 97.964C99.4465 99.2763 98.6884 100.589 98.0682 101.832C97.5168 103.144 97.1723 104.042 97.1723 104.664C97.1723 105.009 97.3101 105.147 97.5168 105.147C97.7236 105.147 98.1371 105.009 98.6195 104.664C99.1019 104.318 99.7222 103.904 100.342 103.351C100.963 102.799 101.652 102.177 102.272 101.417C102.892 100.658 103.581 99.8979 104.133 99.0691C104.753 98.1021 105.373 97.0661 105.994 95.961C106.683 95.0631 107.234 94.0961 107.648 93.1292Z" fill="white"/>
<path d="M127.496 84.0121C127.151 84.0812 126.806 84.2193 126.393 84.4956C125.979 84.7028 125.704 84.9791 125.497 85.3244C124.601 86.6367 123.705 87.9491 122.809 89.3995C121.913 90.7809 121.086 92.2313 120.328 93.6127H127.771C127.909 93.6818 127.978 93.7509 127.978 93.8199C127.978 93.889 127.909 93.9581 127.84 94.0271C127.496 94.0271 127.013 94.0271 126.393 94.0271C125.773 94.0271 125.015 94.0962 124.256 94.0962C123.498 94.1653 122.74 94.1653 121.913 94.2343C121.086 94.3034 120.397 94.3034 119.777 94.3725C118.674 96.3755 117.778 98.1022 117.158 99.4836C116.538 100.865 116.262 102.108 116.262 103.144C116.262 104.595 116.951 105.285 118.261 105.285C118.881 105.285 119.639 105.147 120.466 104.802C121.293 104.457 122.189 104.042 123.085 103.421C123.223 103.282 123.292 103.282 123.429 103.421C123.567 103.559 123.498 103.697 123.292 103.766C121.913 104.664 120.673 105.285 119.501 105.7C118.33 106.114 117.158 106.321 115.918 106.321C115.297 106.321 114.746 106.114 114.264 105.769C113.781 105.354 113.574 104.733 113.574 103.835C113.574 103.006 113.919 101.832 114.677 100.243C115.366 98.6548 116.469 96.7208 117.847 94.4416C117.365 94.5106 116.745 94.5106 116.055 94.5797C115.366 94.6488 114.953 94.6488 114.815 94.6488C114.608 94.6488 114.539 94.5797 114.539 94.4416C114.677 94.1653 114.953 93.889 115.297 93.6127L118.399 93.5437C118.743 92.922 119.157 92.3004 119.57 91.5406C119.984 90.7809 120.466 90.0211 120.88 89.3304C121.293 88.5707 121.775 87.88 122.258 87.1893C122.74 86.4986 123.154 85.8079 123.498 85.2554C123.912 85.0482 124.532 84.7719 125.359 84.4956C126.117 84.1503 126.806 83.943 127.427 83.7358C127.496 83.7358 127.564 83.8049 127.633 83.874C127.771 83.8049 127.702 83.874 127.496 84.0121Z" fill="white"/>
<path d="M139.418 98.1022C138.453 99.3455 137.351 100.52 136.11 101.694C134.87 102.799 133.698 103.697 132.664 104.388C131.837 104.94 131.01 105.285 130.183 105.562C129.356 105.838 128.598 105.976 127.909 105.976C127.702 105.976 127.358 105.976 127.082 105.907C126.737 105.838 126.462 105.769 126.186 105.631C125.91 105.493 125.704 105.285 125.497 105.009C125.29 104.733 125.221 104.388 125.221 103.973C125.221 103.421 125.428 102.73 125.842 101.832C126.255 100.934 126.737 99.9671 127.289 99.0001C127.84 98.0332 128.391 97.1353 128.943 96.2374C129.494 95.3395 129.908 94.7179 130.252 94.2344C130.459 93.889 130.804 93.6128 131.286 93.4056C131.768 93.1984 132.113 93.0602 132.251 93.0602C132.458 93.0602 132.526 93.1293 132.526 93.2674C132.526 93.3365 132.526 93.4746 132.458 93.6128C132.389 93.7509 132.32 93.889 132.251 93.9581C131.699 94.7869 131.217 95.6158 130.666 96.5827C130.114 97.5497 129.632 98.5167 129.218 99.4146C128.805 100.312 128.391 101.141 128.185 101.901C127.909 102.661 127.771 103.282 127.771 103.697C127.771 104.18 127.909 104.526 128.185 104.733C128.46 104.94 128.805 105.078 129.218 105.078C130.045 105.078 130.872 104.802 131.837 104.249C132.802 103.697 133.767 103.075 134.732 102.315C135.697 101.556 136.524 100.727 137.351 99.898C138.178 99.0692 138.798 98.3095 139.211 97.7569C139.418 97.5497 139.556 97.4806 139.556 97.6188C139.487 97.7569 139.487 97.895 139.418 98.1022ZM136.661 84.6338C136.661 85.1173 136.455 85.6007 136.041 86.0842C135.628 86.5677 135.145 86.7749 134.594 86.7749C134.112 86.7749 133.905 86.5677 133.905 86.0842C133.905 85.5317 134.112 85.0482 134.456 84.5647C134.87 84.0812 135.283 83.874 135.903 83.874C136.455 83.874 136.661 84.1503 136.661 84.6338Z" fill="white"/>
<path d="M156.372 95.754C155.682 96.6519 154.855 97.4807 153.891 98.2405C152.926 99.0003 151.823 99.3456 150.514 99.3456C149.824 99.3456 149.135 99.2075 148.515 98.8621C147.826 98.5168 147.343 98.0333 146.93 97.3426C146.654 97.9642 146.31 98.724 145.827 99.5528C145.414 100.382 144.862 101.21 144.242 102.039C143.622 102.868 142.933 103.628 142.244 104.319C141.486 105.009 140.727 105.562 139.832 105.976C139.142 106.322 138.522 106.46 138.04 106.46C136.592 106.46 135.903 105.838 135.903 104.526C135.903 103.835 136.041 103.075 136.317 102.316C136.592 101.556 136.937 100.796 137.282 100.105C137.695 99.4147 138.109 98.724 138.591 98.0333C139.073 97.4117 139.487 96.8591 139.9 96.4447C140.727 95.5468 141.692 94.718 142.795 94.0963C143.898 93.4747 145.069 93.0603 146.31 92.9222C146.379 92.5768 146.516 92.2315 146.654 91.8171C146.792 91.4027 147.068 91.1264 147.481 91.0573C147.688 90.9882 147.895 90.9882 148.102 90.9192C148.308 90.8501 148.515 90.8501 148.653 90.712C148.791 90.6429 148.929 90.6429 148.997 90.712C149.066 90.781 149.135 90.8501 149.066 91.0573C148.791 91.4717 148.584 92.0933 148.446 92.715C148.308 93.4057 148.239 94.1654 148.239 94.9252C148.239 96.0303 148.446 96.9972 148.86 97.6879C149.273 98.3786 150.031 98.793 151.065 98.793C152.099 98.793 153.064 98.4477 153.891 97.757C154.718 97.0663 155.407 96.3066 156.027 95.5468C156.096 95.3396 156.234 95.2705 156.44 95.3396C156.509 95.4777 156.509 95.6159 156.372 95.754ZM146.379 96.1684C146.31 95.8231 146.241 95.4087 146.172 94.9252C146.103 94.4417 146.103 93.9582 146.103 93.5438C146.103 93.3366 146.034 93.2675 145.896 93.2675C145.483 93.2675 145 93.4057 144.518 93.751C144.035 94.0273 143.553 94.4417 143.071 94.9252C142.588 95.4087 142.106 96.0303 141.623 96.6519C141.141 97.2735 140.727 97.9642 140.314 98.6549C139.763 99.5528 139.349 100.52 138.867 101.487C138.453 102.523 138.246 103.49 138.315 104.388C138.315 104.664 138.384 104.94 138.453 105.147C138.522 105.355 138.798 105.493 139.142 105.493C139.832 105.493 140.59 105.078 141.348 104.319C142.175 103.559 142.933 102.661 143.622 101.625C144.311 100.589 144.931 99.5528 145.483 98.5168C146.034 97.5498 146.31 96.721 146.379 96.1684Z" fill="white"/>
<path d="M170.293 98.2405C169.604 99.2766 168.708 100.244 167.812 101.28C166.916 102.316 165.882 103.214 164.779 104.042C163.746 104.871 162.643 105.493 161.54 106.045C160.438 106.598 159.335 106.805 158.301 106.805C157.819 106.805 157.405 106.736 156.992 106.598C156.578 106.46 156.372 106.114 156.372 105.562C156.372 105.009 156.578 104.319 156.992 103.421C157.405 102.523 157.888 101.625 158.439 100.658C158.99 99.691 159.542 98.724 160.093 97.688C160.644 96.652 161.127 95.7541 161.54 94.9252C161.609 94.718 161.609 94.5799 161.54 94.4417C161.471 94.3036 161.334 94.3036 161.127 94.4417C160.713 94.718 160.162 95.1324 159.542 95.6159C158.921 96.0994 158.301 96.5829 157.681 97.1354C157.061 97.688 156.44 98.2405 155.889 98.7931C155.338 99.3456 154.855 99.8291 154.442 100.313C153.822 101.349 153.27 102.247 152.788 103.075C152.305 103.904 151.754 104.871 151.065 105.907C150.927 106.114 150.789 106.253 150.72 106.253C150.514 106.253 150.376 106.045 150.238 105.562C150.1 105.147 150.031 104.871 150.031 104.733C150.031 104.388 150.307 103.904 150.789 103.283C151.272 102.661 151.823 101.97 152.443 101.211C153.064 99.8982 153.753 98.5859 154.442 97.1354C155.131 95.685 155.682 94.4417 156.165 93.3366C156.303 93.1294 156.44 93.0604 156.716 93.0604C156.992 93.0604 157.199 93.1294 157.405 93.3366C157.612 93.5438 157.681 93.7511 157.681 94.0273C157.681 94.1655 157.405 94.718 156.785 95.685C156.234 96.652 155.613 97.7571 155.062 99.0003C155.82 98.3096 156.647 97.6189 157.543 96.8592C158.439 96.0994 159.335 95.4087 160.162 94.718C160.989 94.0964 161.678 93.5438 162.298 93.1294C162.919 92.715 163.332 92.5078 163.608 92.5078C163.746 92.5078 163.952 92.5769 164.09 92.7841C164.228 92.9913 164.297 93.1294 164.297 93.2676C164.297 93.4057 164.228 93.682 164.021 93.9583C163.608 94.5799 163.056 95.4087 162.367 96.4447C161.747 97.4808 161.127 98.5168 160.507 99.5529C159.955 100.589 159.404 101.625 159.059 102.592C158.646 103.559 158.439 104.319 158.439 104.871C158.439 105.355 158.508 105.7 158.715 105.838C158.921 106.045 159.266 106.114 159.68 106.114C160.369 106.114 161.196 105.838 162.092 105.355C162.988 104.802 163.952 104.18 164.986 103.421C165.951 102.661 166.916 101.763 167.812 100.796C168.708 99.8291 169.397 98.9312 169.948 98.0333C170.017 97.8952 170.155 97.8952 170.293 97.9643C170.568 97.8261 170.499 97.9643 170.293 98.2405Z" fill="white"/>
<path d="M240.174 66.6061C239.071 65.7082 237.9 65.0866 236.728 64.8103C237.555 64.6031 238.451 64.2578 239.347 63.8434C242.793 62.1857 244.998 59.492 244.171 57.9034C243.413 56.2458 239.967 56.3148 236.521 57.9725C235.557 58.456 234.661 59.0085 233.903 59.5611C234.109 58.5941 234.178 57.489 233.903 56.3148C233.282 53.4139 231.353 51.3419 229.492 51.6181C229.216 51.6872 229.01 51.7563 228.803 51.8944C228.872 51.3419 228.872 50.7202 228.734 50.0986C228.734 49.9605 228.665 49.7533 228.665 49.6151C229.699 50.3058 231.077 50.7893 232.593 50.9274C236.315 51.3419 239.554 49.6842 239.76 47.1977C239.967 44.7112 237.211 42.4319 233.489 42.0175C232.318 41.8794 231.215 41.9485 230.25 42.2247C231.008 41.6031 231.697 40.7052 232.249 39.7383C233.972 36.5611 233.765 33.1076 231.766 31.9334C229.768 30.7593 226.873 32.2788 225.081 35.3178C225.012 35.1797 224.943 35.0416 224.875 34.8343C223.772 32.486 221.98 30.8283 220.257 30.3449C220.326 30.2067 220.395 29.9995 220.464 29.8614C221.015 27.7893 219.292 25.51 216.536 24.7503C215.088 24.4049 213.71 24.474 212.607 25.0265C213.297 23.9905 213.779 22.6091 213.986 21.0205C214.399 17.3599 212.883 14.1827 210.54 13.9755C208.541 13.7683 206.612 15.7713 205.854 18.6722C205.785 18.534 205.716 18.465 205.647 18.3268C203.786 15.5641 200.892 14.3208 199.031 15.2878C198.066 14.8043 196.826 14.528 195.516 14.7352C195.93 12.8704 195.378 11.0746 193.931 10.2458C192.07 9.14065 189.383 10.2458 188.004 12.7322C187.66 13.3539 187.384 14.0446 187.246 14.6662C186.488 13.492 185.316 12.3869 183.8 11.5581C180.286 9.6932 176.426 10.1767 175.117 12.6632C173.807 15.1497 175.599 18.6031 179.114 20.468C180.148 21.0205 181.25 21.3659 182.353 21.504C181.802 21.8494 181.181 22.1947 180.699 22.6782C180.148 23.1617 179.665 23.7142 179.252 24.2668C178.494 21.4349 176.564 19.4319 174.634 19.6391C172.291 19.9154 170.775 23.0235 171.189 26.6842C171.326 28.0656 171.809 29.3779 172.36 30.4139C171.395 30.2067 170.362 30.2067 169.259 30.5521C166.571 31.3809 164.917 33.7292 165.537 35.8013C166.158 37.8734 168.845 38.8404 171.533 38.0115C172.636 37.6662 173.601 37.0446 174.29 36.2848C173.738 37.0446 173.256 38.0115 173.118 39.1166C172.705 41.8794 174.083 44.4349 176.219 44.7112C176.633 44.7803 177.115 44.7112 177.529 44.6422C177.46 45.4019 177.529 46.1617 177.667 46.9905C175.186 45.8854 172.636 46.1617 171.878 47.6812C171.051 49.3389 172.429 51.7563 175.117 53.1377C175.324 53.2758 175.53 53.3449 175.806 53.483C174.841 55.0716 174.91 57.8343 176.151 60.459C176.771 61.8404 177.667 62.9455 178.632 63.7743C177.667 63.9124 176.633 64.2578 175.668 64.9485C173.325 66.6752 172.567 69.5761 173.876 71.3719C175.186 73.1677 178.149 73.3058 180.492 71.5791C181.457 70.8884 182.146 69.9214 182.56 68.9545C182.353 69.6452 182.215 70.474 182.284 71.3719C181.044 72.477 180.354 73.9274 180.699 75.2398C181.25 77.6572 184.696 78.9695 188.349 78.1407H188.418C188.349 78.2097 188.349 78.3479 188.28 78.4169C186.764 81.6632 187.177 85.1166 189.176 86.2217C191.174 87.3268 194.138 85.531 195.723 82.2848C196.205 81.3178 196.481 80.3509 196.55 79.453C197.308 80.2127 198.135 80.6962 198.962 80.6962C199.169 81.525 199.651 82.4229 200.271 83.2518C200.478 83.528 200.685 83.8043 200.961 84.0115C200.823 84.0115 200.616 84.0115 200.478 84.0115C197.584 84.2187 195.378 86.2217 195.516 88.501C195.654 90.7803 198.135 92.438 200.961 92.2307C202.132 92.1617 203.235 91.7473 204.062 91.1256C203.304 91.7473 202.683 92.6452 202.201 93.7503C201.167 96.513 201.925 99.4139 203.993 100.243C206.06 101.072 208.541 99.483 209.644 96.7202C210.195 95.2698 210.264 93.8193 209.851 92.5761C210.816 93.4049 212.194 94.0956 213.71 94.51C217.363 95.3389 220.74 94.0956 221.291 91.6782C221.36 91.471 221.36 91.2638 221.36 91.1256C221.911 90.8494 222.462 90.4349 223.014 90.0205C222.462 93.5431 223.772 96.7893 226.046 97.2037C228.32 97.6181 230.664 95.1316 231.215 91.6091C231.422 90.435 231.353 89.2608 231.146 88.2247C232.042 88.9154 233.213 89.468 234.523 89.8133C238.244 90.7803 241.759 89.7443 242.379 87.3959C243 85.1166 240.45 82.4229 236.797 81.456C236.108 81.2488 235.488 81.1797 234.867 81.1106C235.005 80.9034 235.143 80.7653 235.281 80.5581C236.866 78.1407 236.659 75.1707 234.799 73.8584C232.938 72.5461 230.112 73.444 228.527 75.8614C227.838 76.8283 227.493 77.9334 227.424 79.0386C227.356 78.0716 227.08 76.9665 226.46 75.9304C226.391 75.7923 226.253 75.6542 226.184 75.516C227.424 75.3779 228.665 74.8253 229.768 73.7893C230.87 72.7533 231.559 71.441 231.766 70.1286C232.318 71.3028 233.213 72.5461 234.454 73.5821C237.348 75.9304 240.932 76.2758 242.517 74.3419C244.171 72.4079 243.068 68.9545 240.174 66.6061ZM227.562 43.537C226.942 44.1587 226.529 44.8494 226.391 45.6782C226.391 45.8854 226.391 46.0235 226.391 46.2307C225.977 46.0235 225.564 45.9545 225.081 46.0235H225.012C225.012 45.3328 224.806 44.6422 224.392 44.0896C224.254 43.8824 224.116 43.7443 223.979 43.6061C223.91 43.3989 223.91 43.1917 223.841 42.9845C223.979 42.9154 224.048 42.9154 224.185 42.8464C224.461 42.7082 224.668 42.5701 224.875 42.3629C225.081 42.6392 225.357 42.9154 225.702 43.1226C226.184 43.537 226.873 43.6752 227.562 43.537ZM179.114 30.0686C179.183 30.1376 179.252 30.2067 179.39 30.2758C179.183 30.4139 178.976 30.6211 178.838 30.7593C178.907 30.5521 178.976 30.2758 179.114 30.0686ZM192.415 45.4019C192.553 45.6091 192.691 45.8163 192.828 46.0235C192.622 45.8854 192.415 45.7473 192.208 45.6091C192.277 45.5401 192.346 45.471 192.415 45.4019ZM205.785 47.1286C205.578 46.7833 205.233 46.507 204.958 46.2307C205.509 46.0926 205.991 45.9545 206.474 45.7473C206.129 46.0926 205.923 46.5761 205.785 47.1286ZM196.757 46.9214C196.688 47.0596 196.619 47.1977 196.619 47.4049C196.343 48.51 196.688 49.7533 197.515 50.7202C196.619 49.8914 195.516 49.477 194.413 49.6842C194.413 49.6842 194.413 49.6842 194.345 49.6842C194.413 49.4079 194.482 49.1316 194.482 48.8554C194.482 48.1647 194.207 47.474 193.724 46.8524C194.138 47.1286 194.551 47.2668 194.965 47.3358C195.585 47.3358 196.205 47.2668 196.757 46.9214ZM180.217 36.3539C181.181 36.8373 182.284 37.1827 183.594 37.2518C183.111 38.8404 183.594 41.0506 184.972 43.0536C185.385 43.6752 185.868 44.2277 186.419 44.7112C185.592 44.8494 184.834 45.0566 184.145 45.3328C183.594 42.9845 182.215 41.1887 180.768 40.8434C180.837 40.6361 180.837 40.4289 180.906 40.2217C181.181 38.7713 180.837 37.3899 180.217 36.3539ZM181.113 53.0686C181.25 52.9304 181.319 52.7923 181.388 52.6542C181.457 52.516 181.526 52.3088 181.595 52.1707C181.733 52.1707 181.871 52.1707 182.077 52.1707C182.422 52.1016 182.767 51.9635 183.042 51.6872C184.007 52.3779 185.316 52.8614 186.833 52.9995C185.799 53.6902 184.765 54.9334 183.869 56.522C183.111 55.0716 182.146 53.8283 181.113 53.0686ZM188.624 59.4229C190.072 56.7983 190.416 54.0355 189.52 52.9304C190.278 52.7923 191.037 52.5851 191.657 52.3088C191.312 53.2067 191.243 54.3118 191.45 55.4169C191.657 56.7292 192.277 57.8343 193.035 58.5941C192.07 58.6632 190.968 58.8704 189.865 59.2848C189.314 59.492 188.762 59.6992 188.28 59.9755C188.487 59.6992 188.556 59.5611 188.624 59.4229ZM196.205 65.9845C196.136 65.1557 195.93 64.3959 195.654 63.7052C197.101 62.6001 197.79 61.2878 197.446 60.1827C197.377 59.9064 197.17 59.6301 196.963 59.4229C198.686 58.6632 199.651 56.3839 199.169 53.8974C198.962 52.7232 198.48 51.7563 197.79 50.9965C198.48 51.6872 199.375 52.1707 200.478 52.447C202.683 53.0686 204.889 52.3779 205.922 50.9965C205.991 51.2037 206.06 51.4109 206.198 51.6181C206.129 51.6181 206.06 51.6181 205.991 51.6181C203.855 52.1707 202.683 54.8644 203.442 57.7653C203.855 59.2848 204.682 60.528 205.647 61.2878C204.337 61.1497 202.821 61.3569 201.374 61.9785C198.824 63.0145 197.032 64.9485 196.688 66.7443C196.55 66.9515 196.412 67.0896 196.274 67.2968C196.274 66.9515 196.274 66.468 196.205 65.9845ZM202.339 71.9244C202.615 71.7863 202.821 71.5791 203.028 71.441C202.201 73.3058 202.063 75.2398 202.477 76.6902C201.994 76.5521 201.512 76.4139 201.098 76.4139C200.961 75.9995 200.823 75.516 200.547 75.1016C199.996 74.0656 199.169 73.3058 198.342 72.8223C199.651 73.0295 201.029 72.7533 202.339 71.9244ZM209.024 66.8824C209.162 66.6752 209.299 66.3989 209.368 66.1917C209.368 66.468 209.299 66.7443 209.299 66.9515C209.231 66.9515 209.093 66.8824 209.024 66.8824ZM211.022 63.2908C210.402 63.6361 209.92 64.2578 209.644 64.9485C209.644 64.465 209.575 63.9815 209.437 63.5671C209.162 63.0145 208.748 62.531 208.266 62.1166C208.404 62.1166 208.61 62.1166 208.748 62.0476C209.92 61.7713 210.747 60.8043 211.229 59.5611C210.953 60.8043 211.091 62.0476 211.849 62.9455C211.849 62.9455 211.849 62.9455 211.849 63.0145C211.505 63.0836 211.229 63.1527 211.022 63.2908ZM202.063 40.4289C201.374 40.4289 200.685 40.498 199.996 40.5671C200.202 37.1827 198.686 34.3509 196.481 34.1437C194.482 33.9364 192.553 35.9394 191.795 38.8404C191.726 38.7022 191.657 38.6331 191.588 38.495C190.83 37.459 190.003 36.5611 189.038 36.0085C190.21 35.2488 190.968 34.2127 190.968 33.0385C190.968 31.0355 188.762 29.3088 185.799 28.8944C185.868 28.8253 186.006 28.7563 186.075 28.6872C187.108 27.7893 187.866 26.7533 188.28 25.7863C189.038 26.9605 190.554 27.8584 192.346 28.0656C193.586 28.2037 194.689 27.9965 195.654 27.513C195.516 27.8584 195.447 28.2037 195.447 28.6181C195.447 30.483 197.308 32.0716 199.927 32.6241C199.031 33.9364 199.513 36.6992 201.236 39.1857C201.581 39.6692 201.925 40.0836 202.27 40.498C202.201 40.4289 202.132 40.4289 202.063 40.4289ZM199.169 22.7473C199.582 23.3689 200.065 23.9214 200.616 24.4049C199.513 24.5431 198.548 24.8884 197.721 25.3719C197.79 25.1647 197.859 24.8884 197.928 24.6812C197.997 23.8524 197.721 23.0235 197.239 22.2638C197.721 22.1256 198.204 21.9875 198.617 21.7803C198.686 22.0566 198.893 22.4019 199.169 22.7473ZM205.578 34.0746C205.027 33.453 204.475 32.9695 203.855 32.6241C204.613 32.486 205.233 32.2788 205.854 32.0025C205.647 32.6241 205.509 33.3148 205.578 34.0746ZM206.405 25.3719C206.474 25.3028 206.543 25.2337 206.612 25.1647C206.749 25.3719 206.887 25.5791 207.025 25.7863C206.818 25.5791 206.612 25.441 206.405 25.3719ZM210.884 26.6842C210.816 26.8223 210.747 26.9605 210.747 27.1677C210.609 27.7202 210.609 28.2728 210.747 28.8253C210.678 28.8253 210.678 28.8253 210.609 28.8253C209.851 28.7563 209.162 28.9635 208.472 29.3779C208.541 29.1016 208.61 28.8253 208.61 28.5491C208.61 27.8584 208.335 27.1677 207.852 26.5461C208.266 26.8223 208.679 26.9605 209.093 27.0295C209.713 27.0986 210.333 26.9605 210.884 26.6842ZM191.037 19.3629C191.105 19.7082 191.174 19.9845 191.381 20.2608C190.21 20.468 189.176 21.0896 188.487 21.8494C188.418 21.7112 188.349 21.5731 188.211 21.4349C187.797 21.0205 187.315 20.7443 186.695 20.537C187.177 20.1917 187.66 19.7082 187.935 19.2247C188.073 18.9485 188.211 18.6722 188.28 18.3268C188.487 18.534 188.762 18.7413 189.038 18.9485C189.589 19.2938 190.278 19.4319 191.037 19.3629ZM174.634 35.8704C175.392 34.9034 175.668 33.7292 175.324 32.6932C175.324 32.6932 175.324 32.6932 175.324 32.6241C175.599 32.6932 175.875 32.6932 176.151 32.6932C176.84 32.6241 177.46 32.2788 178.011 31.7262C177.805 32.1407 177.667 32.5551 177.667 33.0385C177.667 33.6602 177.873 34.2127 178.218 34.6962C178.08 34.6271 177.942 34.6271 177.736 34.5581C176.633 34.4199 175.53 34.9034 174.634 35.8704ZM182.284 65.0866C182.215 65.0866 182.215 65.0175 182.284 65.0866C182.56 65.0175 182.835 64.9485 183.111 64.8103C183.662 64.534 184.076 64.1196 184.421 63.498C184.489 63.498 184.627 63.4289 184.696 63.4289C184.558 63.8434 184.558 64.2578 184.696 64.6031C185.179 66.0536 187.591 66.6061 190.416 66.0536C190.416 66.1917 190.416 66.2608 190.416 66.3989C190.554 67.5731 190.899 68.6782 191.312 69.5761C190.83 69.3689 190.347 69.2998 189.796 69.1617C188.9 67.0896 187.039 65.7773 185.316 66.1226C184.145 66.3298 183.249 67.2277 182.698 68.471C183.042 67.2968 182.973 66.0536 182.284 65.0866ZM193.793 74.0656C194 73.444 194.069 72.8223 193.931 72.2007C193.862 71.9935 193.793 71.7172 193.655 71.51C193.724 71.51 193.793 71.51 193.793 71.51C194.482 71.441 195.034 71.0265 195.447 70.3358C195.516 70.6812 195.585 71.0265 195.792 71.3719C196.067 71.8554 196.55 72.2698 197.101 72.5461C196.688 72.5461 196.343 72.6151 195.999 72.8223C195.378 73.1677 195.034 73.7893 194.896 74.5491C194.827 74.5491 194.827 74.48 194.758 74.48C194.482 74.2037 194.138 74.1346 193.793 74.0656ZM207.921 90.2277C206.818 89.8133 205.578 90.0205 204.475 90.8494C205.44 90.0205 205.991 88.9154 205.922 87.7413C205.854 87.0506 205.647 86.4289 205.233 85.9455C205.578 85.8764 205.922 85.7383 206.267 85.531C206.267 85.531 206.267 85.531 206.336 85.462C206.336 86.1527 206.612 86.7052 207.025 87.0506C207.508 87.3959 208.128 87.534 208.886 87.3268C208.61 87.6722 208.404 88.0866 208.266 88.5701C208.128 89.1917 208.197 89.8133 208.403 90.435C208.197 90.3659 208.059 90.2968 207.921 90.2277ZM211.918 85.6692C212.607 85.1166 213.228 84.4259 213.917 83.6662C216.329 80.6271 217.087 77.3118 215.709 76.2067C214.33 75.1016 211.229 76.6211 208.817 79.5911C208.128 80.4199 207.577 81.3178 207.163 82.2157C206.956 81.2488 206.474 80.2127 205.785 79.2458C207.577 79.1076 209.575 77.519 210.747 75.0325C211.091 74.3419 211.298 73.5821 211.505 72.8914C213.365 75.3779 215.984 76.5521 217.776 75.5851C219.844 74.4109 220.05 70.7503 218.19 67.3659C217.5 66.0536 216.536 65.0175 215.571 64.2578C216.536 64.1196 217.569 63.6362 218.465 62.8764C220.671 61.0115 221.291 58.1106 219.844 56.3148C218.396 54.519 215.433 54.6572 213.228 56.453C212.332 57.2127 211.643 58.1797 211.298 59.1467C211.574 58.1797 211.574 57.0746 211.229 55.9004C211.091 55.2788 210.884 54.7262 210.609 54.2428C212.607 53.7593 213.848 51.2728 213.365 48.5791C212.883 45.8163 210.747 43.8824 208.61 44.2968C208.541 44.2968 208.472 44.2968 208.403 44.3659C208.61 44.0896 208.679 43.8133 208.679 43.468C208.679 42.9845 208.404 42.501 207.921 42.0866C207.99 41.9485 208.128 41.8103 208.197 41.6722C208.472 41.8103 208.817 41.9485 209.162 42.0175C211.505 42.2938 213.71 39.531 214.124 35.9395C214.261 34.489 214.124 33.1076 213.779 32.0025C214.055 32.1407 214.399 32.2097 214.675 32.3479C215.295 32.486 215.915 32.5551 216.467 32.5551C215.915 34.2127 216.191 36.4229 217.225 38.6331C217.432 39.0476 217.638 39.462 217.914 39.8764C216.053 40.0145 214.537 40.9815 214.124 42.5701C213.71 44.0205 214.468 45.5401 215.846 46.5761C215.226 47.9575 215.295 49.4079 216.122 50.513C217.432 52.3779 220.395 52.447 222.738 50.7202C222.807 50.6512 222.876 50.6512 222.876 50.5821C222.876 50.7202 222.876 50.8584 222.945 51.0656C223.358 53.483 225.012 55.3479 226.666 55.0716C226.942 55.0025 227.149 54.9334 227.356 54.8644C227.218 55.6932 227.218 56.6602 227.424 57.6271C227.493 57.9725 227.562 58.3178 227.7 58.6632C227.562 58.5941 227.424 58.525 227.218 58.456C224.53 57.4199 221.635 58.2488 220.808 60.3899C219.981 62.531 221.429 65.0866 224.116 66.1226C225.219 66.537 226.391 66.6752 227.424 66.468C226.46 66.7443 225.495 67.2277 224.599 68.0566C223.014 69.5761 222.325 71.5791 222.6 73.1677C221.842 73.0295 221.084 73.1677 220.464 73.513C218.534 74.6181 218.19 77.5881 219.706 80.1437C220.464 81.3869 221.429 82.2848 222.531 82.7683C221.36 83.1136 220.119 83.8043 218.948 84.7713C218.327 85.2548 217.707 85.8764 217.225 86.4289C216.811 86.2908 216.329 86.0836 215.846 86.0145C214.399 85.462 213.09 85.3929 211.918 85.6692ZM227.562 79.522C227.631 80.7653 228.114 81.9395 229.078 82.6301C229.216 82.7683 229.423 82.8373 229.561 82.9064C229.354 83.1827 229.147 83.528 229.078 83.9425C229.01 84.2187 229.01 84.495 229.01 84.7713C228.803 84.6331 228.527 84.5641 228.251 84.495C227.769 84.4259 227.218 84.4259 226.735 84.6331C226.804 84.0115 226.666 83.528 226.322 83.1136C226.184 82.9064 225.977 82.7683 225.77 82.6992C226.942 82.0085 227.493 80.8344 227.562 79.522ZM232.111 65.7773C231.697 66.2608 231.491 66.8824 231.422 67.504C231.353 67.3659 231.215 67.2277 231.146 67.0896C230.319 66.1917 229.078 65.9154 227.769 66.1226C229.01 65.7773 229.974 65.0175 230.457 63.9815C230.732 63.3599 230.732 62.6692 230.595 62.0476C230.939 62.1857 231.353 62.1857 231.697 62.1166H231.766C231.491 62.7383 231.422 63.3599 231.697 63.8434C231.973 64.3959 232.524 64.7413 233.213 64.8794C232.8 65.1557 232.455 65.4319 232.111 65.7773Z" fill="white"/>
<path d="M157.957 46.5075C157.405 46.5075 156.854 46.5766 156.372 46.6456C156.44 46.5075 156.509 46.3003 156.578 46.1621C157.336 44.021 156.578 41.7417 154.924 41.1201C153.201 40.4985 151.272 41.7417 150.445 43.8829C149.687 46.024 150.445 48.3033 152.099 48.9249C152.237 48.994 152.374 48.994 152.512 49.063C152.374 49.3393 152.305 49.6156 152.305 49.9609C152.305 50.1681 152.305 50.3754 152.374 50.5826C152.168 50.5135 151.961 50.5135 151.754 50.5135C151.341 50.5135 150.996 50.6516 150.651 50.9279C150.583 50.4444 150.376 50.0991 150.031 49.8228C149.893 49.6847 149.756 49.6156 149.549 49.6156C150.789 48.3724 150.445 46.024 148.791 44.3663C148.722 44.2973 148.584 44.1591 148.446 44.0901C149.342 43.7447 150.238 43.054 150.858 42.018C151.547 40.982 151.754 39.8078 151.685 38.8408C152.305 39.6696 153.27 40.4294 154.442 40.982C157.13 42.2252 159.955 41.8108 160.782 40.015C161.609 38.2192 160.024 35.8018 157.336 34.5585C156.303 34.0751 155.269 33.8678 154.304 33.8678C154.924 33.5225 155.545 33.1081 156.165 32.6246C158.508 30.6907 159.611 28.2042 158.715 27.0991C157.819 25.994 155.131 26.6847 152.857 28.6877C152.168 29.2402 151.616 29.8618 151.203 30.4835C151.203 29.7237 150.996 28.8258 150.583 27.997C149.549 25.8558 147.619 24.6817 146.31 25.3033C146.103 25.3724 145.965 25.5105 145.827 25.6486C145.758 25.1651 145.621 24.7507 145.414 24.2672C145.345 24.1291 145.276 24.06 145.207 23.9219C146.172 24.2672 147.275 24.3363 148.515 24.1982C151.478 23.7838 153.615 21.8498 153.339 19.9159C153.064 17.982 150.445 16.7387 147.481 17.1531C146.585 17.2913 145.758 17.5675 145 17.9129C145.414 17.2913 145.827 16.4624 146.034 15.5645C146.723 12.8018 145.896 10.1772 144.104 9.6246C142.381 9.14112 140.383 10.8678 139.625 13.5615C139.556 13.4234 139.487 13.3543 139.349 13.2162C138.04 11.6276 136.317 10.7297 134.938 10.6606C134.938 10.5225 135.007 10.3844 135.007 10.2462C135.007 8.5195 133.216 7.13811 131.01 7.13811C129.839 7.13811 128.805 7.48346 128.047 8.10508C128.391 7.13811 128.46 5.96394 128.323 4.78977C127.909 1.88886 126.117 -0.252277 124.256 0.0239996C122.671 0.231207 121.569 2.16514 121.569 4.51349C121.5 4.44442 121.431 4.37535 121.362 4.30628C119.363 2.57956 116.882 2.16514 115.642 3.27025C114.815 3.06304 113.781 3.13211 112.816 3.54652C112.747 2.027 111.989 0.71469 110.749 0.369345C109.095 -0.114139 107.303 1.26724 106.683 3.40838C106.545 3.96094 106.476 4.51349 106.476 5.06604C105.649 4.30628 104.546 3.68466 103.237 3.33931C100.205 2.57956 97.3101 3.75373 96.8277 5.89487C96.3452 8.03601 98.3438 10.3844 101.445 11.0751C102.341 11.2823 103.306 11.3513 104.133 11.2132C103.788 11.5585 103.375 11.9729 103.099 12.4564C102.754 12.9399 102.479 13.4925 102.272 13.976C101.1 11.9039 99.2397 10.7988 97.7925 11.3513C96.0696 12.042 95.5183 14.7357 96.552 17.4294C96.9655 18.4654 97.5168 19.3633 98.206 20.054C97.4479 20.054 96.6209 20.3303 95.8628 20.8138C93.9332 21.988 93.1062 24.1291 94.0021 25.5796C94.898 27.03 97.1722 27.3063 99.033 26.1321C99.86 25.6486 100.411 24.9579 100.825 24.2672C100.549 24.9579 100.411 25.7868 100.48 26.6847C100.687 28.8949 102.272 30.5525 103.995 30.4144C104.34 30.3453 104.684 30.2763 104.96 30.069C105.029 30.6216 105.235 31.2432 105.511 31.8648C103.375 31.5195 101.514 32.2102 101.169 33.5225C100.825 34.973 102.41 36.5615 104.684 37.1141C104.891 37.1832 105.098 37.1832 105.235 37.2522C104.822 38.7027 105.373 40.7748 106.889 42.5705C107.648 43.4684 108.543 44.1591 109.439 44.6426C108.681 44.9189 107.992 45.4024 107.372 46.1621C105.925 47.9579 105.856 50.3063 107.303 51.4805C108.681 52.6546 110.956 52.1021 112.403 50.3754C113.85 48.6486 113.919 46.2312 112.472 45.057C112.678 44.988 112.885 44.8498 113.092 44.7117C113.437 44.3663 113.712 43.9519 113.85 43.4684C113.919 43.4684 113.988 43.3994 114.057 43.3303C114.057 43.6757 114.126 43.9519 114.264 44.2282C114.953 45.2642 116.882 45.1952 118.95 44.2282C118.95 44.2973 119.019 44.4354 119.019 44.5045C119.363 45.4024 119.846 46.1621 120.328 46.7838C119.915 46.7147 119.501 46.7147 119.088 46.7838C117.985 45.4024 116.331 44.7117 115.022 45.3333C113.574 46.024 113.092 47.9579 113.712 49.8919C112.954 50.997 112.747 52.2402 113.23 53.2072C114.126 54.9339 117.02 55.2793 119.639 53.8979C119.639 53.8979 119.639 53.8979 119.708 53.8979C119.708 53.9669 119.639 54.036 119.639 54.1742C119.088 56.9369 120.121 59.5615 121.913 59.976C123.705 60.3904 125.635 58.4564 126.186 55.6246C126.324 54.7958 126.393 53.9669 126.255 53.2763C126.944 53.6907 127.702 53.8979 128.323 53.7597C128.667 54.3814 129.15 55.003 129.839 55.4865C130.045 55.6937 130.321 55.8318 130.528 55.97C130.39 55.97 130.252 56.039 130.114 56.039C127.978 56.7988 126.669 58.7327 127.22 60.4594C127.771 62.1862 129.977 62.9459 132.182 62.2552C133.078 61.979 133.836 61.4264 134.387 60.8048C133.905 61.4264 133.629 62.2552 133.491 63.2222C133.216 65.5706 134.387 67.6426 136.179 67.8498C137.902 68.057 139.556 66.3994 139.832 64.051C139.969 62.8078 139.694 61.7027 139.211 60.8048C140.107 61.2883 141.279 61.5645 142.588 61.4955C145.552 61.4264 147.895 59.7687 147.895 57.8348C147.895 57.6967 147.895 57.5585 147.826 57.3513C148.17 57.006 148.515 56.5916 148.86 56.1772C149.135 59.009 150.789 61.2192 152.65 61.0811C154.511 60.9429 155.751 58.5946 155.545 55.7627C155.476 54.7958 155.2 53.8979 154.855 53.1381C155.682 53.4835 156.716 53.6907 157.75 53.6907C160.782 53.6907 163.263 52.1712 163.263 50.3063C163.47 48.0961 160.989 46.5766 157.957 46.5075ZM150.169 32.6937C150.1 33.2462 150.238 33.6606 150.514 34.006C150.789 34.3513 151.272 34.5585 151.892 34.4895C151.616 34.6967 151.41 35.042 151.203 35.3874C150.996 35.8708 150.927 36.3543 151.065 36.9069C150.996 36.8378 150.858 36.6997 150.72 36.6306C149.893 36.0781 148.929 36.1471 147.964 36.5615C148.86 36.0781 149.48 35.3183 149.549 34.3513C149.618 33.7988 149.549 33.3153 149.273 32.8318C149.549 32.9009 149.893 32.8318 150.169 32.6937ZM143.277 19.2943C142.864 19.8468 142.726 20.5375 142.795 21.1591C142.795 21.2973 142.864 21.4354 142.933 21.5736C142.588 21.5045 142.244 21.5045 141.899 21.6426C141.899 21.6426 141.83 21.6426 141.83 21.7117C141.692 21.1591 141.417 20.6757 140.934 20.3303C140.796 20.1922 140.659 20.1231 140.521 20.054C140.452 19.9159 140.383 19.7778 140.245 19.6396C140.314 19.5705 140.383 19.5705 140.452 19.5015C140.59 19.3633 140.727 19.2252 140.865 19.018C141.072 19.2252 141.348 19.3633 141.623 19.4324C142.244 19.5705 142.726 19.5015 143.277 19.2943ZM133.698 40.2222C133.698 40.4294 133.767 40.6366 133.836 40.8438C133.767 40.8438 133.698 40.8438 133.56 40.8438C133.698 40.6366 133.698 40.4294 133.698 40.2222ZM127.564 34.9729C128.185 36.0781 129.012 36.8378 129.977 37.2522C128.943 37.3904 127.84 37.8739 126.806 38.6336C125.015 39.9459 124.05 41.7417 124.119 43.2612C124.05 43.3994 123.981 43.6066 123.912 43.7447C123.843 43.3994 123.774 43.054 123.636 42.7087C123.429 42.0871 123.085 41.5345 122.809 41.051C123.705 39.8769 123.981 38.7718 123.498 38.012C123.361 37.8048 123.154 37.6666 122.947 37.5285C124.119 36.6306 124.394 34.6276 123.567 32.8318C123.154 32.003 122.602 31.3123 121.913 30.8288C122.602 31.1742 123.361 31.4504 124.256 31.4504C126.117 31.4504 127.633 30.5525 128.116 29.2402C128.185 29.3784 128.323 29.5165 128.46 29.6546C128.391 29.6546 128.391 29.7237 128.323 29.7237C126.737 30.6216 126.393 32.9009 127.564 34.9729ZM118.95 30.4835C118.95 30.2763 118.95 30.069 118.881 29.7928C118.743 29.2402 118.399 28.7567 117.916 28.4114C118.261 28.5495 118.605 28.5495 118.95 28.5495C119.432 28.4805 119.846 28.2733 120.19 27.9279C120.19 28.066 120.121 28.2042 120.121 28.3423C120.121 29.2402 120.673 30.1381 121.5 30.6907C120.742 30.2072 119.777 30.069 118.95 30.4835C119.019 30.4835 118.95 30.4835 118.95 30.4835ZM112.265 37.8048C111.438 36.8378 110.473 36.1471 109.508 35.7327C109.577 35.5946 109.646 35.4564 109.646 35.3183C109.646 35.1802 109.715 35.042 109.715 34.9039C109.853 34.9039 109.922 34.8348 110.06 34.7657C110.335 34.6276 110.542 34.4204 110.68 34.2132C111.576 34.5585 112.678 34.6276 113.85 34.4895C113.161 35.2492 112.61 36.4234 112.265 37.8048ZM106.821 25.9249C106.683 24.7507 106.2 23.7838 105.511 23.0931C106.338 23.3003 107.303 23.3003 108.268 23.0931C108.199 24.4054 109.026 25.994 110.473 27.3063C110.956 27.7207 111.438 27.997 111.92 28.2733C111.3 28.5495 110.749 28.8258 110.335 29.1711C109.439 27.4444 108.061 26.3393 106.889 26.3393C106.821 26.2012 106.821 26.063 106.821 25.9249ZM103.375 18.4654C103.444 18.4654 103.513 18.5345 103.581 18.5345C103.444 18.6726 103.306 18.8799 103.237 19.018C103.306 18.8799 103.375 18.6726 103.375 18.4654ZM109.646 13.2853C110.473 14.045 111.783 14.3904 113.23 14.1832C114.195 14.045 115.022 13.6306 115.642 13.1471C115.573 13.4234 115.573 13.7687 115.711 14.045C116.055 15.4955 117.847 16.3243 119.915 16.2552C119.432 17.4294 120.397 19.4324 122.258 21.0901C122.602 21.3663 122.947 21.6426 123.361 21.9189C123.292 21.9189 123.223 21.9189 123.154 21.988C122.602 22.1261 122.12 22.3333 121.638 22.4714C121.086 19.8468 119.432 17.982 117.64 18.1892C116.055 18.3964 114.953 20.3303 114.953 22.6787C114.884 22.6096 114.815 22.5405 114.746 22.4714C113.988 21.7808 113.161 21.2973 112.334 21.0901C113.092 20.2612 113.437 19.2943 113.23 18.3964C112.816 16.8078 110.818 15.979 108.475 16.2552C108.543 16.1862 108.612 16.1171 108.681 15.979C109.095 15.0811 109.439 14.1832 109.646 13.2853ZM117.365 8.93391C117.847 9.34832 118.33 9.6246 118.812 9.90088C117.985 10.2462 117.296 10.6606 116.813 11.2132C116.813 11.006 116.813 10.7988 116.813 10.6606C116.745 9.96995 116.331 9.41739 115.78 8.93391C116.124 8.7267 116.469 8.5195 116.745 8.31229C116.882 8.45043 117.089 8.7267 117.365 8.93391ZM123.981 9.6246C123.774 9.55553 123.636 9.48646 123.429 9.41739C123.498 9.34832 123.498 9.27926 123.567 9.21019C123.705 9.41739 123.843 9.55553 123.981 9.6246ZM124.532 16.3243C123.981 15.979 123.429 15.7027 122.947 15.5645C123.498 15.2883 123.981 15.012 124.394 14.6666C124.256 15.1501 124.325 15.7717 124.532 16.3243ZM116.676 27.5826C116.813 27.7207 116.951 27.8588 117.158 27.997C116.951 27.9279 116.813 27.8588 116.607 27.7898C116.607 27.7898 116.607 27.7207 116.676 27.5826ZM127.22 26.2702C126.944 26.063 126.669 25.8558 126.393 25.7177C126.806 25.5105 127.151 25.3033 127.496 25.027C127.358 25.4414 127.289 25.8558 127.22 26.2702ZM125.91 10.1772C126.393 10.1081 126.806 9.90088 127.151 9.55553C127.151 9.69367 127.082 9.83181 127.082 9.96995C127.082 10.4534 127.22 10.8678 127.427 11.2132H127.358C126.806 11.2823 126.255 11.6276 125.842 12.1111C125.842 11.9039 125.842 11.6967 125.773 11.4895C125.635 10.9369 125.29 10.4534 124.808 10.1081C125.152 10.1772 125.497 10.2462 125.91 10.1772ZM108.061 8.38136C108.13 8.10508 108.13 7.89787 108.13 7.6216C108.337 7.75974 108.543 7.89787 108.819 7.96694C109.37 8.10508 109.922 8.03601 110.473 7.8288C110.611 8.03601 110.749 8.24322 110.887 8.45043C109.991 8.86484 109.302 9.48646 108.957 10.2462C108.888 10.1772 108.75 10.039 108.681 9.96995C108.268 9.69367 107.854 9.55553 107.372 9.6246C107.716 9.27926 107.923 8.86484 108.061 8.38136ZM103.306 22.1952C102.41 22.2642 101.583 22.8859 101.169 23.7838C101.514 22.8859 101.514 21.9189 101.1 21.1591C101.307 21.1591 101.514 21.0901 101.721 21.021C102.272 20.8138 102.686 20.3994 102.961 19.9159C102.892 20.2612 102.892 20.6066 102.961 21.021C103.099 21.5045 103.375 21.8498 103.719 22.1952C103.513 22.1952 103.444 22.1952 103.306 22.1952ZM116.4 39.5315C116.469 39.3934 116.469 39.2552 116.538 39.1171C117.089 36.7687 116.882 34.6276 115.986 33.9369C116.538 33.6606 117.089 33.3844 117.503 33.039C117.434 33.7988 117.572 34.6276 117.985 35.4564C118.399 36.4234 119.088 37.1141 119.846 37.5976C119.088 37.8739 118.33 38.2192 117.503 38.7027C117.089 38.979 116.676 39.2552 116.4 39.5315ZM123.361 49.4084C123.429 48.8558 123.361 48.3724 123.085 47.9579C123.016 47.8198 122.878 47.6126 122.74 47.4745C122.809 47.4745 122.809 47.4745 122.878 47.4745C123.361 47.3363 123.705 46.8528 123.912 46.1621C124.05 46.4384 124.188 46.6456 124.394 46.9219C124.739 47.2673 125.152 47.4745 125.635 47.5435C125.29 47.6126 125.015 47.7507 124.808 47.9579C124.394 48.3033 124.256 48.8558 124.325 49.4775C124.256 49.4775 124.256 49.4775 124.188 49.4084C123.912 49.3393 123.636 49.3393 123.361 49.4084ZM129.425 49.7537C129.218 49.4084 129.012 49.1321 128.736 48.8558C128.116 48.1651 127.289 47.6817 126.6 47.5435C127.564 47.4054 128.598 46.9219 129.494 46.024C129.632 45.8859 129.77 45.6787 129.908 45.4715C129.632 47.06 129.908 48.5796 130.528 49.6156C130.183 49.6847 129.77 49.6847 129.425 49.7537ZM134.87 60.1141C135.421 59.2853 135.697 58.3183 135.352 57.4204C135.214 56.9369 134.87 56.4534 134.456 56.1772C134.732 56.039 135.007 55.9009 135.214 55.6937C135.214 55.6937 135.214 55.6937 135.214 55.6246C135.352 56.1772 135.628 56.5225 136.041 56.7297C136.455 56.9369 137.006 56.8679 137.488 56.5916C137.351 56.9369 137.282 57.2823 137.282 57.6967C137.282 58.1802 137.488 58.6636 137.764 59.0781C137.626 59.009 137.488 59.009 137.351 59.009C136.455 58.8709 135.49 59.3543 134.87 60.1141ZM142.588 54.036C141.486 54.036 140.452 54.3123 139.556 54.7267C139.969 54.1742 140.314 53.4835 140.659 52.7928C141.899 50.03 141.83 47.2673 140.521 46.7147C139.211 46.0931 137.144 47.8889 135.903 50.7207C135.559 51.4805 135.283 52.3093 135.145 53.069C134.801 52.3784 134.249 51.6877 133.491 51.0661C134.87 50.5826 136.041 48.994 136.455 46.8528C136.592 46.2312 136.592 45.6096 136.592 45.057C138.522 46.5766 140.727 46.991 141.968 45.8859C143.346 44.5736 142.795 41.7417 140.659 39.5315C139.832 38.6336 138.936 38.012 138.04 37.6666C138.729 37.3213 139.418 36.7687 139.969 36.0781C141.279 34.2132 141.21 31.8648 139.763 30.7597C138.315 29.7237 136.041 30.3453 134.732 32.2102C133.422 34.0751 133.491 36.4234 134.938 37.5285C134.732 37.5976 134.525 37.7357 134.387 37.9429C133.974 38.3573 133.698 38.9099 133.629 39.5315C133.56 39.1862 133.422 38.7717 133.216 38.4955C132.94 38.0811 132.526 37.8048 131.975 37.6666C132.113 37.5976 132.251 37.5976 132.32 37.5285C133.836 36.6997 134.18 34.3513 133.078 32.2793C132.871 31.8648 132.526 31.4504 132.251 31.1742C133.698 30.4144 134.18 28.2042 133.216 26.2702C132.251 24.2672 130.252 23.1621 128.736 23.9219C128.667 23.9219 128.667 23.991 128.598 23.991C128.667 23.7147 128.736 23.5075 128.667 23.2312C128.598 22.8168 128.254 22.5405 127.84 22.3333C127.909 22.1952 127.909 22.1261 127.978 21.988C128.254 22.057 128.529 22.057 128.805 22.057C130.666 21.7808 131.837 19.2252 131.424 16.3934C131.286 15.2883 130.872 14.2522 130.39 13.4234C130.666 13.4925 130.872 13.4925 131.148 13.4925C131.631 13.4925 132.113 13.4234 132.595 13.2853C132.526 14.6666 133.147 16.3243 134.387 17.8438C134.663 18.1201 134.87 18.3964 135.145 18.6726C133.767 19.1561 132.733 20.1922 132.733 21.5045C132.733 22.6787 133.56 23.7147 134.801 24.2672C134.594 25.4414 134.938 26.5465 135.765 27.2372C137.144 28.4114 139.418 27.8588 140.865 26.1321C140.934 26.063 140.934 26.063 141.003 25.994C141.072 26.1321 141.072 26.2012 141.141 26.3393C141.968 28.1351 143.553 29.1712 144.794 28.6877C145 28.6186 145.138 28.4805 145.276 28.3423C145.345 29.033 145.552 29.7237 145.896 30.4835C146.034 30.7597 146.172 30.9669 146.31 31.1742C146.172 31.1742 146.034 31.1051 145.896 31.1051C143.622 30.8288 141.623 32.072 141.348 33.7988C141.072 35.5255 142.726 37.2522 145 37.5285C145.965 37.6666 146.861 37.5285 147.619 37.1832C146.93 37.5976 146.31 38.1501 145.758 38.979C144.794 40.4294 144.656 42.1561 145.276 43.3303C144.656 43.3994 144.104 43.6066 143.691 44.021C142.45 45.2642 142.795 47.6126 144.449 49.2703C145.276 50.0991 146.241 50.5826 147.137 50.7207C146.31 51.2042 145.483 52.033 144.725 53C144.311 53.5525 143.967 54.036 143.76 54.5886C143.346 54.036 142.933 54.036 142.588 54.036Z" fill="white"/>
<path d="M205.785 186.511L204.958 185.751C204.958 185.682 208.128 182.159 212.125 175.114C215.847 168.622 221.084 157.709 225.081 142.652C232.593 114.195 223.358 94.5105 223.289 94.3033L224.254 93.8198C224.323 94.027 233.765 113.988 226.115 142.928C222.118 158.054 216.811 169.105 213.021 175.667C208.955 182.85 205.923 186.372 205.785 186.511Z" fill="white"/>
<path d="M254.509 163.441C253.337 157.57 250.098 153.15 245.136 149.973C243.069 148.591 240.794 147.694 238.382 147.072C236.108 146.519 233.765 146.243 231.422 146.658C230.595 146.796 229.492 147.21 229.01 147.348C228.527 147.486 226.253 148.73 225.357 149.489C224.53 150.249 224.254 151.147 223.979 151.7C224.806 152.183 225.702 152.736 226.666 153.288C227.907 152.39 231.491 150.456 236.384 150.94C242.448 151.561 246.514 157.225 246.514 157.501C246.514 157.778 242.31 152.597 236.246 151.976C231.697 151.492 228.251 152.874 226.873 153.495C228.665 154.67 230.526 156.051 232.386 157.64C233.834 157.018 236.246 156.396 239.209 157.018C243.896 157.985 246.652 162.82 246.583 163.027C246.514 163.234 243.689 158.814 239.002 157.778C236.384 157.225 234.109 157.57 232.731 157.985C233.696 158.814 234.661 159.781 235.557 160.748C236.521 161.784 237.348 162.82 238.175 163.856C239.278 163.718 240.794 163.787 242.448 164.477C245.618 165.928 246.721 170.003 246.652 170.141C246.583 170.279 245.343 166.48 242.242 165.03C240.863 164.408 239.554 164.201 238.52 164.201C243.62 171.108 245.136 177.67 244.86 177.946C244.585 178.222 242.517 171.453 236.728 164.339C236.521 164.339 236.384 164.408 236.384 164.339C236.384 164.339 236.453 164.27 236.659 164.201C236.521 163.994 236.315 163.787 236.177 163.579C235.626 164.754 234.799 166.964 235.35 169.105C236.177 172.42 238.589 173.94 238.451 174.009C238.313 174.078 235.557 172.558 234.73 169.312C234.178 166.964 235.281 164.616 236.039 163.441C235.557 162.889 235.074 162.336 234.592 161.784C233.489 160.609 232.318 159.504 231.215 158.468H231.146C230.664 158.054 230.181 157.64 229.699 157.225C228.872 158.883 227.493 162.198 228.32 165.582C229.492 170.348 233.007 172.489 232.731 172.558C232.455 172.628 228.596 170.486 227.424 165.79C226.529 162.267 228.389 158.676 229.492 157.087C228.32 156.12 227.218 155.291 226.115 154.531C224.806 155.706 221.773 158.745 221.36 162.751C220.808 168 223.496 171.591 223.221 171.591C222.945 171.591 219.844 167.931 220.395 162.682C220.808 158.537 224.323 155.498 225.908 154.393C224.875 153.634 223.91 153.012 223.014 152.39L222.669 152.736C222.945 153.012 222.669 153.081 222.6 153.15C222.531 153.15 221.498 153.564 220.808 153.91C220.119 154.255 217.914 155.706 217.914 155.706C217.087 156.258 215.709 157.916 215.226 158.745C214.468 160.057 213.917 161.438 213.572 162.889C213.228 164.132 213.09 165.375 212.952 166.619C212.745 170.003 213.159 173.249 214.675 176.288C215.778 178.429 217.363 180.087 219.292 181.537C221.429 183.057 223.772 184.162 226.184 185.129C229.078 186.234 231.973 187.063 234.936 187.961C239.209 189.273 243.551 190.585 247.617 192.45C249.34 193.21 250.994 194.039 252.648 195.006C252.717 195.075 252.786 195.075 252.855 195.144C252.924 195.144 252.992 195.144 252.992 195.075C252.717 194.246 252.579 193.348 252.579 192.45C252.441 190.516 252.648 188.582 252.924 186.649C253.13 185.336 253.337 184.024 253.544 182.781C253.819 181.054 254.164 179.327 254.371 177.6C254.578 176.288 254.784 174.907 254.853 173.594C255.06 170.072 255.129 166.757 254.509 163.441Z" fill="white"/>
<path d="M252.924 110.603C252.165 106.805 250.098 103.973 246.859 101.901C245.481 101.003 244.033 100.45 242.517 100.036C241.07 99.6904 239.554 99.5523 238.038 99.7595C237.486 99.8285 236.797 100.105 236.453 100.174C236.108 100.243 234.661 101.072 234.109 101.555C233.558 102.039 233.351 102.66 233.213 103.006C233.765 103.282 234.316 103.696 234.936 104.042C235.694 103.489 238.038 102.177 241.208 102.522C245.136 102.937 247.755 106.597 247.755 106.735C247.755 106.943 245.067 103.558 241.139 103.144C238.175 102.799 235.97 103.696 235.074 104.111C236.246 104.871 237.417 105.768 238.589 106.805C239.485 106.39 241.07 105.976 243 106.39C246.032 107.012 247.824 110.12 247.755 110.258C247.755 110.396 245.894 107.495 242.862 106.874C241.139 106.528 239.692 106.735 238.796 107.012C239.416 107.564 240.036 108.186 240.656 108.808C241.277 109.498 241.828 110.12 242.31 110.811C243.068 110.741 244.033 110.741 245.067 111.225C247.135 112.123 247.824 114.817 247.755 114.886C247.686 114.955 246.928 112.537 244.86 111.57C243.964 111.156 243.137 111.018 242.448 111.018C245.756 115.507 246.721 119.72 246.514 119.859C246.308 119.997 244.998 115.645 241.277 111.087C241.139 111.087 241.07 111.087 241.07 111.087C241.07 111.087 241.139 111.018 241.208 111.018C241.07 110.88 241.001 110.741 240.863 110.603C240.519 111.363 239.967 112.814 240.312 114.195C240.863 116.336 242.379 117.303 242.31 117.372C242.241 117.441 240.45 116.474 239.898 114.333C239.554 112.814 240.243 111.294 240.725 110.534C240.45 110.189 240.105 109.844 239.76 109.498C239.071 108.738 238.313 108.048 237.555 107.357C237.555 107.357 237.486 107.357 237.555 107.357C237.28 107.081 236.935 106.805 236.659 106.597C236.177 107.633 235.212 109.774 235.763 111.985C236.521 115.024 238.796 116.474 238.589 116.474C238.451 116.543 235.901 115.162 235.143 112.123C234.592 109.844 235.763 107.495 236.453 106.459C235.694 105.838 235.005 105.285 234.316 104.802C233.489 105.561 231.559 107.495 231.284 110.12C230.939 113.504 232.662 115.853 232.524 115.783C232.318 115.783 230.319 113.435 230.664 110.051C230.939 107.357 233.213 105.423 234.247 104.732C233.558 104.249 232.938 103.835 232.386 103.489L232.18 103.696C232.318 103.835 232.18 103.904 232.111 103.973C232.042 103.973 231.422 104.249 230.939 104.456C230.457 104.663 229.078 105.63 229.078 105.63C228.527 105.976 227.7 107.012 227.356 107.564C226.873 108.393 226.529 109.291 226.253 110.258C226.046 111.087 225.908 111.847 225.839 112.675C225.702 114.817 225.977 116.958 226.942 118.892C227.631 120.273 228.665 121.378 229.905 122.276C231.284 123.243 232.8 124.003 234.385 124.555C236.246 125.246 238.106 125.799 240.036 126.42C242.793 127.249 245.549 128.078 248.237 129.321C249.34 129.805 250.443 130.357 251.476 130.979C251.545 130.979 251.545 131.048 251.614 131.048C251.683 131.048 251.683 131.048 251.683 130.979C251.476 130.426 251.407 129.874 251.407 129.321C251.338 128.078 251.476 126.835 251.614 125.591C251.752 124.762 251.89 123.934 252.028 123.105C252.234 122 252.441 120.895 252.579 119.72C252.717 118.892 252.855 117.994 252.924 117.165C253.268 114.886 253.337 112.675 252.924 110.603Z" fill="white"/>
<path d="M153.546 72.3393C152.305 69.6456 152.305 66.8828 153.408 64.1201C153.891 62.9459 154.511 61.9099 155.338 60.9429C156.096 60.045 156.992 59.2852 158.026 58.7327C158.439 58.5255 158.99 58.3873 159.197 58.3183C159.473 58.2492 160.713 58.042 161.265 58.1111C161.816 58.1801 162.229 58.4564 162.505 58.5946C162.298 59.009 162.092 59.4925 161.885 60.045C161.127 60.045 159.128 60.3213 157.267 61.9789C154.993 64.051 154.993 67.5045 155.062 67.5735C155.131 67.6426 155.338 64.3964 157.612 62.3243C159.335 60.8048 161.127 60.3213 161.816 60.1831C161.402 61.1501 161.058 62.2552 160.782 63.4985C160.024 63.6366 158.853 64.1201 157.819 65.2252C156.234 67.021 156.509 69.7147 156.578 69.8528C156.647 69.9219 156.509 67.2973 158.094 65.5015C158.99 64.5345 160.024 63.9819 160.713 63.7057C160.575 64.3273 160.438 65.018 160.369 65.6396C160.3 66.3303 160.231 67.021 160.231 67.6426C159.748 67.9189 159.128 68.4024 158.715 69.1621C157.888 70.6816 158.646 72.6156 158.715 72.6846C158.784 72.7537 158.163 70.8198 158.99 69.3003C159.335 68.6096 159.817 68.1952 160.231 67.8498C160.162 72.1321 161.54 75.2402 161.678 75.2402C161.885 75.2402 160.713 71.9249 160.989 67.3663C161.058 67.2973 161.127 67.2973 161.127 67.2973C161.127 67.2973 161.058 67.2973 160.989 67.2973C160.989 67.1591 160.989 67.021 160.989 66.8828C161.54 67.2282 162.505 67.8498 162.919 68.8858C163.539 70.4744 162.988 71.7867 163.125 71.7867C163.194 71.7867 163.883 70.3363 163.263 68.8168C162.781 67.7117 161.678 67.09 160.989 66.8138C160.989 66.4684 161.058 66.1231 161.127 65.7087C161.196 64.8798 161.402 64.1201 161.54 63.3603C161.609 63.084 161.678 62.7387 161.747 62.4624C162.574 62.8768 164.09 63.8438 164.71 65.4324C165.606 67.7117 164.848 69.5765 164.986 69.5765C165.124 69.5075 166.089 67.5735 165.124 65.2943C164.435 63.5675 162.643 62.6696 161.747 62.3933C161.954 61.7027 162.161 61.012 162.367 60.3904C163.263 60.5285 165.331 60.8048 166.709 62.3243C168.501 64.2582 168.432 66.5375 168.501 66.4684C168.57 66.3994 168.845 63.9819 167.054 62.048C165.675 60.4594 163.332 60.3213 162.436 60.3213C162.643 59.6997 162.85 59.1471 163.056 58.6636H163.263C163.263 58.8708 163.401 58.8018 163.401 58.8018C163.47 58.8018 163.952 58.6636 164.366 58.5946C164.779 58.5255 166.02 58.4564 166.02 58.4564C166.502 58.4564 167.536 58.6636 168.018 58.8708C168.708 59.1471 169.328 59.5615 169.879 60.045C170.362 60.4594 170.844 60.8738 171.189 61.3573C172.222 62.6696 173.049 64.051 173.325 65.7777C173.532 66.9519 173.325 68.1261 172.98 69.2312C172.567 70.4744 171.947 71.5795 171.257 72.6846C170.43 73.997 169.466 75.1711 168.57 76.4144C167.191 78.2102 165.882 80.006 164.71 81.9399C164.228 82.7687 163.815 83.5976 163.401 84.4264C163.401 84.4264 163.401 84.4955 163.332 84.4955C163.332 84.5645 163.263 84.5645 163.263 84.4955C163.125 84.081 162.919 83.6666 162.712 83.3213C162.161 82.4925 161.54 81.8018 160.851 81.042C160.369 80.5585 159.955 80.075 159.473 79.6606C158.853 79.039 158.232 78.4174 157.612 77.7958C157.13 77.3123 156.647 76.8288 156.234 76.3453C155.2 75.2402 154.235 73.9279 153.546 72.3393Z" fill="white"/>
<path d="M205.095 129.183C205.785 125.522 207.852 122.829 210.884 120.826C212.194 119.997 213.572 119.375 215.088 119.03C216.536 118.685 217.983 118.546 219.43 118.823C219.913 118.892 220.671 119.168 220.946 119.237C221.222 119.306 222.669 120.066 223.221 120.549C223.772 121.033 223.91 121.586 224.048 121.931C223.496 122.207 222.945 122.552 222.394 122.967C221.635 122.414 219.43 121.171 216.329 121.516C212.607 121.931 210.057 125.384 210.057 125.592C210.057 125.799 212.676 122.552 216.398 122.138C219.223 121.862 221.36 122.691 222.187 123.105C221.084 123.796 219.913 124.694 218.81 125.661C217.914 125.246 216.398 124.901 214.606 125.246C211.711 125.868 209.989 128.838 209.989 128.976C209.989 129.114 211.78 126.351 214.675 125.73C216.329 125.384 217.707 125.592 218.603 125.868C217.983 126.42 217.432 126.973 216.88 127.595C216.26 128.216 215.778 128.838 215.295 129.528C214.606 129.459 213.641 129.459 212.676 129.943C210.747 130.841 210.057 133.396 210.057 133.465C210.126 133.534 210.816 131.186 212.814 130.288C213.641 129.874 214.468 129.805 215.088 129.805C211.918 134.087 211.022 138.162 211.16 138.3C211.298 138.438 212.607 134.294 216.191 129.874C216.329 129.874 216.398 129.874 216.398 129.874C216.398 129.874 216.329 129.805 216.26 129.805C216.329 129.667 216.467 129.528 216.605 129.459C216.949 130.219 217.432 131.531 217.156 132.913C216.673 134.985 215.157 135.883 215.226 135.952C215.364 135.952 217.018 135.054 217.5 133.051C217.845 131.601 217.156 130.15 216.673 129.39C216.949 129.045 217.294 128.7 217.569 128.354C218.259 127.595 218.948 126.973 219.706 126.282C219.981 126.006 220.257 125.799 220.602 125.522C221.084 126.558 221.98 128.631 221.429 130.703C220.671 133.604 218.534 134.985 218.672 135.054C218.81 135.123 221.222 133.811 221.98 130.841C222.531 128.631 221.36 126.42 220.74 125.453C221.429 124.901 222.118 124.348 222.807 123.865C223.634 124.625 225.495 126.489 225.77 128.976C226.115 132.222 224.461 134.432 224.599 134.432C224.737 134.432 226.735 132.153 226.391 128.907C226.115 126.351 223.979 124.417 223.014 123.796C223.634 123.312 224.254 122.967 224.806 122.552L225.012 122.76C224.875 122.898 225.012 122.967 225.081 123.036C225.15 123.036 225.77 123.312 226.184 123.519C226.597 123.727 227.976 124.625 227.976 124.625C228.527 124.97 229.354 126.006 229.63 126.489C230.112 127.318 230.388 128.147 230.664 129.045C230.87 129.805 231.008 130.565 231.008 131.393C231.146 133.465 230.87 135.468 229.905 137.402C229.216 138.715 228.251 139.751 227.011 140.649C225.702 141.616 224.254 142.306 222.738 142.859C220.946 143.549 219.154 144.102 217.294 144.655C214.606 145.483 211.987 146.312 209.437 147.417C208.403 147.901 207.301 148.384 206.336 149.006C206.267 149.006 206.267 149.075 206.198 149.075C206.129 149.075 206.129 149.075 206.129 149.006C206.336 148.453 206.405 147.97 206.405 147.417C206.474 146.174 206.336 145 206.198 143.826C206.06 142.997 205.922 142.237 205.785 141.408C205.578 140.303 205.44 139.267 205.233 138.162C205.095 137.333 204.958 136.504 204.889 135.676C204.682 133.327 204.682 131.255 205.095 129.183Z" fill="white"/>
</svg>
