<svg width="74" height="62" viewBox="0 0 74 62" fill="none" xmlns="http://www.w3.org/2000/svg">
<path d="M60.2779 43.1453L59.8579 43.0653C59.8779 42.9853 61.2379 35.3055 56.618 26.6659C52.0182 18.0262 45.2184 15.8462 45.1384 15.8262L45.2584 15.4062C45.3384 15.4262 47.0384 15.9662 49.3583 17.6062C51.4782 19.1061 54.5381 21.866 56.978 26.4659C61.6778 35.2455 60.2779 43.0653 60.2779 43.1453Z" fill="#624F98"/>
<path d="M21.6192 39.0452C21.4192 38.9852 21.1993 38.9252 20.9593 38.9052C20.7193 38.8652 20.3993 38.8652 20.0393 38.8652C19.4193 38.8652 18.9393 39.0652 18.5993 39.4652C18.2594 39.8652 17.9194 40.3051 17.5594 40.7651C17.1194 41.3651 16.6794 42.0251 16.2194 42.7251C15.7594 43.445 15.3395 44.125 14.9795 44.785C14.6395 45.345 14.2595 46.0249 13.8195 46.8049C13.3795 47.5849 12.8995 48.4249 12.3996 49.3048C11.8996 50.1848 11.3996 51.0648 10.8796 51.9647C10.3596 52.8647 9.87965 53.7047 9.41967 54.5046C8.6197 55.8246 7.81972 56.8646 7.01975 57.6245C6.19978 58.3645 5.35981 59.0045 4.45984 59.4845C4.25985 59.5845 4.13985 59.6845 4.11985 59.7845C4.07986 59.8845 4.21985 59.9245 4.51984 59.9245C5.43981 59.8245 6.55977 59.7245 7.83972 59.6245C9.11968 59.5245 10.3996 59.4245 11.6396 59.3445C12.8795 59.2645 13.9995 59.1845 14.9795 59.1245C15.9794 59.0645 16.6594 59.0245 17.0594 59.0245C17.2194 59.0245 17.4394 59.0245 17.6994 59.0245C17.9994 59.0245 18.2994 59.0245 18.5993 59.0445C18.8993 59.0645 19.1793 59.0845 19.4393 59.0845C19.6993 59.1045 19.8993 59.1245 20.0393 59.1645C20.5593 59.3045 20.8393 59.5245 20.8393 59.8645C20.8393 60.0245 20.7593 60.3644 20.6193 60.8444C20.4793 61.3244 20.3393 61.7044 20.1993 61.9644C20.1393 61.9644 20.0993 61.9044 20.0993 61.7644C20.0993 61.6044 20.0793 61.4244 20.0193 61.2644C19.9793 61.1044 19.8393 60.9844 19.6393 60.9244C19.1393 60.7244 18.5793 60.5844 17.9594 60.4844C17.3394 60.3844 16.6794 60.3044 16.0194 60.2644C15.3595 60.2244 14.7195 60.1844 14.0795 60.1644C13.4595 60.1444 12.8595 60.1444 12.2996 60.1444C10.3796 60.1444 8.77969 60.1844 7.45974 60.2444C6.15978 60.3044 5.05982 60.3844 4.15985 60.4844C3.25988 60.5844 2.53991 60.6844 1.97993 60.8044C1.41995 60.9244 0.919968 61.0444 0.499982 61.1844C0.359987 61.1444 0.259991 61.0844 0.159994 60.9644C0.0399986 60.8444 0 60.7244 0 60.6244C0 60.4244 0.139995 60.3244 0.399986 60.3244C0.999965 60.3244 1.51995 60.2844 1.97993 60.2244C2.43991 60.1644 2.8399 60.0245 3.17989 59.8245C3.69987 59.4845 4.21985 59.0445 4.69983 58.4445C5.17982 57.8645 5.7598 56.9846 6.45977 55.8246C7.15975 54.6646 7.87972 53.3847 8.65969 51.9847C9.43967 50.5848 10.2196 49.1648 10.9996 47.7249C11.7796 46.2849 12.5396 44.865 13.2995 43.485C14.0595 42.1051 14.7595 40.8851 15.3795 39.8252C15.4395 39.6652 15.5595 39.5252 15.6994 39.4452C15.8394 39.3652 15.9994 39.2852 16.1794 39.2252C16.8794 38.9652 17.7394 38.7452 18.7793 38.5852C19.8193 38.4252 20.7593 38.3452 21.5792 38.3452C21.7392 38.4052 21.8192 38.5252 21.7992 38.6852C21.7792 38.8652 21.7192 38.9852 21.6192 39.0452Z" fill="#624F98"/>
<path d="M35.1588 54.2447C34.3588 55.2847 33.4588 56.2647 32.4389 57.1846C31.4189 58.1246 30.4789 58.8646 29.619 59.4246C28.959 59.8645 28.279 60.1845 27.579 60.4245C26.879 60.6645 26.2591 60.7645 25.6991 60.7645C25.4991 60.7645 25.2591 60.7445 24.9991 60.7245C24.7391 60.6845 24.4991 60.6045 24.2791 60.4845C24.0591 60.3445 23.8792 60.1845 23.7392 59.9645C23.5992 59.7446 23.5192 59.4646 23.5192 59.0846C23.5192 58.6446 23.6792 58.0646 24.0191 57.3246C24.3591 56.5847 24.7391 55.8047 25.1791 55.0047C25.6191 54.2047 26.0791 53.4448 26.5191 52.7048C26.959 51.9648 27.319 51.4248 27.579 51.0649C27.739 50.8049 28.039 50.5849 28.439 50.3849C28.859 50.2049 29.119 50.1049 29.259 50.1049C29.419 50.1049 29.499 50.1449 29.499 50.2449C29.499 50.3049 29.479 50.4049 29.419 50.5449C29.379 50.6849 29.319 50.7849 29.239 50.8449C28.799 51.5048 28.379 52.2448 27.919 53.0448C27.479 53.8448 27.059 54.6047 26.6991 55.3647C26.3391 56.1047 26.0391 56.8047 25.8391 57.4246C25.6191 58.0646 25.5191 58.5446 25.5191 58.9246C25.5191 59.3246 25.6191 59.6046 25.8391 59.8045C26.0591 59.9845 26.3391 60.0845 26.6991 60.0845C27.359 60.0845 28.079 59.8645 28.879 59.4046C29.6789 58.9646 30.4589 58.4246 31.2389 57.7846C32.0189 57.1446 32.7388 56.4847 33.3988 55.7847C34.0588 55.0847 34.5788 54.4847 34.9388 53.9848C35.0988 53.8248 35.1988 53.7848 35.2188 53.8648C35.2588 53.9648 35.2188 54.0848 35.1588 54.2447ZM32.9388 43.1451C32.9388 43.5451 32.7588 43.9451 32.4189 44.3451C32.0789 44.7451 31.6789 44.9451 31.2589 44.9451C30.8589 44.9451 30.6589 44.7451 30.6589 44.3451C30.6589 43.9051 30.8189 43.5051 31.1389 43.1051C31.4589 42.7052 31.8389 42.5052 32.2989 42.5052C32.7188 42.4852 32.9388 42.7052 32.9388 43.1451Z" fill="#624F98"/>
<path d="M56.138 28.2857C56.138 28.7457 55.958 29.4257 55.598 30.3257C55.2381 31.2256 54.7181 32.2656 54.0381 33.4456C53.3581 34.6255 52.5382 35.8855 51.5582 37.2254C50.5782 38.5654 49.4783 39.9053 48.2383 41.2453C46.9983 42.5652 45.6384 43.8452 44.1384 45.0651C42.6585 46.2851 41.0586 47.3451 39.3786 48.285C39.0786 48.825 38.6586 49.525 38.1387 50.425C37.6187 51.3249 37.0987 52.2649 36.5787 53.2649C36.0587 54.2648 35.6188 55.2448 35.2388 56.2047C34.8588 57.1647 34.6588 57.9847 34.6588 58.6447C34.6588 59.7046 35.1388 60.2446 36.0987 60.2446C36.9187 60.2446 37.7787 60.0046 38.6786 59.5446C39.5786 59.0846 40.4186 58.5247 41.2386 57.8447C42.0385 57.1847 42.8185 56.4647 43.5185 55.7248C44.2384 54.9848 44.8384 54.3048 45.3384 53.7048C45.5784 53.4648 45.6984 53.4048 45.7384 53.5248C45.7784 53.6448 45.7184 53.7648 45.5984 53.9048C44.9984 54.6448 44.2984 55.4248 43.4985 56.2447C42.6785 57.0847 41.8385 57.8447 40.9186 58.5447C40.0186 59.2446 39.0586 59.8246 38.0587 60.2846C37.0587 60.7446 36.0787 60.9846 35.0788 60.9846C34.2188 60.9846 33.5988 60.7846 33.2188 60.3646C32.8388 59.9446 32.6389 59.4446 32.6389 58.8447C32.6389 58.2447 32.8988 57.3847 33.3988 56.2847C33.9188 55.1648 34.5188 54.0048 35.2188 52.7649C35.9187 51.5449 36.5987 50.365 37.2987 49.285C37.9987 48.185 38.4986 47.3651 38.8386 46.7851C39.3986 45.8251 39.9786 44.8251 40.5986 43.7652C41.2186 42.7252 41.8185 41.7053 42.4185 40.7053C43.0185 39.7053 43.5785 38.7454 44.1384 37.8454C44.6784 36.9254 45.1784 36.1255 45.6584 35.4255C46.2184 34.5655 46.7984 33.7455 47.3983 32.9856C47.9983 32.2256 48.7583 31.4656 49.6783 30.6856C50.9382 29.6257 52.0982 28.8057 53.1581 28.2457C54.2181 27.6858 54.9181 27.4058 55.2981 27.4058C55.558 27.4058 55.778 27.4858 55.938 27.6258C56.058 27.7658 56.138 27.9857 56.138 28.2857ZM53.8981 29.5857C53.8981 29.0457 53.6781 28.7857 53.2581 28.7857C53.0981 28.7857 52.9181 28.8257 52.7181 28.9257C52.5182 29.0257 52.2582 29.2257 51.9582 29.5457C51.6382 29.8657 51.2582 30.3057 50.8182 30.8656C50.3782 31.4256 49.7983 32.1656 49.0983 33.0656C48.8383 33.4256 48.4583 33.9655 47.9783 34.6655C47.4983 35.3655 46.8784 36.2854 46.1384 37.4254C45.3984 38.5654 44.4984 39.9853 43.4585 41.6653C42.4185 43.3452 41.1786 45.3251 39.7586 47.6251C41.7385 46.5051 43.5985 45.1251 45.3384 43.5052C47.0783 41.8853 48.5783 40.2453 49.8183 38.5454C51.0782 36.8454 52.0582 35.2055 52.7981 33.6055C53.5381 32.0256 53.8981 30.6856 53.8981 29.5857Z" fill="#624F98"/>
<path d="M59.7579 53.9446C58.9979 54.8846 58.158 55.8045 57.258 56.7645C56.358 57.7045 55.4381 58.5644 54.4981 59.3244C53.5781 60.0844 52.6582 60.7044 51.7382 61.1643C50.8382 61.6243 49.9983 61.8643 49.2383 61.8643C48.5783 61.8643 48.1183 61.7043 47.8583 61.3643C47.5983 61.0243 47.4583 60.6244 47.4583 60.1244C47.4583 59.6644 47.5983 59.0444 47.8783 58.2644C48.1583 57.4845 48.5783 56.6445 49.1383 55.7445C48.6983 56.3045 48.2183 56.9045 47.6583 57.5445C47.0984 58.1844 46.5184 58.7444 45.9184 59.2644C45.3184 59.7844 44.7184 60.2044 44.1385 60.5644C43.5585 60.9243 43.0185 61.0843 42.5585 61.0843C41.8585 61.0843 41.5186 60.7444 41.5186 60.0444C41.5186 59.2844 41.8185 58.3244 42.4185 57.1445C43.0185 55.9845 43.8185 54.8646 44.8184 53.7846C45.8184 52.7046 46.9784 51.7847 48.2583 50.9847C49.5383 50.2047 50.8782 49.8047 52.2782 49.8047C52.4382 49.4647 52.5982 49.2448 52.7182 49.1048C52.8582 48.9648 52.9782 48.8648 53.1181 48.8048L54.4981 48.4048L54.5981 48.4448C54.4381 48.6048 54.2781 48.8248 54.1181 49.0648C53.9781 49.3048 53.8181 49.5647 53.6381 49.8447C53.7981 49.8447 54.0581 49.8647 54.3781 49.8847C54.7181 49.9247 54.9581 49.9447 55.1181 49.9847C55.2781 50.0447 55.3581 50.1247 55.3581 50.2247C55.3581 50.3247 55.3181 50.3647 55.2181 50.3647C55.0181 50.3047 54.7181 50.2447 54.3181 50.2247C53.9181 50.1847 53.6181 50.1847 53.4181 50.1847C51.8982 52.8846 50.7782 55.0046 50.0783 56.5845C49.3583 58.1644 49.0183 59.3244 49.0183 60.1044C49.0183 60.4044 49.0983 60.6444 49.2383 60.8443C49.3783 61.0443 49.6983 61.1443 50.1582 61.1443C50.6782 61.1443 51.3182 60.9443 52.0382 60.5644C52.7582 60.1844 53.5381 59.6444 54.3781 58.9644C55.1981 58.2844 56.058 57.5045 56.938 56.6045C57.818 55.7045 58.658 54.7646 59.4379 53.7646C59.4979 53.6646 59.5779 53.6446 59.6379 53.6846C59.7179 53.7846 59.7579 53.8446 59.7579 53.9446ZM52.0182 50.1647C50.8982 50.1647 49.8183 50.5647 48.7983 51.3647C47.7783 52.1647 46.8584 53.1046 46.0784 54.1846C45.2784 55.2645 44.6384 56.3445 44.1785 57.4045C43.6985 58.4644 43.4585 59.2444 43.4585 59.7444C43.4585 60.0044 43.5585 60.1444 43.7585 60.1444C43.9585 60.1444 44.2585 60.0044 44.6784 59.7444C45.0984 59.4844 45.5584 59.1244 46.0984 58.6644C46.6184 58.2244 47.1584 57.6845 47.7183 57.1045C48.2583 56.5045 48.7583 55.8645 49.2383 55.1646C49.7583 54.3646 50.2782 53.5246 50.7782 52.6246C51.2782 51.7247 51.7182 50.9247 52.1182 50.2247L52.0182 50.1647Z" fill="#624F98"/>
<path d="M4.33989 24.9662C4.31989 24.9862 4.2999 24.9862 4.2799 24.9662C4.2599 24.9662 4.2399 24.9462 4.2399 24.9262C4.2799 24.8262 4.2999 24.7262 4.33989 24.5862C4.37989 24.4462 4.39989 24.3262 4.41989 24.2262C4.41989 24.1062 4.47989 24.0062 4.61988 23.9262C4.91987 23.7662 5.25986 23.6062 5.63985 23.4662C6.01983 23.3263 6.39982 23.2063 6.75981 23.1263C7.43978 22.9863 8.15976 22.9263 8.91973 22.9263C9.8397 22.9263 10.5597 23.0263 11.0597 23.2263C11.5596 23.4263 11.8196 23.7862 11.8196 24.3262C11.8196 24.5862 11.7396 24.8462 11.5596 25.1262C11.3996 25.4062 11.1597 25.6462 10.8597 25.8862C10.5597 26.1262 10.1797 26.3262 9.7397 26.4861C9.29972 26.6461 8.81974 26.7661 8.29975 26.8261C8.19976 26.8461 8.15976 26.8861 8.19976 26.9661C8.41975 27.3661 8.71974 27.8861 9.11972 28.4861C9.51971 29.1061 9.9597 29.746 10.4397 30.426C10.6997 30.766 10.9797 31.106 11.2996 31.446C11.6196 31.766 11.9596 32.0659 12.3396 32.3059C12.7196 32.5659 13.1196 32.7659 13.5396 32.9059C13.9596 33.0659 14.3995 33.1259 14.8595 33.1259C15.5595 33.1259 16.2595 32.9459 16.9394 32.5859C16.9994 32.5459 17.0394 32.5459 17.0394 32.6259C17.0394 32.6659 17.0194 32.7059 16.9794 32.7059C16.5995 32.9059 16.2195 33.0659 15.7995 33.1859C15.3995 33.3059 14.9595 33.3659 14.4795 33.3659C13.8196 33.3659 13.2396 33.3059 12.7396 33.1659C12.2396 33.0259 11.7796 32.8259 11.3596 32.5459C10.9397 32.2659 10.5397 31.906 10.1597 31.466C9.7797 31.026 9.37972 30.486 8.97973 29.866C8.85973 29.686 8.71974 29.446 8.55974 29.166C8.39975 28.8861 8.21976 28.6061 8.05976 28.3261C7.87977 28.0261 7.71977 27.7461 7.55978 27.4861C7.39979 27.2061 7.27979 26.9861 7.15979 26.8061C7.15979 26.7661 7.17979 26.7461 7.21979 26.7461C7.73977 26.7461 8.21976 26.7061 8.65974 26.6061C9.09973 26.5061 9.47971 26.3661 9.7997 26.1862C10.1197 25.9862 10.3797 25.7462 10.5597 25.4462C10.7397 25.1462 10.8397 24.8062 10.8397 24.4062C10.8397 24.2662 10.8197 24.1262 10.7597 23.9662C10.6997 23.8062 10.6197 23.6662 10.4797 23.5462C10.3397 23.4263 10.1597 23.3263 9.9397 23.2463C9.7197 23.1663 9.43971 23.1263 9.09973 23.1263C8.97973 23.1263 8.85973 23.1463 8.75974 23.1663C8.63974 23.1863 8.55975 23.2663 8.47975 23.3463C8.35975 23.5062 8.17976 23.7462 7.93977 24.1062C7.69978 24.4662 7.45978 24.8662 7.17979 25.3462C6.8998 25.8062 6.59981 26.3062 6.29982 26.8261C5.99984 27.3461 5.69985 27.8661 5.43986 28.3461C5.15987 28.8461 4.91987 29.286 4.71988 29.686C4.51989 30.086 4.35989 30.406 4.2399 30.646C4.2199 30.666 4.1999 30.686 4.1599 30.686C4.0999 30.666 4.0399 30.666 3.97991 30.666C3.91991 30.666 3.85991 30.666 3.79991 30.666C3.73992 30.666 3.67992 30.666 3.59992 30.666C3.51992 30.666 3.43993 30.686 3.33993 30.706C3.19993 30.786 3.05994 30.906 2.93994 31.046C2.91994 31.046 2.89994 31.046 2.85995 31.026C2.83995 31.006 2.81995 31.006 2.85995 30.966C3.93991 29.406 4.83988 28.0061 5.57985 26.7861C6.31982 25.5662 6.9598 24.4462 7.47978 23.4263C7.51978 23.3263 7.51978 23.2663 7.49978 23.2463C7.47978 23.2263 7.43979 23.2063 7.37979 23.2063C7.0398 23.2263 6.67981 23.3063 6.33982 23.4063C5.99984 23.5262 5.65985 23.6662 5.35986 23.8262C5.15986 23.9462 4.97987 24.1062 4.79988 24.3062C4.61988 24.5262 4.47989 24.7262 4.33989 24.9662Z" fill="#624F98"/>
<path d="M15.8595 28.6261C15.6595 28.8661 15.4195 29.1261 15.1595 29.3861C14.8795 29.6461 14.5795 29.8861 14.2595 30.1061C13.9395 30.3261 13.5995 30.5061 13.2596 30.6261C12.9196 30.7661 12.5796 30.8261 12.2396 30.8261C11.6996 30.8261 11.4196 30.5861 11.4196 30.0861C11.4196 29.7661 11.4996 29.4061 11.6796 29.0261C11.8396 28.6461 12.0596 28.3062 12.3396 27.9862C12.5996 27.6662 12.8996 27.4062 13.2196 27.1862C13.5395 26.9662 13.8395 26.8662 14.1395 26.8662C14.2995 26.8662 14.4195 26.8862 14.4795 26.9462C14.5395 27.0062 14.5795 27.0862 14.5795 27.1662C14.5795 27.3062 14.5395 27.4662 14.4395 27.6262C14.3595 27.7862 14.2195 27.9462 14.0395 28.0862C13.8595 28.2262 13.6395 28.3462 13.3795 28.4462C13.1196 28.5462 12.7996 28.5862 12.4196 28.5862C12.3596 28.6861 12.2996 28.8661 12.2196 29.0861C12.1396 29.3061 12.1196 29.5461 12.1196 29.7861C12.1196 30.2661 12.3396 30.5061 12.7596 30.5061C13.0196 30.5061 13.2996 30.4461 13.5995 30.3061C13.8795 30.1861 14.1595 30.0261 14.4395 29.8261C14.6995 29.6261 14.9595 29.4261 15.1795 29.2061C15.3995 28.9861 15.5995 28.7661 15.7395 28.5662C15.7595 28.5462 15.7795 28.5462 15.8195 28.5462C15.8395 28.5662 15.8595 28.5862 15.8595 28.6261ZM14.0195 27.2462C14.0195 27.0862 13.9395 27.0262 13.7995 27.0262C13.6795 27.0262 13.5595 27.0662 13.4395 27.1662C13.3195 27.2462 13.1996 27.3662 13.0796 27.5062C12.9596 27.6462 12.8596 27.8062 12.7396 27.9662C12.6396 28.1262 12.5396 28.2862 12.4796 28.4462C12.4996 28.4662 12.5396 28.4662 12.5996 28.4662C12.6596 28.4662 12.6996 28.4662 12.7396 28.4662C13.0796 28.4662 13.3795 28.3462 13.6395 28.1062C13.8995 27.8662 14.0195 27.5862 14.0195 27.2462Z" fill="#624F98"/>
<path d="M23.3193 19.3063C23.3193 19.4663 23.2593 19.7063 23.1193 20.0263C22.9993 20.3463 22.7993 20.7063 22.5593 21.1263C22.3193 21.5463 22.0193 21.9862 21.6793 22.4462C21.3393 22.9262 20.9393 23.3862 20.4994 23.8462C20.0594 24.3062 19.5794 24.7661 19.0594 25.1861C18.5394 25.6061 17.9794 25.9861 17.3795 26.3061C17.2795 26.4861 17.1195 26.7461 16.9395 27.0661C16.7595 27.3861 16.5595 27.706 16.3795 28.066C16.1995 28.406 16.0395 28.766 15.8995 29.106C15.7595 29.446 15.6995 29.726 15.6995 29.966C15.6995 30.3459 15.8595 30.5259 16.1995 30.5259C16.4995 30.5259 16.7995 30.4459 17.0995 30.286C17.4195 30.126 17.7195 29.926 17.9994 29.686C18.2794 29.446 18.5594 29.206 18.7994 28.946C19.0594 28.686 19.2594 28.446 19.4394 28.246C19.5194 28.166 19.5594 28.146 19.5794 28.186C19.5994 28.226 19.5794 28.266 19.5194 28.326C19.3194 28.586 19.0594 28.866 18.7794 29.146C18.4994 29.446 18.1994 29.706 17.8795 29.946C17.5595 30.186 17.2195 30.3859 16.8795 30.5659C16.5395 30.7259 16.1795 30.8059 15.8395 30.8059C15.5395 30.8059 15.3195 30.7259 15.1795 30.5859C15.0396 30.4459 14.9796 30.266 14.9796 30.046C14.9796 29.826 15.0796 29.546 15.2595 29.146C15.4395 28.746 15.6595 28.346 15.8995 27.906C16.1395 27.466 16.3795 27.0661 16.6395 26.6861C16.8795 26.3061 17.0595 26.0061 17.1795 25.8061C17.3795 25.4661 17.5795 25.1061 17.7995 24.7461C18.0194 24.3862 18.2194 24.0262 18.4394 23.6662C18.6594 23.3062 18.8594 22.9862 19.0394 22.6662C19.2394 22.3462 19.4194 22.0662 19.5794 21.8262C19.7794 21.5263 19.9794 21.2463 20.1994 20.9663C20.3994 20.7063 20.6794 20.4263 20.9993 20.1663C21.4393 19.7863 21.8593 19.5063 22.2193 19.3063C22.5993 19.1063 22.8393 19.0063 22.9793 19.0063C23.0793 19.0063 23.1393 19.0263 23.1993 19.0863C23.2993 19.1263 23.3193 19.2063 23.3193 19.3063ZM22.5393 19.7663C22.5393 19.5863 22.4593 19.4863 22.3193 19.4863C22.2593 19.4863 22.1993 19.5063 22.1193 19.5463C22.0393 19.5863 21.9593 19.6463 21.8393 19.7663C21.7193 19.8863 21.5993 20.0263 21.4393 20.2263C21.2793 20.4263 21.0793 20.6863 20.8393 20.9863C20.7393 21.1063 20.6194 21.3063 20.4394 21.5463C20.2794 21.7862 20.0594 22.1062 19.7994 22.5062C19.5394 22.9062 19.2194 23.4062 18.8594 23.9862C18.4994 24.5662 18.0594 25.2661 17.5595 26.0661C18.2594 25.6661 18.9194 25.1861 19.5194 24.6261C20.1394 24.0662 20.6594 23.4862 21.0993 22.8862C21.5393 22.2862 21.8993 21.7063 22.1393 21.1663C22.4193 20.6063 22.5393 20.1463 22.5393 19.7663Z" fill="#624F98"/>
<path d="M24.5992 28.3061C24.3392 28.6261 24.0392 28.9661 23.7192 29.2861C23.3992 29.6261 23.0792 29.926 22.7393 30.186C22.4193 30.446 22.0793 30.666 21.7593 30.826C21.4393 30.986 21.1393 31.066 20.8793 31.066C20.6393 31.066 20.4793 31.006 20.3993 30.886C20.2993 30.766 20.2593 30.626 20.2593 30.446C20.2593 30.286 20.2993 30.066 20.3993 29.7861C20.4993 29.5061 20.6393 29.2261 20.8393 28.9061C20.6793 29.1061 20.5193 29.3061 20.3193 29.5261C20.1194 29.7461 19.9194 29.946 19.6994 30.126C19.4994 30.306 19.2794 30.466 19.0794 30.586C18.8794 30.706 18.6794 30.766 18.5194 30.766C18.2794 30.766 18.1594 30.646 18.1594 30.406C18.1594 30.146 18.2594 29.806 18.4794 29.3861C18.6794 28.9861 18.9794 28.5861 19.3194 28.2061C19.6794 27.8261 20.0794 27.5061 20.5393 27.2261C20.9993 26.9462 21.4593 26.8062 21.9593 26.8062C22.0193 26.6862 22.0793 26.6062 22.1193 26.5662C22.1593 26.5262 22.2193 26.4862 22.2593 26.4662L22.7393 26.3262L22.7793 26.3462C22.7193 26.4062 22.6593 26.4862 22.6193 26.5662C22.5593 26.6462 22.5193 26.7462 22.4593 26.8462C22.5193 26.8462 22.5993 26.8462 22.7193 26.8662C22.8393 26.8862 22.9193 26.8862 22.9793 26.9062C23.0393 26.9261 23.0593 26.9661 23.0593 26.9861C23.0593 27.0261 23.0393 27.0461 22.9993 27.0461C22.9393 27.0261 22.8193 27.0061 22.6793 26.9861C22.5393 26.9661 22.4393 26.9661 22.3593 26.9661C21.8193 27.9061 21.4193 28.6661 21.1793 29.2061C20.9193 29.766 20.7993 30.166 20.7993 30.446C20.7993 30.546 20.8193 30.646 20.8793 30.706C20.9393 30.766 21.0393 30.806 21.1993 30.806C21.3793 30.806 21.5993 30.746 21.8593 30.606C22.1193 30.466 22.3993 30.286 22.6793 30.046C22.9793 29.8061 23.2792 29.5261 23.5792 29.2261C23.8792 28.9061 24.1792 28.5861 24.4592 28.2261C24.4792 28.1861 24.4992 28.1861 24.5192 28.2061C24.5992 28.2461 24.5992 28.2661 24.5992 28.3061ZM21.8793 26.9661C21.4793 26.9661 21.0993 27.1061 20.7393 27.3861C20.3793 27.6661 20.0594 27.9861 19.7794 28.3661C19.4994 28.7461 19.2794 29.1261 19.0994 29.4861C18.9394 29.866 18.8394 30.126 18.8394 30.306C18.8394 30.406 18.8794 30.446 18.9394 30.446C18.9994 30.446 19.1194 30.406 19.2594 30.306C19.3994 30.206 19.5794 30.086 19.7594 29.926C19.9394 29.7661 20.1394 29.5861 20.3193 29.3661C20.4993 29.1461 20.6993 28.9261 20.8593 28.6861C21.0393 28.4061 21.2193 28.1061 21.3993 27.7861C21.5993 27.5261 21.7593 27.2461 21.8793 26.9661Z" fill="#624F98"/>
<path d="M28.0391 29.3261C27.4391 29.9461 26.9191 30.3861 26.4591 30.6261C25.9991 30.8661 25.5991 30.9661 25.2792 30.9661C25.0392 30.9661 24.8792 30.9061 24.7792 30.7861C24.6792 30.6661 24.6392 30.4661 24.6392 30.2261C24.6392 30.1061 24.6592 29.9261 24.7192 29.6861C24.7792 29.4461 24.8192 29.2261 24.8592 29.0262C24.3792 29.3261 23.9592 29.6061 23.6192 29.8861C23.2792 30.1661 23.0192 30.4461 22.7992 30.7261C22.5792 31.0061 22.4393 31.3061 22.3393 31.6061C22.2393 31.9061 22.1993 32.226 22.1993 32.566C22.1993 33.206 22.3993 33.746 22.8192 34.186C23.2192 34.626 23.7992 34.8459 24.5192 34.8459C24.8992 34.8459 25.2792 34.766 25.6591 34.586C26.0391 34.406 26.3791 34.166 26.6591 33.866C26.6991 33.826 26.7391 33.806 26.7791 33.846C26.8191 33.866 26.8191 33.926 26.7591 33.986C26.3191 34.366 25.8991 34.646 25.4391 34.8259C24.9992 35.0259 24.4992 35.1059 23.9792 35.1059C23.6792 35.1059 23.3992 35.0659 23.1192 34.9659C22.8592 34.8859 22.6192 34.746 22.4193 34.546C22.2193 34.346 22.0593 34.106 21.9393 33.806C21.8193 33.506 21.7593 33.146 21.7593 32.726C21.7593 32.026 22.0193 31.3661 22.5592 30.7261C23.0992 30.0861 23.8592 29.4861 24.8992 28.8862C24.9392 28.7662 24.9592 28.6462 24.9992 28.5062C25.0392 28.3662 25.0592 28.2262 25.0992 28.0862C25.1192 27.9462 25.1592 27.8262 25.1592 27.7262C25.1792 27.6262 25.1792 27.5462 25.1792 27.5062C25.1792 27.3462 25.1192 27.2662 24.9792 27.2662C24.8792 27.2662 24.7992 27.2862 24.6992 27.3062C24.6192 27.3262 24.5192 27.3662 24.4192 27.3862C24.3992 27.3662 24.3792 27.3662 24.3992 27.3262C24.3992 27.3062 24.4192 27.2862 24.4192 27.2662C24.5192 27.2262 24.6192 27.1862 24.7592 27.1462C24.8792 27.1062 25.0192 27.0662 25.1392 27.0262C25.2592 26.9862 25.3791 26.9662 25.4991 26.9262C25.6191 26.9062 25.6791 26.8862 25.7391 26.8862C25.8591 26.8862 25.9391 26.9462 25.9391 27.0462C25.9391 27.0862 25.9391 27.1262 25.9191 27.1862C25.8991 27.2462 25.8791 27.3262 25.8391 27.4262C25.7991 27.5462 25.7391 27.6862 25.6791 27.8862C25.6191 28.0862 25.5391 28.3262 25.4191 28.6462C25.9391 28.3462 26.3591 28.0662 26.7191 27.8262C27.0791 27.5662 27.2391 27.3262 27.2391 27.0462C27.2391 27.0062 27.2391 26.9662 27.2191 26.9462L27.2591 26.9062C27.3191 26.9262 27.3991 26.9462 27.4991 27.0062C27.5991 27.0662 27.6591 27.1262 27.6591 27.2262C27.6591 27.3262 27.5791 27.4462 27.4391 27.5662C27.2991 27.6862 27.0991 27.8262 26.8791 27.9662C26.6591 28.1062 26.3991 28.2462 26.1391 28.3862C25.8791 28.5262 25.6191 28.6662 25.3791 28.8062C25.3192 29.0462 25.2792 29.2661 25.2592 29.5061C25.2392 29.7461 25.2192 29.9261 25.2192 30.0261C25.2192 30.2661 25.2592 30.4261 25.3592 30.5261C25.4591 30.6261 25.6191 30.6861 25.8791 30.6861C25.9391 30.6861 26.0391 30.6661 26.1591 30.6461C26.2791 30.6261 26.4191 30.5461 26.5791 30.4461C26.7391 30.3461 26.9391 30.2061 27.1391 30.0261C27.3391 29.8461 27.5991 29.6261 27.8791 29.3261C27.8991 29.3061 27.9391 29.2861 27.9591 29.3061C28.0391 29.2861 28.0391 29.3061 28.0391 29.3261Z" fill="#624F98"/>
<path d="M33.9589 28.3061C33.6989 28.6261 33.3989 28.9661 33.0789 29.2861C32.7589 29.6261 32.4389 29.926 32.0989 30.186C31.779 30.446 31.439 30.666 31.119 30.826C30.799 30.986 30.499 31.066 30.239 31.066C29.999 31.066 29.839 31.006 29.759 30.886C29.659 30.766 29.619 30.626 29.619 30.446C29.619 30.286 29.659 30.066 29.759 29.7861C29.859 29.5061 29.999 29.2261 30.199 28.9061C30.039 29.1061 29.879 29.3061 29.679 29.5261C29.479 29.7461 29.279 29.946 29.059 30.126C28.8591 30.306 28.6391 30.466 28.4391 30.586C28.2391 30.706 28.0391 30.766 27.8791 30.766C27.6391 30.766 27.5191 30.646 27.5191 30.406C27.5191 30.146 27.6191 29.806 27.8391 29.3861C28.0391 28.9861 28.3391 28.5861 28.6791 28.2061C29.039 27.8261 29.439 27.5061 29.899 27.2261C30.359 26.9462 30.819 26.8062 31.319 26.8062C31.379 26.6862 31.439 26.6062 31.479 26.5662C31.519 26.5262 31.579 26.4862 31.619 26.4662L32.0989 26.3262L32.1389 26.3462C32.0789 26.4062 32.0189 26.4862 31.9789 26.5662C31.9189 26.6462 31.879 26.7462 31.819 26.8462C31.879 26.8462 31.9589 26.8462 32.0789 26.8662C32.1989 26.8862 32.2789 26.8862 32.3389 26.9062C32.3989 26.9261 32.4189 26.9661 32.4189 26.9861C32.4189 27.0261 32.3989 27.0461 32.3589 27.0461C32.2989 27.0261 32.1789 27.0061 32.0389 26.9861C31.8989 26.9661 31.799 26.9661 31.719 26.9661C31.179 27.9061 30.779 28.6661 30.539 29.2061C30.279 29.766 30.159 30.166 30.159 30.446C30.159 30.546 30.179 30.646 30.239 30.706C30.299 30.766 30.399 30.806 30.559 30.806C30.739 30.806 30.959 30.746 31.219 30.606C31.479 30.466 31.759 30.286 32.0389 30.046C32.3389 29.8061 32.6389 29.5261 32.9389 29.2261C33.2389 28.9061 33.5389 28.5861 33.8189 28.2261C33.8389 28.1861 33.8589 28.1861 33.8789 28.2061C33.9589 28.2461 33.9589 28.2661 33.9589 28.3061ZM31.239 26.9661C30.839 26.9661 30.459 27.1061 30.099 27.3861C29.739 27.6661 29.419 27.9861 29.139 28.3661C28.8591 28.7461 28.6391 29.1261 28.4591 29.4861C28.2991 29.866 28.1991 30.126 28.1991 30.306C28.1991 30.406 28.2391 30.446 28.2991 30.446C28.3591 30.446 28.4791 30.406 28.6191 30.306C28.7591 30.206 28.9391 30.086 29.119 29.926C29.299 29.7661 29.499 29.5861 29.679 29.3661C29.859 29.1461 30.059 28.9261 30.219 28.6861C30.399 28.4061 30.579 28.1061 30.759 27.7861C30.959 27.5261 31.119 27.2461 31.239 26.9661Z" fill="#624F98"/>
<path d="M36.9987 24.3261C36.8987 24.3461 36.7987 24.3861 36.6787 24.4661C36.5587 24.5261 36.4787 24.6061 36.4187 24.7061C36.1588 25.0861 35.8988 25.4661 35.6388 25.886C35.3788 26.286 35.1388 26.706 34.9188 27.106H37.0787C37.1187 27.126 37.1387 27.146 37.1387 27.166C37.1387 27.186 37.1187 27.206 37.0987 27.226C36.9987 27.226 36.8587 27.226 36.6787 27.226C36.4987 27.226 36.2787 27.246 36.0588 27.246C35.8388 27.266 35.6188 27.266 35.3788 27.286C35.1388 27.306 34.9388 27.306 34.7588 27.326C34.4388 27.906 34.1788 28.4059 33.9988 28.8059C33.8188 29.2059 33.7388 29.5659 33.7388 29.8659C33.7388 30.2859 33.9388 30.4859 34.3188 30.4859C34.4988 30.4859 34.7188 30.4459 34.9588 30.3459C35.1988 30.2459 35.4588 30.1259 35.7188 29.9459C35.7588 29.9059 35.7788 29.9059 35.8188 29.9459C35.8588 29.9859 35.8388 30.0259 35.7788 30.0459C35.3788 30.3059 35.0188 30.4859 34.6788 30.6059C34.3388 30.7259 33.9988 30.7859 33.6388 30.7859C33.4588 30.7859 33.2989 30.7259 33.1589 30.6259C33.0189 30.5059 32.9589 30.3259 32.9589 30.0659C32.9589 29.8259 33.0589 29.4859 33.2788 29.0259C33.4788 28.5659 33.7988 28.006 34.1988 27.346C34.0588 27.366 33.8788 27.366 33.6788 27.386C33.4788 27.406 33.3588 27.406 33.3189 27.406C33.2589 27.406 33.2389 27.386 33.2389 27.346C33.2788 27.266 33.3588 27.186 33.4588 27.106L34.3588 27.086C34.4588 26.906 34.5788 26.726 34.6988 26.506C34.8188 26.286 34.9588 26.066 35.0788 25.866C35.1988 25.646 35.3388 25.4461 35.4788 25.2461C35.6188 25.0461 35.7388 24.8461 35.8388 24.6861C35.9588 24.6261 36.1387 24.5461 36.3787 24.4661C36.5987 24.3661 36.7987 24.3061 36.9787 24.2461C36.9987 24.2461 37.0187 24.2661 37.0387 24.2861C37.0787 24.2661 37.0587 24.2861 36.9987 24.3261Z" fill="#624F98"/>
<path d="M40.4586 28.406C40.1786 28.766 39.8586 29.106 39.4986 29.446C39.1386 29.7659 38.7987 30.0259 38.4987 30.2259C38.2587 30.3859 38.0187 30.4859 37.7787 30.5659C37.5387 30.6459 37.3187 30.6859 37.1187 30.6859C37.0587 30.6859 36.9587 30.6859 36.8787 30.6659C36.7787 30.6459 36.6987 30.6259 36.6187 30.5859C36.5387 30.5459 36.4787 30.4859 36.4187 30.4059C36.3587 30.3259 36.3387 30.2259 36.3387 30.1059C36.3387 29.9459 36.3987 29.7459 36.5187 29.4859C36.6387 29.226 36.7787 28.946 36.9387 28.666C37.0987 28.386 37.2587 28.126 37.4187 27.866C37.5787 27.606 37.6987 27.426 37.7987 27.286C37.8587 27.186 37.9587 27.106 38.0987 27.046C38.2387 26.986 38.3387 26.946 38.3787 26.946C38.4387 26.946 38.4587 26.966 38.4587 27.006C38.4587 27.026 38.4587 27.066 38.4387 27.106C38.4187 27.146 38.3987 27.186 38.3787 27.206C38.2187 27.446 38.0787 27.686 37.9187 27.966C37.7587 28.246 37.6187 28.526 37.4987 28.786C37.3787 29.046 37.2587 29.286 37.1987 29.5059C37.1187 29.7259 37.0787 29.9059 37.0787 30.0259C37.0787 30.1659 37.1187 30.2659 37.1987 30.3259C37.2787 30.3859 37.3787 30.4259 37.4987 30.4259C37.7387 30.4259 37.9787 30.3459 38.2587 30.1859C38.5387 30.0259 38.8187 29.8459 39.0986 29.6259C39.3786 29.406 39.6186 29.166 39.8586 28.926C40.0986 28.686 40.2786 28.466 40.3986 28.306C40.4586 28.246 40.4986 28.226 40.4986 28.266C40.4786 28.306 40.4786 28.346 40.4586 28.406ZM39.6586 24.5061C39.6586 24.6461 39.5986 24.7861 39.4786 24.9261C39.3586 25.0661 39.2186 25.1261 39.0587 25.1261C38.9187 25.1261 38.8587 25.0661 38.8587 24.9261C38.8587 24.7661 38.9187 24.6261 39.0187 24.4861C39.1386 24.3461 39.2586 24.2861 39.4386 24.2861C39.5986 24.2861 39.6586 24.3661 39.6586 24.5061Z" fill="#624F98"/>
<path d="M45.3784 27.7259C45.1785 27.9859 44.9385 28.2259 44.6585 28.4459C44.3785 28.6659 44.0585 28.7659 43.6785 28.7659C43.4785 28.7659 43.2785 28.7259 43.0985 28.6259C42.8985 28.5259 42.7585 28.3859 42.6385 28.1859C42.5585 28.3659 42.4586 28.5859 42.3186 28.8259C42.1986 29.0659 42.0386 29.3059 41.8586 29.5459C41.6786 29.7859 41.4786 30.0058 41.2786 30.2058C41.0586 30.4058 40.8386 30.5658 40.5786 30.6858C40.3786 30.7858 40.1986 30.8258 40.0586 30.8258C39.6387 30.8258 39.4387 30.6458 39.4387 30.2658C39.4387 30.0658 39.4787 29.8459 39.5587 29.6259C39.6387 29.4059 39.7386 29.1859 39.8386 28.9859C39.9586 28.7859 40.0786 28.5859 40.2186 28.3859C40.3586 28.2059 40.4786 28.0459 40.5986 27.9259C40.8386 27.6659 41.1186 27.4259 41.4386 27.2459C41.7586 27.0659 42.0986 26.946 42.4586 26.906C42.4786 26.806 42.5186 26.706 42.5586 26.586C42.5985 26.466 42.6785 26.386 42.7985 26.366C42.8585 26.346 42.9185 26.346 42.9785 26.326C43.0385 26.306 43.0985 26.306 43.1385 26.266C43.1785 26.246 43.2185 26.246 43.2385 26.266C43.2585 26.286 43.2785 26.306 43.2585 26.366C43.1785 26.486 43.1185 26.666 43.0785 26.846C43.0385 27.046 43.0185 27.2659 43.0185 27.4859C43.0185 27.8059 43.0785 28.0859 43.1985 28.2859C43.3185 28.4859 43.5385 28.6059 43.8385 28.6059C44.1385 28.6059 44.4185 28.5059 44.6585 28.3059C44.8985 28.1059 45.0985 27.8859 45.2785 27.6659C45.2985 27.6059 45.3385 27.5859 45.3985 27.6059C45.4184 27.6459 45.4184 27.6859 45.3784 27.7259ZM42.4786 27.8459C42.4586 27.7459 42.4386 27.6259 42.4186 27.4859C42.3986 27.3459 42.3986 27.2059 42.3986 27.0859C42.3986 27.026 42.3786 27.0059 42.3386 27.0059C42.2186 27.0059 42.0786 27.046 41.9386 27.1459C41.7986 27.2259 41.6586 27.3459 41.5186 27.4859C41.3786 27.6259 41.2386 27.8059 41.0986 27.9859C40.9586 28.1659 40.8386 28.3659 40.7186 28.5659C40.5586 28.8259 40.4386 29.1059 40.2986 29.3859C40.1786 29.6859 40.1186 29.9658 40.1386 30.2258C40.1386 30.3058 40.1586 30.3858 40.1786 30.4458C40.1986 30.5058 40.2786 30.5458 40.3786 30.5458C40.5786 30.5458 40.7986 30.4258 41.0186 30.2058C41.2586 29.9858 41.4786 29.7259 41.6786 29.4259C41.8786 29.1259 42.0586 28.8259 42.2186 28.5259C42.3786 28.2459 42.4586 28.0059 42.4786 27.8459Z" fill="#624F98"/>
<path d="M49.4183 28.4461C49.2183 28.7461 48.9583 29.0261 48.6983 29.326C48.4383 29.626 48.1384 29.886 47.8184 30.126C47.5184 30.366 47.1984 30.546 46.8784 30.706C46.5584 30.866 46.2384 30.926 45.9384 30.926C45.7984 30.926 45.6784 30.906 45.5584 30.866C45.4384 30.826 45.3784 30.726 45.3784 30.566C45.3784 30.406 45.4384 30.206 45.5584 29.946C45.6784 29.686 45.8184 29.426 45.9784 29.1461C46.1384 28.8661 46.2984 28.5861 46.4584 28.2861C46.6184 27.9861 46.7584 27.7261 46.8784 27.4861C46.8984 27.4261 46.8984 27.3861 46.8784 27.3461C46.8584 27.3061 46.8184 27.3061 46.7584 27.3461C46.6384 27.4261 46.4784 27.5461 46.2984 27.6861C46.1184 27.8261 45.9384 27.9661 45.7584 28.1261C45.5784 28.2861 45.3984 28.4461 45.2385 28.6061C45.0785 28.7661 44.9385 28.9061 44.8185 29.0461C44.6385 29.346 44.4785 29.606 44.3385 29.846C44.1985 30.086 44.0385 30.366 43.8385 30.666C43.7985 30.726 43.7585 30.766 43.7385 30.766C43.6785 30.766 43.6385 30.706 43.5985 30.566C43.5585 30.446 43.5385 30.366 43.5385 30.326C43.5385 30.226 43.6185 30.086 43.7585 29.906C43.8985 29.726 44.0585 29.526 44.2385 29.306C44.4185 28.9261 44.6185 28.5461 44.8185 28.1261C45.0185 27.7061 45.1785 27.3461 45.3185 27.0261C45.3585 26.9661 45.3984 26.9461 45.4784 26.9461C45.5584 26.9461 45.6184 26.9661 45.6784 27.0261C45.7384 27.0861 45.7584 27.1461 45.7584 27.2261C45.7584 27.2661 45.6784 27.4261 45.4984 27.7061C45.3385 27.9861 45.1585 28.3061 44.9985 28.6661C45.2185 28.4661 45.4584 28.2661 45.7184 28.0461C45.9784 27.8261 46.2384 27.6261 46.4784 27.4261C46.7184 27.2461 46.9184 27.0861 47.0984 26.9661C47.2784 26.8461 47.3984 26.7861 47.4784 26.7861C47.5184 26.7861 47.5784 26.8061 47.6184 26.8661C47.6584 26.9261 47.6784 26.9661 47.6784 27.0061C47.6784 27.0461 47.6584 27.1261 47.5984 27.2061C47.4784 27.3861 47.3184 27.6261 47.1184 27.9261C46.9384 28.2261 46.7584 28.5261 46.5784 28.8261C46.4184 29.126 46.2584 29.426 46.1584 29.706C46.0384 29.986 45.9784 30.206 45.9784 30.366C45.9784 30.506 45.9984 30.606 46.0584 30.646C46.1184 30.706 46.2184 30.726 46.3384 30.726C46.5384 30.726 46.7784 30.646 47.0384 30.506C47.2984 30.346 47.5784 30.166 47.8784 29.946C48.1583 29.726 48.4383 29.466 48.6983 29.186C48.9583 28.9061 49.1583 28.6461 49.3183 28.3861C49.3383 28.3461 49.3783 28.3461 49.4183 28.3661C49.4983 28.3261 49.4783 28.3661 49.4183 28.4461Z" fill="#624F98"/>
<path d="M69.6976 19.2862C69.3776 19.0262 69.0376 18.8463 68.6976 18.7663C68.9376 18.7063 69.1976 18.6063 69.4576 18.4863C70.4575 18.0063 71.0975 17.2263 70.8575 16.7663C70.6375 16.2863 69.6376 16.3063 68.6376 16.7863C68.3576 16.9263 68.0976 17.0863 67.8776 17.2463C67.9376 16.9663 67.9576 16.6463 67.8776 16.3063C67.6976 15.4664 67.1377 14.8664 66.5977 14.9464C66.5177 14.9664 66.4577 14.9864 66.3977 15.0264C66.4177 14.8664 66.4177 14.6864 66.3777 14.5064C66.3777 14.4664 66.3577 14.4064 66.3577 14.3664C66.6577 14.5664 67.0577 14.7064 67.4976 14.7464C68.5776 14.8664 69.5176 14.3864 69.5776 13.6664C69.6376 12.9465 68.8376 12.2865 67.7576 12.1665C67.4176 12.1265 67.0977 12.1465 66.8177 12.2265C67.0377 12.0465 67.2377 11.7865 67.3976 11.5065C67.8976 10.5865 67.8376 9.58658 67.2577 9.24659C66.6777 8.9066 65.8377 9.34659 65.3177 10.2266C65.2977 10.1866 65.2777 10.1466 65.2577 10.0866C64.9377 9.40658 64.4178 8.9266 63.9178 8.78661C63.9378 8.74661 63.9578 8.68661 63.9778 8.64661C64.1378 8.04663 63.6378 7.38666 62.8378 7.16666C62.4178 7.06667 62.0178 7.08667 61.6979 7.24666C61.8978 6.94667 62.0378 6.54668 62.0978 6.0867C62.2178 5.02674 61.7778 4.10677 61.0979 4.04677C60.5179 3.98677 59.9579 4.56675 59.7379 5.40672C59.7179 5.36673 59.6979 5.34673 59.6779 5.30673C59.1379 4.50676 58.298 4.14677 57.758 4.42676C57.478 4.28676 57.118 4.20677 56.738 4.26676C56.858 3.72678 56.698 3.2068 56.278 2.96681C55.7381 2.64682 54.9581 2.96681 54.5581 3.68679C54.4581 3.86678 54.3781 4.06677 54.3381 4.24677C54.1181 3.90678 53.7781 3.58679 53.3382 3.3468C52.3182 2.80682 51.1982 2.94681 50.8182 3.66679C50.4383 4.38676 50.9582 5.38673 51.9782 5.92671C52.2782 6.0867 52.5982 6.1867 52.9182 6.2267C52.7582 6.32669 52.5782 6.42669 52.4382 6.56668C52.2782 6.70668 52.1382 6.86667 52.0182 7.02667C51.7982 6.2067 51.2382 5.62672 50.6782 5.68671C49.9983 5.76671 49.5583 6.66668 49.6783 7.72664C49.7183 8.12663 49.8583 8.50662 50.0183 8.80661C49.7383 8.74661 49.4383 8.74661 49.1183 8.8466C48.3383 9.0866 47.8583 9.76657 48.0383 10.3666C48.2183 10.9665 48.9983 11.2465 49.7783 11.0065C50.0983 10.9065 50.3783 10.7265 50.5782 10.5065C50.4182 10.7265 50.2783 11.0065 50.2383 11.3265C50.1183 12.1265 50.5182 12.8665 51.1382 12.9465C51.2582 12.9665 51.3982 12.9465 51.5182 12.9265C51.4982 13.1465 51.5182 13.3664 51.5582 13.6064C50.8382 13.2864 50.0983 13.3664 49.8783 13.8064C49.6383 14.2864 50.0383 14.9864 50.8182 15.3864C50.8782 15.4264 50.9382 15.4464 51.0182 15.4864C50.7382 15.9464 50.7582 16.7463 51.1182 17.5063C51.2982 17.9063 51.5582 18.2263 51.8382 18.4663C51.5582 18.5063 51.2582 18.6063 50.9782 18.8063C50.2983 19.3062 50.0783 20.1462 50.4582 20.6662C50.8382 21.1862 51.6982 21.2262 52.3782 20.7262C52.6582 20.5262 52.8582 20.2462 52.9782 19.9662C52.9182 20.1662 52.8782 20.4062 52.8982 20.6662C52.5382 20.9862 52.3382 21.4062 52.4382 21.7861C52.5982 22.4861 53.5981 22.8661 54.6581 22.6261H54.6781C54.6581 22.6461 54.6581 22.6861 54.6381 22.7061C54.1981 23.6461 54.3181 24.646 54.8981 24.966C55.4781 25.286 56.338 24.766 56.798 23.8261C56.938 23.5461 57.018 23.2661 57.038 23.0061C57.258 23.2261 57.498 23.3661 57.738 23.3661C57.798 23.6061 57.938 23.8661 58.118 24.1061C58.178 24.1861 58.238 24.2661 58.318 24.3261C58.278 24.3261 58.218 24.3261 58.178 24.3261C57.338 24.3861 56.698 24.966 56.738 25.626C56.778 26.286 57.498 26.766 58.318 26.706C58.658 26.686 58.978 26.566 59.2179 26.386C58.9979 26.566 58.818 26.826 58.678 27.146C58.378 27.9459 58.598 28.7859 59.1979 29.0259C59.7979 29.2659 60.5179 28.8059 60.8379 28.0059C60.9979 27.5859 61.0179 27.166 60.8979 26.806C61.1779 27.046 61.5779 27.246 62.0178 27.366C63.0778 27.6059 64.0578 27.246 64.2178 26.546C64.2378 26.486 64.2378 26.426 64.2378 26.386C64.3978 26.306 64.5578 26.186 64.7177 26.066C64.5578 27.086 64.9377 28.0259 65.5977 28.1459C66.2577 28.2659 66.9377 27.5459 67.0977 26.526C67.1577 26.186 67.1377 25.846 67.0777 25.546C67.3377 25.746 67.6776 25.906 68.0576 26.006C69.1376 26.286 70.1576 25.986 70.3375 25.306C70.5175 24.646 69.7776 23.8661 68.7176 23.5861C68.5176 23.5261 68.3376 23.5061 68.1576 23.4861C68.1976 23.4261 68.2376 23.3861 68.2776 23.3261C68.7376 22.6261 68.6776 21.7661 68.1376 21.3862C67.5976 21.0062 66.7777 21.2662 66.3177 21.9661C66.1177 22.2461 66.0177 22.5661 65.9977 22.8861C65.9777 22.6061 65.8977 22.2861 65.7177 21.9861C65.6977 21.9461 65.6577 21.9061 65.6377 21.8661C65.9977 21.8261 66.3577 21.6662 66.6777 21.3662C66.9977 21.0662 67.1977 20.6862 67.2577 20.3062C67.4176 20.6462 67.6776 21.0062 68.0376 21.3062C68.8776 21.9861 69.9176 22.0861 70.3775 21.5262C70.8575 20.9662 70.5375 19.9662 69.6976 19.2862ZM66.0377 12.6065C65.8577 12.7865 65.7377 12.9865 65.6977 13.2264C65.6977 13.2864 65.6977 13.3264 65.6977 13.3864C65.5777 13.3264 65.4577 13.3064 65.3177 13.3264H65.2977C65.2977 13.1265 65.2377 12.9265 65.1177 12.7665C65.0777 12.7065 65.0377 12.6665 64.9977 12.6265C64.9777 12.5665 64.9777 12.5065 64.9577 12.4465C64.9977 12.4265 65.0177 12.4265 65.0577 12.4065C65.1377 12.3665 65.1977 12.3265 65.2577 12.2665C65.3177 12.3465 65.3977 12.4265 65.4977 12.4865C65.6377 12.6065 65.8377 12.6465 66.0377 12.6065ZM51.9782 8.70661C51.9982 8.72661 52.0182 8.74661 52.0582 8.76661C51.9982 8.80661 51.9382 8.8666 51.8982 8.9066C51.9182 8.8466 51.9382 8.76661 51.9782 8.70661ZM55.8381 13.1465C55.8781 13.2065 55.9181 13.2664 55.9581 13.3264C55.8981 13.2864 55.8381 13.2464 55.7781 13.2065C55.7981 13.1865 55.8181 13.1665 55.8381 13.1465ZM59.7179 13.6464C59.6579 13.5464 59.5579 13.4664 59.4779 13.3864C59.6379 13.3464 59.7779 13.3064 59.9179 13.2464C59.8179 13.3464 59.7579 13.4864 59.7179 13.6464ZM57.098 13.5864C57.078 13.6264 57.058 13.6664 57.058 13.7264C56.978 14.0464 57.078 14.4064 57.318 14.6864C57.058 14.4464 56.738 14.3264 56.418 14.3864C56.418 14.3864 56.418 14.3864 56.398 14.3864C56.418 14.3064 56.438 14.2264 56.438 14.1464C56.438 13.9464 56.358 13.7464 56.218 13.5664C56.338 13.6464 56.458 13.6864 56.578 13.7064C56.758 13.7064 56.938 13.6864 57.098 13.5864ZM52.2982 10.5265C52.5782 10.6665 52.8982 10.7665 53.2781 10.7865C53.1382 11.2465 53.2781 11.8865 53.6781 12.4665C53.7981 12.6465 53.9381 12.8065 54.0981 12.9465C53.8581 12.9865 53.6381 13.0465 53.4381 13.1265C53.2782 12.4465 52.8782 11.9265 52.4582 11.8265C52.4782 11.7665 52.4782 11.7065 52.4982 11.6465C52.5782 11.2265 52.4782 10.8265 52.2982 10.5265ZM52.5582 15.3664C52.5982 15.3264 52.6182 15.2864 52.6382 15.2464C52.6582 15.2064 52.6782 15.1464 52.6982 15.1064C52.7382 15.1064 52.7782 15.1064 52.8382 15.1064C52.9382 15.0864 53.0382 15.0464 53.1182 14.9664C53.3981 15.1664 53.7781 15.3064 54.2181 15.3464C53.9181 15.5464 53.6181 15.9064 53.3581 16.3663C53.1382 15.9464 52.8582 15.5864 52.5582 15.3664ZM54.7381 17.2063C55.1581 16.4463 55.2581 15.6464 54.9981 15.3264C55.2181 15.2864 55.4381 15.2264 55.6181 15.1464C55.5181 15.4064 55.4981 15.7264 55.5581 16.0463C55.6181 16.4263 55.7981 16.7463 56.0181 16.9663C55.7381 16.9863 55.4181 17.0463 55.0981 17.1663C54.9381 17.2263 54.7781 17.2863 54.6381 17.3663C54.6981 17.2863 54.7181 17.2463 54.7381 17.2063ZM56.938 19.1062C56.918 18.8663 56.858 18.6463 56.778 18.4463C57.198 18.1263 57.398 17.7463 57.298 17.4263C57.278 17.3463 57.218 17.2663 57.158 17.2063C57.658 16.9863 57.938 16.3263 57.798 15.6064C57.738 15.2664 57.598 14.9864 57.398 14.7664C57.598 14.9664 57.858 15.1064 58.178 15.1864C58.818 15.3664 59.4579 15.1664 59.7579 14.7664C59.7779 14.8264 59.7979 14.8864 59.8379 14.9464C59.8179 14.9464 59.7979 14.9464 59.7779 14.9464C59.1579 15.1064 58.818 15.8864 59.0379 16.7263C59.1579 17.1663 59.3979 17.5263 59.6779 17.7463C59.2979 17.7063 58.858 17.7663 58.438 17.9463C57.698 18.2463 57.178 18.8063 57.078 19.3262C57.038 19.3862 56.998 19.4262 56.958 19.4862C56.958 19.3862 56.958 19.2462 56.938 19.1062ZM58.718 20.8262C58.798 20.7862 58.858 20.7262 58.918 20.6862C58.678 21.2262 58.638 21.7861 58.758 22.2061C58.618 22.1661 58.478 22.1261 58.358 22.1261C58.318 22.0061 58.278 21.8661 58.198 21.7461C58.038 21.4462 57.798 21.2262 57.558 21.0862C57.938 21.1462 58.338 21.0662 58.718 20.8262ZM60.6579 19.3662C60.6979 19.3062 60.7379 19.2262 60.7579 19.1662C60.7579 19.2462 60.7379 19.3262 60.7379 19.3862C60.7179 19.3862 60.6779 19.3662 60.6579 19.3662ZM61.2379 18.3263C61.0579 18.4263 60.9179 18.6063 60.8379 18.8063C60.8379 18.6663 60.8179 18.5263 60.7779 18.4063C60.6979 18.2463 60.5779 18.1063 60.4379 17.9863C60.4779 17.9863 60.5379 17.9863 60.5779 17.9663C60.9179 17.8863 61.1579 17.6063 61.2979 17.2463C61.2179 17.6063 61.2579 17.9663 61.4779 18.2263C61.4779 18.2263 61.4779 18.2263 61.4779 18.2463C61.3779 18.2663 61.2979 18.2863 61.2379 18.3263ZM58.638 11.7065C58.438 11.7065 58.238 11.7265 58.038 11.7465C58.098 10.7665 57.658 9.94657 57.018 9.88657C56.438 9.82657 55.8781 10.4065 55.6581 11.2465C55.6381 11.2065 55.6181 11.1865 55.5981 11.1465C55.3781 10.8465 55.1381 10.5865 54.8581 10.4265C55.1981 10.2066 55.4181 9.90657 55.4181 9.56658C55.4181 8.9866 54.7781 8.48662 53.9181 8.36662C53.9381 8.34662 53.9781 8.32662 53.9981 8.30662C54.2981 8.04663 54.5181 7.74664 54.6381 7.46665C54.8581 7.80664 55.2981 8.06663 55.8181 8.12663C56.178 8.16663 56.498 8.10663 56.778 7.96664C56.738 8.06663 56.718 8.16663 56.718 8.28662C56.718 8.8266 57.258 9.28659 58.018 9.44658C57.758 9.82657 57.898 10.6265 58.398 11.3465C58.498 11.4865 58.598 11.6065 58.698 11.7265C58.678 11.7065 58.658 11.7065 58.638 11.7065ZM57.798 6.58668C57.918 6.76668 58.058 6.92667 58.218 7.06667C57.898 7.10667 57.618 7.20666 57.378 7.34666C57.398 7.28666 57.418 7.20666 57.438 7.14666C57.458 6.90667 57.378 6.66668 57.238 6.44669C57.378 6.40669 57.518 6.36669 57.638 6.30669C57.658 6.38669 57.718 6.48669 57.798 6.58668ZM59.6579 9.86657C59.4979 9.68657 59.3379 9.54658 59.1579 9.44658C59.3779 9.40658 59.5579 9.34659 59.7379 9.26659C59.6779 9.44658 59.6379 9.64658 59.6579 9.86657ZM59.8979 7.34666C59.9179 7.32666 59.9379 7.30666 59.9579 7.28666C59.9979 7.34666 60.0379 7.40665 60.0779 7.46665C60.0179 7.40665 59.9579 7.36666 59.8979 7.34666ZM61.1979 7.72664C61.1779 7.76664 61.1579 7.80664 61.1579 7.86664C61.1179 8.02663 61.1179 8.18663 61.1579 8.34662C61.1379 8.34662 61.1379 8.34662 61.1179 8.34662C60.8979 8.32662 60.6979 8.38662 60.4979 8.50662C60.5179 8.42662 60.5379 8.34662 60.5379 8.26662C60.5379 8.06663 60.4579 7.86664 60.3179 7.68664C60.4379 7.76664 60.5579 7.80664 60.6779 7.82664C60.8579 7.84664 61.0379 7.80664 61.1979 7.72664ZM55.4381 5.60672C55.4581 5.70671 55.4781 5.78671 55.5381 5.86671C55.1981 5.92671 54.8981 6.1067 54.6981 6.32669C54.6781 6.28669 54.6581 6.2467 54.6181 6.2067C54.4981 6.0867 54.3581 6.0067 54.1781 5.94671C54.3181 5.84671 54.4581 5.70671 54.5381 5.56672C54.5781 5.48672 54.6181 5.40672 54.6381 5.30673C54.6981 5.36673 54.7781 5.42672 54.8581 5.48672C55.0181 5.58672 55.2181 5.62672 55.4381 5.60672ZM50.6782 10.3865C50.8982 10.1066 50.9782 9.76657 50.8782 9.46658C50.8782 9.46658 50.8782 9.46658 50.8782 9.44658C50.9582 9.46658 51.0382 9.46658 51.1182 9.46658C51.3182 9.44658 51.4982 9.34659 51.6582 9.18659C51.5982 9.30659 51.5582 9.42658 51.5582 9.56658C51.5582 9.74657 51.6182 9.90657 51.7182 10.0466C51.6782 10.0266 51.6382 10.0266 51.5782 10.0066C51.2582 9.96657 50.9382 10.1066 50.6782 10.3865ZM52.8982 18.8463C52.8782 18.8463 52.8782 18.8263 52.8982 18.8463C52.9782 18.8263 53.0582 18.8063 53.1382 18.7663C53.2982 18.6863 53.4181 18.5663 53.5181 18.3863C53.5381 18.3863 53.5781 18.3663 53.5981 18.3663C53.5581 18.4863 53.5581 18.6063 53.5981 18.7063C53.7381 19.1262 54.4381 19.2862 55.2581 19.1262C55.2581 19.1662 55.2581 19.1862 55.2581 19.2262C55.2981 19.5662 55.3981 19.8862 55.5181 20.1462C55.3781 20.0862 55.2381 20.0662 55.0781 20.0262C54.8181 19.4262 54.2781 19.0462 53.7781 19.1462C53.4381 19.2062 53.1782 19.4662 53.0182 19.8262C53.1182 19.4862 53.0982 19.1262 52.8982 18.8463ZM56.238 21.4462C56.298 21.2662 56.318 21.0862 56.278 20.9062C56.258 20.8462 56.238 20.7662 56.198 20.7062C56.218 20.7062 56.238 20.7062 56.238 20.7062C56.438 20.6862 56.598 20.5662 56.718 20.3662C56.738 20.4662 56.758 20.5662 56.818 20.6662C56.898 20.8062 57.038 20.9262 57.198 21.0062C57.078 21.0062 56.978 21.0262 56.878 21.0862C56.698 21.1862 56.598 21.3662 56.558 21.5862C56.538 21.5862 56.538 21.5662 56.518 21.5662C56.438 21.4862 56.338 21.4662 56.238 21.4462ZM60.3379 26.126C60.0179 26.006 59.6579 26.066 59.3379 26.306C59.6179 26.066 59.7779 25.746 59.7579 25.406C59.7379 25.206 59.6779 25.026 59.5579 24.886C59.6579 24.866 59.7579 24.826 59.8579 24.766C59.8579 24.766 59.8579 24.766 59.8779 24.746C59.8779 24.946 59.9579 25.106 60.0779 25.206C60.2179 25.306 60.3979 25.346 60.6179 25.286C60.5379 25.386 60.4779 25.506 60.4379 25.646C60.3979 25.826 60.4179 26.006 60.4779 26.186C60.4179 26.166 60.3779 26.146 60.3379 26.126ZM61.4979 24.806C61.6979 24.646 61.8778 24.4461 62.0778 24.2261C62.7778 23.3461 62.9978 22.3861 62.5978 22.0661C62.1978 21.7461 61.2979 22.1861 60.5979 23.0461C60.3979 23.2861 60.2379 23.5461 60.1179 23.8061C60.0579 23.5261 59.9179 23.2261 59.7179 22.9461C60.2379 22.9061 60.8179 22.4461 61.1579 21.7262C61.2579 21.5262 61.3179 21.3062 61.3779 21.1062C61.9178 21.8261 62.6778 22.1661 63.1978 21.8861C63.7978 21.5462 63.8578 20.4862 63.3178 19.5062C63.1178 19.1262 62.8378 18.8263 62.5578 18.6063C62.8378 18.5663 63.1378 18.4263 63.3978 18.2063C64.0378 17.6663 64.2178 16.8263 63.7978 16.3063C63.3778 15.7864 62.5178 15.8264 61.8778 16.3463C61.6179 16.5663 61.4179 16.8463 61.3179 17.1263C61.3979 16.8463 61.3979 16.5263 61.2979 16.1863C61.2579 16.0064 61.1979 15.8464 61.1179 15.7064C61.6979 15.5664 62.0578 14.8464 61.9178 14.0664C61.7779 13.2664 61.1579 12.7065 60.5379 12.8265C60.5179 12.8265 60.4979 12.8265 60.4779 12.8465C60.5379 12.7665 60.5579 12.6865 60.5579 12.5865C60.5579 12.4465 60.4779 12.3065 60.3379 12.1865C60.3579 12.1465 60.3979 12.1065 60.4179 12.0665C60.4979 12.1065 60.5979 12.1465 60.6979 12.1665C61.3779 12.2465 62.0178 11.4465 62.1378 10.4065C62.1778 9.98656 62.1378 9.58658 62.0378 9.26659C62.1178 9.30659 62.2178 9.32659 62.2978 9.36659C62.4778 9.40658 62.6578 9.42658 62.8178 9.42658C62.6578 9.90657 62.7378 10.5465 63.0378 11.1865C63.0978 11.3065 63.1578 11.4265 63.2378 11.5465C62.6978 11.5865 62.2578 11.8665 62.1378 12.3265C62.0178 12.7465 62.2378 13.1865 62.6378 13.4864C62.4578 13.8864 62.4778 14.3064 62.7178 14.6264C63.0978 15.1664 63.9578 15.1864 64.6378 14.6864C64.6577 14.6664 64.6777 14.6664 64.6777 14.6464C64.6777 14.6864 64.6777 14.7264 64.6977 14.7864C64.8177 15.4864 65.2977 16.0264 65.7777 15.9464C65.8577 15.9264 65.9177 15.9064 65.9777 15.8864C65.9377 16.1263 65.9377 16.4063 65.9977 16.6863C66.0177 16.7863 66.0377 16.8863 66.0777 16.9863C66.0377 16.9663 65.9977 16.9463 65.9377 16.9263C65.1577 16.6263 64.3178 16.8663 64.0778 17.4863C63.8378 18.1063 64.2578 18.8463 65.0377 19.1462C65.3577 19.2662 65.6977 19.3062 65.9977 19.2462C65.7177 19.3262 65.4377 19.4662 65.1777 19.7062C64.7177 20.1462 64.5178 20.7262 64.5977 21.1862C64.3778 21.1462 64.1578 21.1862 63.9778 21.2862C63.4178 21.6062 63.3178 22.4661 63.7578 23.2061C63.9778 23.5661 64.2578 23.8261 64.5777 23.9661C64.2378 24.0661 63.8778 24.2661 63.5378 24.5461C63.3578 24.686 63.1778 24.866 63.0378 25.026C62.9178 24.986 62.7778 24.926 62.6378 24.906C62.2178 24.746 61.8378 24.726 61.4979 24.806ZM66.0377 23.0261C66.0577 23.3861 66.1977 23.7261 66.4777 23.9261C66.5177 23.9661 66.5777 23.9861 66.6177 24.0061C66.5577 24.0861 66.4977 24.1861 66.4777 24.3061C66.4577 24.3861 66.4577 24.4661 66.4577 24.5461C66.3977 24.5061 66.3177 24.4861 66.2377 24.4661C66.0977 24.4461 65.9377 24.4461 65.7977 24.5061C65.8177 24.3261 65.7777 24.1861 65.6777 24.0661C65.6377 24.0061 65.5777 23.9661 65.5177 23.9461C65.8577 23.7461 66.0177 23.4061 66.0377 23.0261ZM67.3576 19.0462C67.2377 19.1862 67.1777 19.3662 67.1577 19.5462C67.1377 19.5062 67.0977 19.4662 67.0777 19.4262C66.8377 19.1662 66.4777 19.0862 66.0977 19.1462C66.4577 19.0462 66.7377 18.8263 66.8777 18.5263C66.9577 18.3463 66.9577 18.1463 66.9177 17.9663C67.0177 18.0063 67.1377 18.0063 67.2377 17.9863H67.2577C67.1777 18.1663 67.1577 18.3463 67.2377 18.4863C67.3177 18.6463 67.4776 18.7463 67.6776 18.7863C67.5576 18.8663 67.4576 18.9462 67.3576 19.0462Z" fill="#B264B7"/>
<path d="M45.8383 13.4665C45.6784 13.4665 45.5184 13.4865 45.3784 13.5065C45.3984 13.4665 45.4184 13.4065 45.4384 13.3665C45.6583 12.7465 45.4384 12.0865 44.9584 11.9065C44.4584 11.7265 43.8984 12.0865 43.6584 12.7065C43.4384 13.3265 43.6584 13.9865 44.1384 14.1665C44.1784 14.1865 44.2184 14.1865 44.2584 14.2064C44.2184 14.2864 44.1984 14.3664 44.1984 14.4664C44.1984 14.5264 44.1984 14.5864 44.2184 14.6464C44.1584 14.6264 44.0984 14.6264 44.0384 14.6264C43.9184 14.6264 43.8184 14.6664 43.7184 14.7464C43.6984 14.6064 43.6384 14.5064 43.5384 14.4264C43.4984 14.3864 43.4584 14.3664 43.3984 14.3664C43.7584 14.0065 43.6584 13.3265 43.1784 12.8465C43.1584 12.8265 43.1184 12.7865 43.0784 12.7665C43.3384 12.6665 43.5984 12.4665 43.7784 12.1665C43.9784 11.8665 44.0384 11.5265 44.0184 11.2466C44.1984 11.4865 44.4784 11.7065 44.8184 11.8665C45.5984 12.2265 46.4183 12.1065 46.6583 11.5865C46.8983 11.0666 46.4383 10.3666 45.6584 10.0066C45.3584 9.8666 45.0584 9.8066 44.7784 9.8066C44.9584 9.70661 45.1384 9.58661 45.3184 9.44662C45.9983 8.88664 46.3183 8.16666 46.0583 7.84667C45.7983 7.52668 45.0184 7.72668 44.3584 8.30666C44.1584 8.46665 43.9984 8.64664 43.8784 8.82664C43.8784 8.60665 43.8184 8.34666 43.6984 8.10666C43.3984 7.48669 42.8385 7.1467 42.4585 7.32669C42.3985 7.34669 42.3585 7.38669 42.3185 7.42669C42.2985 7.28669 42.2585 7.1667 42.1985 7.0267C42.1785 6.9867 42.1585 6.9667 42.1385 6.92671C42.4185 7.0267 42.7385 7.0467 43.0984 7.0067C43.9584 6.88671 44.5784 6.32673 44.4984 5.76675C44.4184 5.20677 43.6584 4.84678 42.7985 4.96677C42.5385 5.00677 42.2985 5.08677 42.0785 5.18677C42.1985 5.00677 42.3185 4.76678 42.3785 4.50679C42.5785 3.70682 42.3385 2.94685 41.8185 2.78685C41.3185 2.64686 40.7385 3.14684 40.5185 3.92681C40.4985 3.88681 40.4785 3.86681 40.4385 3.82681C40.0585 3.36683 39.5586 3.10684 39.1586 3.08684C39.1586 3.04684 39.1786 3.00684 39.1786 2.96685C39.1786 2.46686 38.6586 2.06688 38.0186 2.06688C37.6786 2.06688 37.3786 2.16687 37.1587 2.34687C37.2586 2.06688 37.2786 1.72689 37.2386 1.3869C37.1187 0.54693 36.5987 -0.073048 36.0587 0.0069492C35.5987 0.0669471 35.2787 0.626927 35.2787 1.3069C35.2587 1.2869 35.2387 1.2669 35.2187 1.24691C34.6387 0.746923 33.9188 0.626927 33.5588 0.946916C33.3188 0.886918 33.0188 0.906917 32.7388 1.02691C32.7188 0.586929 32.4988 0.206942 32.1388 0.106946C31.6588 -0.0330494 31.1389 0.366937 30.9589 0.986915C30.9189 1.14691 30.8989 1.3069 30.8989 1.4669C30.6589 1.24691 30.3389 1.06691 29.9589 0.966915C29.0789 0.746923 28.239 1.08691 28.099 1.70689C27.959 2.32687 28.539 3.00684 29.4389 3.20684C29.6989 3.26683 29.9789 3.28683 30.2189 3.24683C30.1189 3.34683 29.9989 3.46683 29.9189 3.60682C29.8189 3.74682 29.7389 3.90681 29.6789 4.04681C29.3389 3.44683 28.7989 3.12684 28.379 3.28683C27.879 3.48683 27.719 4.2668 28.019 5.04677C28.139 5.34676 28.299 5.60675 28.499 5.80674C28.279 5.80674 28.039 5.88674 27.819 6.02674C27.259 6.36672 27.019 6.9867 27.279 7.40669C27.539 7.82667 28.199 7.90667 28.7389 7.56668C28.9789 7.42669 29.1389 7.22669 29.2589 7.0267C29.1789 7.22669 29.1389 7.46669 29.1589 7.72668C29.2189 8.36665 29.6789 8.84664 30.1789 8.80664C30.2789 8.78664 30.3789 8.76664 30.4589 8.70664C30.4789 8.86664 30.5389 9.04663 30.6189 9.22662C29.9989 9.12663 29.4589 9.32662 29.3589 9.70661C29.2589 10.1266 29.7189 10.5866 30.3789 10.7466C30.4389 10.7666 30.4989 10.7666 30.5389 10.7866C30.4189 11.2066 30.5789 11.8065 31.0189 12.3265C31.2389 12.5865 31.4989 12.7865 31.7588 12.9265C31.5389 13.0065 31.3389 13.1465 31.1589 13.3665C30.7389 13.8865 30.7189 14.5664 31.1389 14.9064C31.5388 15.2464 32.1988 15.0864 32.6188 14.5864C33.0388 14.0865 33.0588 13.3865 32.6388 13.0465C32.6988 13.0265 32.7588 12.9865 32.8188 12.9465C32.9188 12.8465 32.9988 12.7265 33.0388 12.5865C33.0588 12.5865 33.0788 12.5665 33.0988 12.5465C33.0988 12.6465 33.1188 12.7265 33.1588 12.8065C33.3588 13.1065 33.9188 13.0865 34.5187 12.8065C34.5187 12.8265 34.5387 12.8665 34.5387 12.8865C34.6387 13.1465 34.7787 13.3665 34.9187 13.5465C34.7987 13.5265 34.6787 13.5265 34.5587 13.5465C34.2388 13.1465 33.7588 12.9465 33.3788 13.1265C32.9588 13.3265 32.8188 13.8865 32.9988 14.4464C32.7788 14.7664 32.7188 15.1264 32.8588 15.4064C33.1188 15.9064 33.9588 16.0064 34.7187 15.6064C34.7187 15.6064 34.7187 15.6064 34.7387 15.6064C34.7387 15.6264 34.7187 15.6464 34.7187 15.6864C34.5587 16.4864 34.8587 17.2463 35.3787 17.3663C35.8987 17.4863 36.4587 16.9264 36.6187 16.1064C36.6587 15.8664 36.6787 15.6264 36.6387 15.4264C36.8387 15.5464 37.0587 15.6064 37.2386 15.5664C37.3386 15.7464 37.4786 15.9264 37.6786 16.0664C37.7386 16.1264 37.8186 16.1664 37.8786 16.2064C37.8386 16.2064 37.7986 16.2264 37.7586 16.2264C37.1387 16.4464 36.7587 17.0064 36.9187 17.5063C37.0787 18.0063 37.7186 18.2263 38.3586 18.0263C38.6186 17.9463 38.8386 17.7863 38.9986 17.6063C38.8586 17.7863 38.7786 18.0263 38.7386 18.3063C38.6586 18.9863 38.9986 19.5863 39.5186 19.6463C40.0186 19.7063 40.4985 19.2263 40.5785 18.5463C40.6185 18.1863 40.5385 17.8663 40.3985 17.6063C40.6585 17.7463 40.9985 17.8263 41.3785 17.8063C42.2385 17.7863 42.9184 17.3063 42.9184 16.7464C42.9184 16.7064 42.9184 16.6664 42.8984 16.6064C42.9984 16.5064 43.0984 16.3864 43.1984 16.2664C43.2784 17.0863 43.7584 17.7263 44.2984 17.6863C44.8384 17.6463 45.1984 16.9664 45.1384 16.1464C45.1184 15.8664 45.0384 15.6064 44.9384 15.3864C45.1784 15.4864 45.4784 15.5464 45.7783 15.5464C46.6583 15.5464 47.3783 15.1064 47.3783 14.5664C47.4383 13.9265 46.7183 13.4865 45.8383 13.4665ZM43.5784 9.46662C43.5584 9.62661 43.5984 9.74661 43.6784 9.8466C43.7584 9.9466 43.8984 10.0066 44.0784 9.9866C43.9984 10.0466 43.9384 10.1466 43.8784 10.2466C43.8184 10.3866 43.7984 10.5266 43.8384 10.6866C43.8184 10.6666 43.7784 10.6266 43.7384 10.6066C43.4984 10.4466 43.2184 10.4666 42.9384 10.5866C43.1984 10.4466 43.3784 10.2266 43.3984 9.9466C43.4184 9.7866 43.3984 9.64661 43.3184 9.50661C43.3984 9.52661 43.4984 9.50661 43.5784 9.46662ZM41.5785 5.58675C41.4585 5.74675 41.4185 5.94674 41.4385 6.12673C41.4385 6.16673 41.4585 6.20673 41.4785 6.24673C41.3785 6.22673 41.2785 6.22673 41.1785 6.26673C41.1785 6.26673 41.1585 6.26673 41.1585 6.28673C41.1185 6.12673 41.0385 5.98674 40.8985 5.88674C40.8585 5.84674 40.8185 5.82674 40.7785 5.80674C40.7585 5.76675 40.7385 5.72675 40.6985 5.68675C40.7185 5.66675 40.7385 5.66675 40.7585 5.64675C40.7985 5.60675 40.8385 5.56675 40.8785 5.50676C40.9385 5.56675 41.0185 5.60675 41.0985 5.62675C41.2785 5.66675 41.4185 5.64675 41.5785 5.58675ZM38.7986 11.6465C38.7986 11.7065 38.8186 11.7665 38.8386 11.8265C38.8186 11.8265 38.7986 11.8265 38.7586 11.8265C38.7986 11.7665 38.7986 11.7065 38.7986 11.6465ZM37.0187 10.1266C37.1987 10.4466 37.4386 10.6666 37.7186 10.7866C37.4186 10.8266 37.0987 10.9666 36.7987 11.1866C36.2787 11.5665 35.9987 12.0865 36.0187 12.5265C35.9987 12.5665 35.9787 12.6265 35.9587 12.6665C35.9387 12.5665 35.9187 12.4665 35.8787 12.3665C35.8187 12.1865 35.7187 12.0265 35.6387 11.8865C35.8987 11.5465 35.9787 11.2266 35.8387 11.0066C35.7987 10.9466 35.7387 10.9066 35.6787 10.8666C36.0187 10.6066 36.0987 10.0266 35.8587 9.50661C35.7387 9.26662 35.5787 9.06663 35.3787 8.92663C35.5787 9.02663 35.7987 9.10663 36.0587 9.10663C36.5987 9.10663 37.0387 8.84664 37.1786 8.46665C37.1986 8.50665 37.2386 8.54665 37.2786 8.58665C37.2586 8.58665 37.2586 8.60665 37.2386 8.60665C36.7787 8.86664 36.6787 9.52661 37.0187 10.1266ZM34.5187 8.82664C34.5187 8.76664 34.5187 8.70664 34.4987 8.62665C34.4587 8.46665 34.3588 8.32666 34.2188 8.22666C34.3188 8.26666 34.4187 8.26666 34.5187 8.26666C34.6587 8.24666 34.7787 8.18666 34.8787 8.08666C34.8787 8.12666 34.8587 8.16666 34.8587 8.20666C34.8587 8.46665 35.0187 8.72664 35.2587 8.88664C35.0387 8.74664 34.7587 8.70664 34.5187 8.82664C34.5387 8.82664 34.5187 8.82664 34.5187 8.82664ZM32.5788 10.9466C32.3388 10.6666 32.0588 10.4666 31.7788 10.3466C31.7988 10.3066 31.8188 10.2666 31.8188 10.2266C31.8188 10.1866 31.8388 10.1466 31.8388 10.1066C31.8788 10.1066 31.8988 10.0866 31.9388 10.0666C32.0188 10.0266 32.0788 9.9666 32.1188 9.9066C32.3788 10.0066 32.6988 10.0266 33.0388 9.9866C32.8388 10.2066 32.6788 10.5466 32.5788 10.9466ZM30.9989 7.50669C30.9589 7.1667 30.8189 6.88671 30.6189 6.68671C30.8589 6.74671 31.1389 6.74671 31.4189 6.68671C31.3989 7.0667 31.6388 7.52668 32.0588 7.90667C32.1988 8.02667 32.3388 8.10666 32.4788 8.18666C32.2988 8.26666 32.1388 8.34665 32.0188 8.44665C31.7588 7.94667 31.3589 7.62668 31.0189 7.62668C30.9989 7.58668 30.9989 7.54668 30.9989 7.50669ZM29.9989 5.34676C30.0189 5.34676 30.0389 5.36676 30.0589 5.36676C30.0189 5.40676 29.9789 5.46676 29.9589 5.50676C29.9789 5.46676 29.9989 5.40676 29.9989 5.34676ZM31.8188 3.84681C32.0588 4.06681 32.4388 4.1668 32.8588 4.1068C33.1388 4.06681 33.3788 3.94681 33.5588 3.80682C33.5388 3.88681 33.5388 3.98681 33.5788 4.06681C33.6788 4.48679 34.1988 4.72678 34.7987 4.70678C34.6587 5.04677 34.9387 5.62675 35.4787 6.10673C35.5787 6.18673 35.6787 6.26673 35.7987 6.34673C35.7787 6.34673 35.7587 6.34673 35.7387 6.36672C35.5787 6.40672 35.4387 6.46672 35.2987 6.50672C35.1387 5.74675 34.6587 5.20677 34.1388 5.26676C33.6788 5.32676 33.3588 5.88674 33.3588 6.56672C33.3388 6.54672 33.3188 6.52672 33.2988 6.50672C33.0788 6.30673 32.8388 6.16673 32.5988 6.10673C32.8188 5.86674 32.9188 5.58675 32.8588 5.32676C32.7388 4.86678 32.1588 4.62679 31.4789 4.70678C31.4989 4.68678 31.5189 4.66678 31.5388 4.62679C31.6588 4.3668 31.7588 4.1068 31.8188 3.84681ZM34.0588 2.58686C34.1988 2.70685 34.3388 2.78685 34.4787 2.86685C34.2388 2.96685 34.0388 3.08684 33.8988 3.24683C33.8988 3.18684 33.8988 3.12684 33.8988 3.08684C33.8788 2.88685 33.7588 2.72685 33.5988 2.58686C33.6988 2.52686 33.7988 2.46686 33.8788 2.40686C33.9188 2.44686 33.9788 2.52686 34.0588 2.58686ZM35.9787 2.78685C35.9187 2.76685 35.8787 2.74685 35.8187 2.72685C35.8387 2.70685 35.8387 2.68685 35.8587 2.66686C35.8987 2.72685 35.9387 2.76685 35.9787 2.78685ZM36.1387 4.72678C35.9787 4.62679 35.8187 4.54679 35.6787 4.50679C35.8387 4.42679 35.9787 4.3468 36.0987 4.2468C36.0587 4.3868 36.0787 4.56679 36.1387 4.72678ZM33.8588 7.98667C33.8988 8.02667 33.9388 8.06667 33.9988 8.10666C33.9388 8.08667 33.8988 8.06666 33.8388 8.04667C33.8388 8.04667 33.8388 8.02667 33.8588 7.98667ZM36.9187 7.60668C36.8387 7.54668 36.7587 7.48669 36.6787 7.44669C36.7987 7.38669 36.8987 7.32669 36.9987 7.24669C36.9587 7.36669 36.9387 7.48669 36.9187 7.60668ZM36.5387 2.94685C36.6787 2.92685 36.7987 2.86685 36.8987 2.76685C36.8987 2.80685 36.8787 2.84685 36.8787 2.88685C36.8787 3.02684 36.9187 3.14684 36.9787 3.24683H36.9587C36.7987 3.26683 36.6387 3.36683 36.5187 3.50683C36.5187 3.44683 36.5187 3.38683 36.4987 3.32683C36.4587 3.16684 36.3587 3.02684 36.2187 2.92685C36.3187 2.94685 36.4187 2.96685 36.5387 2.94685ZM31.3589 2.42686C31.3789 2.34687 31.3789 2.28687 31.3789 2.20687C31.4389 2.24687 31.4989 2.28687 31.5788 2.30687C31.7388 2.34687 31.8988 2.32687 32.0588 2.26687C32.0988 2.32687 32.1388 2.38687 32.1788 2.44686C31.9188 2.56686 31.7188 2.74685 31.6188 2.96685C31.5988 2.94685 31.5588 2.90685 31.5388 2.88685C31.4189 2.80685 31.2989 2.76685 31.1589 2.78685C31.2589 2.68685 31.3189 2.56686 31.3589 2.42686ZM29.9789 6.42672C29.7189 6.44672 29.4789 6.62672 29.3589 6.88671C29.4589 6.62672 29.4589 6.34673 29.3389 6.12673C29.3989 6.12673 29.4589 6.10673 29.5189 6.08673C29.6789 6.02674 29.7989 5.90674 29.8789 5.76675C29.8589 5.86674 29.8589 5.96674 29.8789 6.08673C29.9189 6.22673 29.9989 6.32673 30.0989 6.42672C30.0389 6.42672 30.0189 6.42672 29.9789 6.42672ZM33.7788 11.4465C33.7988 11.4065 33.7988 11.3665 33.8188 11.3266C33.9788 10.6466 33.9188 10.0266 33.6588 9.8266C33.8188 9.74661 33.9788 9.66661 34.0988 9.56661C34.0788 9.7866 34.1188 10.0266 34.2388 10.2666C34.3588 10.5466 34.5587 10.7466 34.7787 10.8866C34.5587 10.9666 34.3388 11.0666 34.0988 11.2066C33.9788 11.2866 33.8588 11.3665 33.7788 11.4465ZM35.7987 14.3064C35.8187 14.1465 35.7987 14.0065 35.7187 13.8865C35.6987 13.8465 35.6587 13.7865 35.6187 13.7465C35.6387 13.7465 35.6387 13.7465 35.6587 13.7465C35.7987 13.7065 35.8987 13.5665 35.9587 13.3665C35.9987 13.4465 36.0387 13.5065 36.0987 13.5865C36.1987 13.6865 36.3187 13.7465 36.4587 13.7665C36.3587 13.7865 36.2787 13.8265 36.2187 13.8865C36.0987 13.9865 36.0587 14.1465 36.0787 14.3264C36.0587 14.3264 36.0587 14.3264 36.0387 14.3064C35.9587 14.2864 35.8787 14.2864 35.7987 14.3064ZM37.5586 14.4064C37.4986 14.3064 37.4386 14.2264 37.3586 14.1465C37.1787 13.9465 36.9387 13.8065 36.7387 13.7665C37.0187 13.7265 37.3186 13.5865 37.5786 13.3265C37.6186 13.2865 37.6586 13.2265 37.6986 13.1665C37.6186 13.6265 37.6986 14.0665 37.8786 14.3664C37.7786 14.3864 37.6586 14.3864 37.5586 14.4064ZM39.1386 17.4063C39.2986 17.1663 39.3786 16.8864 39.2786 16.6264C39.2386 16.4864 39.1386 16.3464 39.0186 16.2664C39.0986 16.2264 39.1786 16.1864 39.2386 16.1264C39.2386 16.1264 39.2386 16.1264 39.2386 16.1064C39.2786 16.2664 39.3586 16.3664 39.4786 16.4264C39.5986 16.4864 39.7586 16.4664 39.8986 16.3864C39.8586 16.4864 39.8386 16.5864 39.8386 16.7064C39.8386 16.8464 39.8986 16.9864 39.9785 17.1063C39.9386 17.0863 39.8986 17.0863 39.8586 17.0863C39.5986 17.0464 39.3186 17.1863 39.1386 17.4063ZM41.3785 15.6464C41.0585 15.6464 40.7585 15.7264 40.4985 15.8464C40.6185 15.6864 40.7185 15.4864 40.8185 15.2864C41.1785 14.4864 41.1585 13.6865 40.7785 13.5265C40.3985 13.3465 39.7986 13.8665 39.4386 14.6864C39.3386 14.9064 39.2586 15.1464 39.2186 15.3664C39.1186 15.1664 38.9586 14.9664 38.7386 14.7864C39.1386 14.6464 39.4786 14.1865 39.5986 13.5665C39.6386 13.3865 39.6386 13.2065 39.6386 13.0465C40.1985 13.4865 40.8385 13.6065 41.1985 13.2865C41.5985 12.9065 41.4385 12.0865 40.8185 11.4465C40.5785 11.1866 40.3185 11.0066 40.0585 10.9066C40.2585 10.8066 40.4585 10.6466 40.6185 10.4466C40.9985 9.9066 40.9785 9.22662 40.5585 8.90664C40.1385 8.60665 39.4786 8.78664 39.0986 9.32662C38.7186 9.8666 38.7386 10.5466 39.1586 10.8666C39.0986 10.8866 39.0386 10.9266 38.9986 10.9866C38.8786 11.1066 38.7986 11.2666 38.7786 11.4465C38.7586 11.3465 38.7186 11.2266 38.6586 11.1466C38.5786 11.0266 38.4586 10.9466 38.2986 10.9066C38.3386 10.8866 38.3786 10.8866 38.3986 10.8666C38.8386 10.6266 38.9386 9.9466 38.6186 9.34662C38.5586 9.22662 38.4586 9.10663 38.3786 9.02663C38.7986 8.80664 38.9386 8.16666 38.6586 7.60668C38.3786 7.0267 37.7986 6.70671 37.3586 6.92671C37.3386 6.92671 37.3386 6.9467 37.3186 6.9467C37.3386 6.86671 37.3586 6.80671 37.3386 6.72671C37.3186 6.60672 37.2186 6.52672 37.0987 6.46672C37.1187 6.42672 37.1187 6.40672 37.1387 6.36672C37.2186 6.38672 37.2986 6.38672 37.3786 6.38672C37.9186 6.30673 38.2586 5.56675 38.1386 4.74678C38.0986 4.42679 37.9786 4.1268 37.8386 3.88681C37.9186 3.90681 37.9786 3.90681 38.0586 3.90681C38.1986 3.90681 38.3386 3.88681 38.4786 3.84681C38.4586 4.2468 38.6386 4.72678 38.9986 5.16677C39.0786 5.24676 39.1386 5.32676 39.2186 5.40676C38.8186 5.54675 38.5186 5.84674 38.5186 6.22673C38.5186 6.56672 38.7586 6.86671 39.1186 7.0267C39.0586 7.36669 39.1586 7.68668 39.3986 7.88667C39.7986 8.22666 40.4585 8.06667 40.8785 7.56668C40.8985 7.54668 40.8985 7.54668 40.9185 7.52668C40.9385 7.56668 40.9385 7.58668 40.9585 7.62668C41.1985 8.14666 41.6585 8.44665 42.0185 8.30666C42.0785 8.28666 42.1185 8.24666 42.1585 8.20666C42.1785 8.40665 42.2385 8.60665 42.3385 8.82664C42.3785 8.90664 42.4185 8.96663 42.4585 9.02663C42.4185 9.02663 42.3785 9.00663 42.3385 9.00663C41.6785 8.92663 41.0985 9.28662 41.0185 9.7866C40.9385 10.2866 41.4185 10.7866 42.0785 10.8666C42.3585 10.9066 42.6185 10.8666 42.8385 10.7666C42.6385 10.8866 42.4585 11.0466 42.2985 11.2866C42.0185 11.7065 41.9785 12.2065 42.1585 12.5465C41.9785 12.5665 41.8185 12.6265 41.6985 12.7465C41.3385 13.1065 41.4385 13.7865 41.9185 14.2664C42.1585 14.5064 42.4385 14.6464 42.6985 14.6864C42.4585 14.8264 42.2185 15.0664 41.9985 15.3464C41.8785 15.5064 41.7785 15.6464 41.7185 15.8064C41.5985 15.6464 41.4785 15.6464 41.3785 15.6464Z" fill="#B264B7"/>
<path d="M59.7179 54.0051L59.4779 53.7851C59.4779 53.7651 60.3979 52.7451 61.5578 50.7052C62.6378 48.8252 64.1577 45.6654 65.3177 41.3055C67.4976 33.0658 64.8177 27.366 64.7977 27.306L65.0777 27.166C65.0977 27.226 67.8376 33.0058 65.6177 41.3855C64.4577 45.7654 62.9178 48.9652 61.8178 50.8652C60.6379 52.9451 59.7579 53.9651 59.7179 54.0051Z" fill="#624F98"/>
<path d="M73.8574 47.3253C73.5174 45.6254 72.5774 44.3454 71.1375 43.4255C70.5375 43.0255 69.8775 42.7655 69.1775 42.5855C68.5176 42.4255 67.8376 42.3455 67.1576 42.4655C66.9176 42.5055 66.5976 42.6255 66.4576 42.6655C66.3176 42.7055 65.6577 43.0655 65.3977 43.2855C65.1577 43.5055 65.0777 43.7654 64.9977 43.9254C65.2377 44.0654 65.4977 44.2254 65.7777 44.3854C66.1376 44.1254 67.1776 43.5655 68.5976 43.7054C70.3575 43.8854 71.5375 45.5254 71.5375 45.6054C71.5375 45.6854 70.3175 44.1854 68.5576 44.0054C67.2376 43.8654 66.2376 44.2654 65.8377 44.4454C66.3576 44.7854 66.8976 45.1854 67.4376 45.6454C67.8576 45.4654 68.5576 45.2854 69.4175 45.4654C70.7775 45.7454 71.5774 47.1453 71.5574 47.2053C71.5374 47.2653 70.7175 45.9854 69.3575 45.6854C68.5976 45.5254 67.9376 45.6254 67.5376 45.7454C67.8176 45.9854 68.0976 46.2654 68.3576 46.5453C68.6375 46.8453 68.8775 47.1453 69.1175 47.4453C69.4375 47.4053 69.8775 47.4253 70.3575 47.6253C71.2775 48.0453 71.5974 49.2253 71.5774 49.2652C71.5574 49.3052 71.1975 48.2053 70.2975 47.7853C69.8975 47.6053 69.5175 47.5453 69.2175 47.5453C70.6975 49.5452 71.1375 51.4452 71.0575 51.5252C70.9775 51.6052 70.3775 49.6452 68.6976 47.5853C68.6376 47.5853 68.5976 47.6053 68.5976 47.5853C68.5976 47.5853 68.6176 47.5653 68.6775 47.5453C68.6376 47.4853 68.5776 47.4253 68.5376 47.3653C68.3776 47.7053 68.1376 48.3453 68.2976 48.9653C68.5376 49.9252 69.2375 50.3652 69.1975 50.3852C69.1575 50.4052 68.3576 49.9652 68.1176 49.0253C67.9576 48.3453 68.2776 47.6653 68.4976 47.3253C68.3576 47.1653 68.2176 47.0053 68.0776 46.8453C67.7576 46.5053 67.4176 46.1854 67.0976 45.8854H67.0776C66.9376 45.7654 66.7976 45.6454 66.6576 45.5254C66.4176 46.0054 66.0176 46.9653 66.2576 47.9453C66.5976 49.3252 67.6176 49.9452 67.5376 49.9652C67.4576 49.9852 66.3376 49.3652 65.9976 48.0053C65.7377 46.9853 66.2776 45.9454 66.5976 45.4854C66.2576 45.2054 65.9376 44.9654 65.6177 44.7454C65.2377 45.0854 64.3577 45.9654 64.2377 47.1253C64.0777 48.6453 64.8577 49.6852 64.7777 49.6852C64.6977 49.6852 63.7977 48.6253 63.9577 47.1053C64.0777 45.9054 65.0977 45.0254 65.5577 44.7054C65.2577 44.4854 64.9777 44.3054 64.7177 44.1254L64.6177 44.2254C64.6977 44.3054 64.6177 44.3254 64.5977 44.3454C64.5777 44.3454 64.2777 44.4654 64.0777 44.5654C63.8777 44.6654 63.2377 45.0854 63.2377 45.0854C62.9978 45.2454 62.5978 45.7254 62.4578 45.9654C62.2378 46.3454 62.0778 46.7453 61.9778 47.1653C61.8778 47.5253 61.8378 47.8853 61.7978 48.2453C61.7378 49.2253 61.8578 50.1652 62.2978 51.0452C62.6178 51.6652 63.0778 52.1452 63.6377 52.5651C64.2577 53.0051 64.9377 53.3251 65.6377 53.6051C66.4776 53.9251 67.3176 54.1651 68.1776 54.4251C69.4175 54.8051 70.6775 55.185 71.8574 55.725C72.3574 55.945 72.8374 56.185 73.3174 56.465C73.3374 56.485 73.3574 56.485 73.3774 56.505C73.3974 56.505 73.4174 56.505 73.4174 56.485C73.3374 56.245 73.2974 55.985 73.2974 55.725C73.2574 55.165 73.3174 54.6051 73.3974 54.0451C73.4574 53.6651 73.5174 53.2851 73.5774 52.9251C73.6574 52.4251 73.7574 51.9252 73.8174 51.4252C73.8774 51.0452 73.9374 50.6452 73.9574 50.2652C74.0174 49.2453 74.0374 48.2853 73.8574 47.3253Z" fill="#624F98"/>
<path d="M73.3975 32.026C73.1775 30.926 72.5775 30.1061 71.6375 29.5061C71.2375 29.2461 70.8175 29.0861 70.3776 28.9661C69.9576 28.8661 69.5176 28.8261 69.0776 28.8861C68.9176 28.9061 68.7176 28.9861 68.6176 29.0061C68.5176 29.0261 68.0976 29.2661 67.9376 29.4061C67.7777 29.5461 67.7177 29.7261 67.6777 29.8261C67.8376 29.9061 67.9976 30.0261 68.1776 30.1261C68.3976 29.9661 69.0776 29.5861 69.9976 29.6861C71.1375 29.8061 71.8975 30.866 71.8975 30.906C71.8975 30.966 71.1175 29.9861 69.9776 29.8661C69.1176 29.7661 68.4776 30.0261 68.2176 30.1461C68.5576 30.366 68.8976 30.626 69.2376 30.926C69.4976 30.806 69.9576 30.686 70.5176 30.806C71.3975 30.986 71.9175 31.886 71.8975 31.926C71.8975 31.966 71.3575 31.126 70.4776 30.946C69.9776 30.846 69.5576 30.906 69.2976 30.986C69.4776 31.146 69.6576 31.326 69.8376 31.506C70.0176 31.706 70.1776 31.886 70.3176 32.086C70.5376 32.066 70.8175 32.066 71.1175 32.206C71.7175 32.466 71.9175 33.2459 71.8975 33.2659C71.8775 33.2859 71.6575 32.586 71.0575 32.306C70.7975 32.186 70.5576 32.146 70.3576 32.146C71.3175 33.4459 71.5975 34.6659 71.5375 34.7059C71.4775 34.7459 71.0975 33.4859 70.0176 32.166C69.9776 32.166 69.9576 32.166 69.9576 32.166C69.9576 32.166 69.9776 32.146 69.9976 32.146C69.9576 32.106 69.9376 32.066 69.8976 32.026C69.7976 32.246 69.6376 32.666 69.7376 33.066C69.8976 33.6859 70.3376 33.9659 70.3176 33.9859C70.2976 34.0059 69.7776 33.7259 69.6176 33.1059C69.5176 32.666 69.7176 32.226 69.8576 32.006C69.7776 31.906 69.6776 31.806 69.5776 31.706C69.3776 31.486 69.1576 31.286 68.9376 31.086C68.9376 31.086 68.9176 31.086 68.9376 31.086C68.8576 31.006 68.7576 30.926 68.6776 30.866C68.5376 31.166 68.2576 31.786 68.4176 32.426C68.6376 33.3059 69.2976 33.7259 69.2376 33.7259C69.1976 33.7459 68.4576 33.3459 68.2376 32.466C68.0776 31.806 68.4176 31.126 68.6176 30.826C68.3976 30.646 68.1976 30.486 67.9976 30.346C67.7577 30.566 67.1977 31.126 67.1177 31.886C67.0177 32.866 67.5177 33.5459 67.4777 33.5259C67.4177 33.5259 66.8377 32.846 66.9377 31.866C67.0177 31.086 67.6777 30.526 67.9776 30.326C67.7777 30.1861 67.5977 30.0661 67.4377 29.9661L67.3777 30.0261C67.4177 30.0661 67.3777 30.0861 67.3577 30.1061C67.3377 30.1061 67.1577 30.1861 67.0177 30.2461C66.8777 30.3061 66.4777 30.586 66.4777 30.586C66.3177 30.686 66.0777 30.986 65.9777 31.146C65.8377 31.386 65.7377 31.646 65.6577 31.926C65.5977 32.166 65.5577 32.386 65.5377 32.626C65.4977 33.2459 65.5777 33.8659 65.8577 34.4259C66.0577 34.8259 66.3577 35.1459 66.7177 35.4059C67.1177 35.6859 67.5577 35.9059 68.0176 36.0658C68.5576 36.2658 69.0976 36.4258 69.6576 36.6058C70.4576 36.8458 71.2575 37.0858 72.0375 37.4458C72.3575 37.5858 72.6775 37.7458 72.9775 37.9258C72.9975 37.9258 72.9975 37.9458 73.0175 37.9458C73.0375 37.9458 73.0375 37.9458 73.0375 37.9258C72.9775 37.7658 72.9575 37.6058 72.9575 37.4458C72.9375 37.0858 72.9775 36.7258 73.0175 36.3658C73.0575 36.1258 73.0975 35.8859 73.1375 35.6459C73.1975 35.3259 73.2575 35.0059 73.2975 34.6659C73.3375 34.4259 73.3775 34.1659 73.3975 33.9259C73.4975 33.2659 73.5174 32.626 73.3975 32.026Z" fill="#624F98"/>
<path d="M44.5584 20.9461C44.1984 20.1662 44.1984 19.3662 44.5184 18.5662C44.6584 18.2262 44.8384 17.9263 45.0784 17.6463C45.2984 17.3863 45.5584 17.1663 45.8584 17.0063C45.9784 16.9463 46.1384 16.9063 46.1984 16.8863C46.2784 16.8663 46.6383 16.8063 46.7983 16.8263C46.9583 16.8463 47.0783 16.9263 47.1583 16.9663C47.0983 17.0863 47.0383 17.2263 46.9783 17.3863C46.7583 17.3863 46.1784 17.4663 45.6384 17.9463C44.9784 18.5462 44.9784 19.5462 44.9984 19.5662C45.0184 19.5862 45.0784 18.6462 45.7384 18.0462C46.2384 17.6063 46.7583 17.4663 46.9583 17.4263C46.8383 17.7063 46.7383 18.0262 46.6583 18.3862C46.4383 18.4262 46.0984 18.5662 45.7984 18.8862C45.3384 19.4062 45.4184 20.1862 45.4384 20.2262C45.4584 20.2462 45.4184 19.4862 45.8784 18.9662C46.1384 18.6862 46.4383 18.5262 46.6383 18.4462C46.5983 18.6262 46.5583 18.8262 46.5383 19.0062C46.5183 19.2062 46.4983 19.4062 46.4983 19.5862C46.3583 19.6662 46.1784 19.8062 46.0584 20.0262C45.8184 20.4662 46.0384 21.0261 46.0584 21.0461C46.0784 21.0661 45.8984 20.5062 46.1384 20.0662C46.2384 19.8662 46.3783 19.7462 46.4983 19.6462C46.4783 20.8861 46.8783 21.7861 46.9183 21.7861C46.9783 21.7861 46.6383 20.8261 46.7183 19.5062C46.7383 19.4862 46.7583 19.4862 46.7583 19.4862C46.7583 19.4862 46.7383 19.4862 46.7183 19.4862C46.7183 19.4462 46.7183 19.4062 46.7183 19.3662C46.8783 19.4662 47.1583 19.6462 47.2783 19.9462C47.4583 20.4062 47.2983 20.7862 47.3383 20.7862C47.3583 20.7862 47.5583 20.3662 47.3783 19.9262C47.2383 19.6062 46.9183 19.4262 46.7183 19.3462C46.7183 19.2462 46.7383 19.1462 46.7583 19.0262C46.7783 18.7862 46.8383 18.5662 46.8783 18.3462C46.8983 18.2662 46.9183 18.1662 46.9383 18.0862C47.1783 18.2062 47.6183 18.4862 47.7983 18.9462C48.0583 19.6062 47.8383 20.1462 47.8783 20.1462C47.9183 20.1262 48.1983 19.5662 47.9183 18.9062C47.7183 18.4062 47.1983 18.1462 46.9383 18.0662C46.9983 17.8663 47.0583 17.6663 47.1183 17.4863C47.3783 17.5263 47.9783 17.6063 48.3783 18.0462C48.8983 18.6062 48.8783 19.2662 48.8983 19.2462C48.9183 19.2262 48.9983 18.5262 48.4783 17.9662C48.0783 17.5063 47.3983 17.4663 47.1383 17.4663C47.1983 17.2863 47.2583 17.1263 47.3183 16.9863H47.3783C47.3783 17.0463 47.4183 17.0263 47.4183 17.0263C47.4383 17.0263 47.5783 16.9863 47.6983 16.9663C47.8183 16.9463 48.1783 16.9263 48.1783 16.9263C48.3183 16.9263 48.6183 16.9863 48.7583 17.0463C48.9583 17.1263 49.1383 17.2463 49.2982 17.3863C49.4382 17.5063 49.5782 17.6263 49.6782 17.7663C49.9782 18.1462 50.2182 18.5462 50.2982 19.0462C50.3582 19.3862 50.2982 19.7262 50.1982 20.0462C50.0782 20.4062 49.8982 20.7262 49.6982 21.0461C49.4582 21.4261 49.1783 21.7661 48.9183 22.1261C48.5183 22.6461 48.1383 23.1661 47.7983 23.726C47.6583 23.966 47.5383 24.206 47.4183 24.446C47.4183 24.446 47.4183 24.466 47.3983 24.466C47.3983 24.486 47.3783 24.486 47.3783 24.466C47.3383 24.346 47.2783 24.226 47.2183 24.126C47.0583 23.886 46.8783 23.686 46.6783 23.4661C46.5383 23.3261 46.4183 23.1861 46.2784 23.0661C46.0984 22.8861 45.9184 22.7061 45.7384 22.5261C45.5984 22.3861 45.4584 22.2461 45.3384 22.1061C45.0384 21.7861 44.7584 21.4061 44.5584 20.9461Z" fill="#624F98"/>
<path d="M59.5179 37.4057C59.7179 36.3458 60.3178 35.5658 61.1978 34.9858C61.5778 34.7458 61.9778 34.5658 62.4178 34.4658C62.8377 34.3658 63.2577 34.3258 63.6777 34.4058C63.8177 34.4258 64.0377 34.5058 64.1177 34.5258C64.1977 34.5458 64.6177 34.7658 64.7777 34.9058C64.9377 35.0458 64.9777 35.2058 65.0177 35.3058C64.8577 35.3858 64.6977 35.4858 64.5377 35.6058C64.3177 35.4458 63.6777 35.0858 62.7777 35.1858C61.6978 35.3058 60.9578 36.3058 60.9578 36.3658C60.9578 36.4258 61.7178 35.4858 62.7978 35.3658C63.6177 35.2858 64.2377 35.5258 64.4777 35.6458C64.1577 35.8458 63.8177 36.1058 63.4977 36.3858C63.2377 36.2658 62.7977 36.1658 62.2778 36.2658C61.4378 36.4458 60.9378 37.3057 60.9378 37.3457C60.9378 37.3857 61.4578 36.5858 62.2978 36.4058C62.7778 36.3058 63.1777 36.3658 63.4377 36.4458C63.2577 36.6058 63.0977 36.7658 62.9377 36.9458C62.7578 37.1257 62.6178 37.3057 62.4778 37.5057C62.2778 37.4857 61.9978 37.4857 61.7178 37.6257C61.1578 37.8857 60.9578 38.6257 60.9578 38.6457C60.9778 38.6657 61.1778 37.9857 61.7578 37.7257C61.9978 37.6057 62.2378 37.5857 62.4178 37.5857C61.4978 38.8257 61.2378 40.0056 61.2778 40.0456C61.3178 40.0856 61.6978 38.8857 62.7378 37.6057C62.7778 37.6057 62.7978 37.6057 62.7978 37.6057C62.7978 37.6057 62.7777 37.5857 62.7577 37.5857C62.7777 37.5457 62.8177 37.5057 62.8577 37.4857C62.9577 37.7057 63.0977 38.0857 63.0177 38.4857C62.8777 39.0857 62.4378 39.3457 62.4578 39.3657C62.4978 39.3657 62.9777 39.1057 63.1177 38.5257C63.2177 38.1057 63.0177 37.6857 62.8777 37.4657C62.9577 37.3657 63.0577 37.2657 63.1377 37.1657C63.3377 36.9457 63.5377 36.7658 63.7577 36.5658C63.8377 36.4858 63.9177 36.4258 64.0177 36.3458C64.1577 36.6458 64.4177 37.2457 64.2577 37.8457C64.0377 38.6857 63.4177 39.0857 63.4577 39.1057C63.4977 39.1257 64.1977 38.7457 64.4177 37.8857C64.5777 37.2457 64.2377 36.6058 64.0577 36.3258C64.2577 36.1658 64.4577 36.0058 64.6577 35.8658C64.8977 36.0858 65.4377 36.6258 65.5177 37.3457C65.6177 38.2857 65.1377 38.9257 65.1777 38.9257C65.2177 38.9257 65.7976 38.2657 65.6976 37.3257C65.6177 36.5858 64.9977 36.0258 64.7177 35.8458C64.8977 35.7058 65.0777 35.6058 65.2377 35.4858L65.2977 35.5458C65.2577 35.5858 65.2977 35.6058 65.3177 35.6258C65.3377 35.6258 65.5177 35.7058 65.6377 35.7658C65.7576 35.8258 66.1576 36.0858 66.1576 36.0858C66.3176 36.1858 66.5576 36.4858 66.6376 36.6258C66.7776 36.8658 66.8576 37.1057 66.9376 37.3657C66.9976 37.5857 67.0376 37.8057 67.0376 38.0457C67.0776 38.6457 66.9976 39.2257 66.7176 39.7856C66.5176 40.1656 66.2376 40.4656 65.8776 40.7256C65.4977 41.0056 65.0777 41.2056 64.6377 41.3656C64.1177 41.5656 63.5977 41.7256 63.0577 41.8856C62.2778 42.1256 61.5178 42.3656 60.7778 42.6855C60.4778 42.8255 60.1578 42.9655 59.8779 43.1455C59.8579 43.1455 59.8579 43.1655 59.8379 43.1655C59.8179 43.1655 59.8179 43.1655 59.8179 43.1455C59.8779 42.9855 59.8979 42.8455 59.8979 42.6855C59.9179 42.3256 59.8779 41.9856 59.8379 41.6456C59.7979 41.4056 59.7579 41.1856 59.7179 40.9456C59.6579 40.6256 59.6179 40.3256 59.5579 40.0056C59.5179 39.7656 59.4779 39.5257 59.4579 39.2857C59.3979 38.6057 59.3979 38.0057 59.5179 37.4057Z" fill="#624F98"/>
</svg>
