<svg width="49" height="18" viewBox="0 0 49 18" fill="none" xmlns="http://www.w3.org/2000/svg">
<path d="M0.952271 0V4.85194C1.15449 4.28039 1.75754 3.73185 2.7578 3.73185C4.2275 3.73185 4.64999 4.81655 4.64999 6.25514V13.7401H3.88264V6.4197C3.88264 5.49957 3.8014 4.47327 2.61877 4.47327C1.22671 4.47327 0.946854 5.6022 0.946854 7.36107V13.7489H0.179504V0H0.952271Z" fill="white"/>
<path d="M7.6907 3.89287H8.46347V13.7401H7.6907V3.89287ZM7.6907 0H8.46167V1.89512H7.69251L7.6907 0Z" fill="white"/>
<path d="M11.5072 6.84629C11.5072 4.89986 11.5072 4.42032 11.4874 3.88948H12.2186C12.2385 4.10713 12.2583 4.4044 12.2583 4.96887C12.5599 4.08412 13.2207 3.73022 14.0891 3.73022C15.0587 3.73022 15.9831 4.22922 15.9831 5.98455V13.7402H15.2104V6.14911C15.2104 5.12635 14.8691 4.46456 13.9465 4.46456C12.9661 4.46456 12.2728 4.91578 12.2728 7.33467V13.7402H11.5072V6.84629Z" fill="white"/>
<path d="M22.971 12.3668C22.971 13.0923 22.9909 13.54 23.0108 13.7399H22.2633C22.2112 13.4477 22.1834 13.1518 22.1802 12.8552C21.8787 13.7169 21.1782 13.8956 20.5552 13.8956C19.1668 13.8956 18.6215 12.749 18.6215 11.1936V11.0167C18.6215 8.99769 19.759 8.05809 21.5302 8.05809H22.1838V6.18243C22.1838 5.16497 21.9654 4.46072 20.9886 4.46072C20.0118 4.46072 19.7139 5.18444 19.7139 6.12227V6.49209H18.9393V6.12227C18.9393 4.80046 19.481 3.73169 21.0066 3.73169C22.563 3.73169 22.971 4.83408 22.971 6.14173V12.3668ZM22.2073 8.74819H21.5519C20.1743 8.74819 19.4141 9.35335 19.4141 10.9795V11.1565C19.4141 12.2305 19.7157 13.1666 20.678 13.1666C21.8715 13.1666 22.2127 12.1545 22.2127 10.5265L22.2073 8.74819Z" fill="white"/>
<path d="M30.2632 13.9009C30.2632 15.7023 30.0213 17.2453 27.8745 17.2453C26.0906 17.2453 25.7079 15.9606 25.7079 14.9166V14.8635H26.4987V14.9414C26.4987 15.6616 26.7767 16.5622 27.9142 16.5622C29.1781 16.5622 29.4886 15.6616 29.4886 14.0549V12.5862C29.207 13.3878 28.6852 13.7435 27.7427 13.7435C26.5222 13.7435 25.7259 12.9596 25.7259 10.8043V6.59295C25.7259 4.44302 26.7605 3.73169 27.9431 3.73169C28.9488 3.73169 29.4507 4.282 29.5681 4.73676C29.5681 4.48018 29.6096 4.14398 29.6295 3.88917H30.2975C30.2777 4.36517 30.2578 5.32777 30.2578 6.62126L30.2632 13.9009ZM26.5204 6.61419V10.7159C26.5204 12.2606 26.9573 13.0038 27.8366 13.0038C29.281 13.0038 29.5103 11.39 29.5103 9.93905V7.00347C29.5103 5.55957 29.3514 4.46426 27.9973 4.46426C26.9013 4.46426 26.5204 5.32069 26.5204 6.61419Z" fill="white"/>
<path d="M37.2506 12.3668C37.2506 13.0923 37.2705 13.54 37.2921 13.7399H36.5428C36.4903 13.4478 36.4632 13.1518 36.4616 12.8552C36.1583 13.7169 35.4595 13.8956 34.8366 13.8956C33.4464 13.8956 32.9029 12.749 32.9029 11.1936V11.0167C32.9029 8.99769 34.0404 8.05809 35.8098 8.05809H36.4634V6.18243C36.4634 5.16497 36.2449 4.46072 35.2681 4.46072C34.2914 4.46072 34.0043 5.18444 34.0043 6.12227V6.49209H33.2207V6.12227C33.2207 4.80046 33.7623 3.73169 35.2862 3.73169C36.8426 3.73169 37.2506 4.83408 37.2506 6.14173V12.3668ZM36.4815 8.74819H35.8243C34.4484 8.74819 33.6883 9.35335 33.6883 10.9795V11.1565C33.6883 12.2305 33.988 13.1666 34.9522 13.1666C36.1456 13.1666 36.4869 12.1545 36.4869 10.5265L36.4815 8.74819Z" fill="white"/>
<path d="M39.2098 3.89281H40.452V1.41553H41.2049V3.89281H42.7901V4.58291H41.2103V12.0325C41.2103 12.5828 41.3295 13.1879 41.9921 13.1879C42.2342 13.1892 42.4759 13.1691 42.7143 13.1278V13.7577C42.4033 13.8335 42.0832 13.8674 41.7628 13.8586C41.0875 13.8586 40.461 13.4657 40.461 12.1758V4.58291H39.2188L39.2098 3.89281Z" fill="white"/>
<path d="M48.7808 12.3668C48.7808 13.0923 48.8006 13.54 48.8205 13.7399H48.0712C48.0196 13.4477 47.9924 13.1518 47.99 12.8552C47.6884 13.7169 46.9879 13.8956 46.365 13.8956C44.9747 13.8956 44.4313 12.749 44.4313 11.1936V11.0167C44.4313 8.99769 45.5688 8.05809 47.3382 8.05809H47.9918V6.18243C47.9918 5.16497 47.7751 4.46072 46.7983 4.46072C45.8215 4.46072 45.5236 5.18444 45.5236 6.12227V6.49209H44.7527V6.12227C44.7527 4.80046 45.2943 3.73169 46.8182 3.73169C48.3763 3.73169 48.7844 4.83408 48.7844 6.14173L48.7808 12.3668ZM48.0098 8.74819H47.3526C45.9768 8.74819 45.2167 9.35335 45.2167 10.9795V11.1565C45.2167 12.2305 45.5164 13.1666 46.4805 13.1666C47.674 13.1666 48.0152 12.1545 48.0152 10.5265L48.0098 8.74819Z" fill="white"/>
</svg>
